# Blender v2.77 (sub 0) OBJ File: 'Barrel.blend'
# www.blender.org
mtllib Barrel.mtl
o Cylinder.001_Cylinder.002
v -0.287455 -0.499661 0.287455
v -0.287455 0.503100 0.287455
v -0.328174 0.355542 0.328174
v -0.358735 0.001720 0.358735
v -0.328174 -0.352103 0.328174
v -0.000000 -0.499661 0.406523
v -0.000000 0.503100 0.406523
v 0.287455 -0.499661 0.287455
v 0.287455 0.503100 0.287455
v -0.000000 0.355542 0.464108
v -0.000000 0.001720 0.507328
v -0.000000 -0.352103 0.464108
v 0.328174 0.355542 0.328174
v 0.358735 0.001720 0.358735
v 0.328174 -0.352103 0.328174
v -0.287455 -0.499661 -0.287455
v -0.287455 0.503100 -0.287455
v -0.406523 -0.499661 -0.000000
v -0.406523 0.503100 -0.000000
v -0.328174 0.355542 -0.328174
v -0.358735 0.001720 -0.358735
v -0.328174 -0.352103 -0.328174
v -0.464107 0.355542 -0.000000
v -0.507328 0.001720 -0.000000
v -0.464107 -0.352103 -0.000000
v -0.000000 -0.499661 -0.406523
v -0.000000 0.503100 -0.406523
v 0.287455 -0.499661 -0.287455
v 0.287455 0.503100 -0.287455
v 0.406523 -0.499661 -0.000000
v 0.406523 0.503100 -0.000000
v -0.000000 0.355542 -0.464108
v -0.000000 0.001720 -0.507328
v -0.000000 -0.352103 -0.464108
v 0.328174 0.355542 -0.328174
v 0.358735 0.001720 -0.358735
v 0.328174 -0.352103 -0.328174
v 0.464107 0.355542 -0.000000
v 0.507328 0.001720 -0.000000
v 0.464107 -0.352103 -0.000000
v -0.000000 0.503100 -0.000000
v -0.000000 -0.499661 -0.000000
v -0.309222 0.486155 0.311927
v -0.329889 0.404607 0.332820
v 0.000000 0.486155 0.443373
v 0.309222 0.486155 0.311927
v 0.000000 0.404607 0.473071
v 0.329889 0.404607 0.332820
v -0.309222 0.486155 -0.311927
v -0.433612 0.486155 -0.000000
v -0.329889 0.404607 -0.332820
v -0.459255 0.404607 0.000000
v 0.000000 0.486155 -0.443373
v 0.309222 0.486155 -0.311927
v 0.433612 0.486155 -0.000000
v 0.000000 0.404607 -0.473071
v 0.329889 0.404607 -0.332820
v 0.459255 0.404607 0.000000
v 0.000000 0.486155 0.000000
v 0.000000 0.404607 0.000000
v -0.352273 0.261299 0.355355
v -0.362676 0.172599 0.365899
v 0.000000 0.261299 0.505101
v 0.352273 0.261299 0.355355
v 0.000000 0.172599 0.520089
v 0.362676 0.172599 0.365899
v -0.352273 0.261299 -0.355355
v -0.493981 0.261299 -0.000000
v -0.362676 0.172599 -0.365899
v -0.504899 0.172599 -0.000000
v 0.000000 0.261299 -0.505101
v 0.352273 0.261299 -0.355355
v 0.493981 0.261299 -0.000000
v 0.000000 0.172599 -0.520089
v 0.362676 0.172599 -0.365899
v 0.504899 0.172599 -0.000000
v 0.000000 0.261299 -0.000000
v 0.000000 0.172599 -0.000000
v -0.326452 -0.405225 0.329308
v -0.308386 -0.484754 0.311127
v -0.000000 -0.405225 0.468079
v 0.326452 -0.405225 0.329308
v -0.000000 -0.484754 0.442236
v 0.308386 -0.484754 0.311127
v -0.326452 -0.405225 -0.329308
v -0.457774 -0.405225 -0.000000
v -0.308386 -0.484754 -0.311127
v -0.429320 -0.484754 0.000000
v -0.000000 -0.405225 -0.468079
v 0.326452 -0.405225 -0.329308
v 0.457774 -0.405225 -0.000000
v -0.000000 -0.484754 -0.442236
v 0.308386 -0.484754 -0.311127
v 0.429320 -0.484754 0.000000
v -0.000000 -0.405225 -0.000000
v -0.000000 -0.484754 -0.000000
v -0.356018 -0.189492 0.359132
v -0.348116 -0.278192 0.351210
v 0.000000 -0.189492 0.510471
v 0.356018 -0.189492 0.359132
v 0.000000 -0.278192 0.499210
v 0.348116 -0.278192 0.351210
v -0.356018 -0.189492 -0.359132
v -0.499233 -0.189492 -0.000000
v -0.348116 -0.278192 -0.351210
v -0.484630 -0.278192 -0.000000
v 0.000000 -0.189492 -0.510471
v 0.356018 -0.189492 -0.359132
v 0.499233 -0.189492 -0.000000
v 0.000000 -0.278192 -0.499210
v 0.348116 -0.278192 -0.351210
v 0.484630 -0.278192 -0.000000
v 0.000000 -0.189492 -0.000000
v 0.000000 -0.278192 -0.000000
v -0.000000 -0.499661 0.406523
v -0.287455 -0.499661 0.287455
v -0.287455 0.503100 0.287455
v -0.000000 0.503100 0.406523
v -0.406523 -0.499661 -0.000000
v -0.406523 0.503100 -0.000000
v 0.287455 -0.499661 0.287455
v 0.287455 0.503100 0.287455
v 0.406523 -0.499661 -0.000000
v 0.406523 0.503100 -0.000000
v -0.000000 -0.499661 -0.406523
v -0.287455 -0.499661 -0.287455
v -0.287455 0.503100 -0.287455
v -0.000000 0.503100 -0.406523
v 0.287455 -0.499661 -0.287455
v 0.287455 0.503100 -0.287455
v -0.309222 0.486155 0.311927
v -0.433612 0.486155 -0.000000
v 0.000000 0.486155 0.443373
v -0.329889 0.404607 0.332820
v -0.459255 0.404607 0.000000
v 0.000000 0.404607 0.473071
v 0.309222 0.486155 0.311927
v 0.433612 0.486155 -0.000000
v 0.329889 0.404607 0.332820
v 0.459255 0.404607 0.000000
v -0.309222 0.486155 -0.311927
v 0.000000 0.486155 -0.443373
v -0.329889 0.404607 -0.332820
v 0.000000 0.404607 -0.473071
v 0.309222 0.486155 -0.311927
v 0.329889 0.404607 -0.332820
v -0.352273 0.261299 0.355355
v -0.493981 0.261299 -0.000000
v 0.000000 0.261299 0.505101
v -0.362676 0.172599 0.365899
v -0.504899 0.172599 -0.000000
v 0.000000 0.172599 0.520089
v 0.352273 0.261299 0.355355
v 0.493981 0.261299 -0.000000
v 0.362676 0.172599 0.365899
v 0.504899 0.172599 -0.000000
v -0.352273 0.261299 -0.355355
v 0.000000 0.261299 -0.505101
v -0.362676 0.172599 -0.365899
v 0.000000 0.172599 -0.520089
v 0.352273 0.261299 -0.355355
v 0.362676 0.172599 -0.365899
v -0.326452 -0.405225 0.329308
v -0.457774 -0.405225 -0.000000
v -0.000000 -0.405225 0.468079
v -0.308386 -0.484754 0.311127
v -0.429320 -0.484754 0.000000
v -0.000000 -0.484754 0.442236
v 0.326452 -0.405225 0.329308
v 0.457774 -0.405225 -0.000000
v 0.308386 -0.484754 0.311127
v 0.429320 -0.484754 0.000000
v -0.326452 -0.405225 -0.329308
v -0.000000 -0.405225 -0.468079
v -0.308386 -0.484754 -0.311127
v -0.000000 -0.484754 -0.442236
v 0.326452 -0.405225 -0.329308
v 0.308386 -0.484754 -0.311127
v -0.356018 -0.189492 0.359132
v -0.499233 -0.189492 -0.000000
v 0.000000 -0.189492 0.510471
v -0.348116 -0.278192 0.351210
v -0.484630 -0.278192 -0.000000
v 0.000000 -0.278192 0.499210
v 0.356018 -0.189492 0.359132
v 0.499233 -0.189492 -0.000000
v 0.348116 -0.278192 0.351210
v 0.484630 -0.278192 -0.000000
v -0.356018 -0.189492 -0.359132
v 0.000000 -0.189492 -0.510471
v -0.348116 -0.278192 -0.351210
v 0.000000 -0.278192 -0.499210
v 0.356018 -0.189492 -0.359132
v 0.348116 -0.278192 -0.351210
vt 0.687577 0.843853
vt 0.648015 0.987221
vt 0.368721 0.987221
vt 0.368721 0.843853
vt 0.089427 0.987221
vt 0.049865 0.843852
vt 0.368721 0.012930
vt 0.368721 0.156298
vt 0.049865 0.156298
vt 0.089427 0.012930
vt 0.368721 0.500075
vt 0.020172 0.500075
vt 0.648016 0.012930
vt 0.687578 0.156298
vt 0.717271 0.500075
vt 0.669648 0.988518
vt 0.763644 0.761591
vt 0.984712 0.988518
vt 0.984712 0.667594
vt 0.984712 0.667594
vt 0.763644 0.761591
vt 0.984712 0.988518
vt 0.669648 0.988518
vt 0.368721 0.843853
vt 0.368721 0.987221
vt 0.049865 0.843852
vt 0.089427 0.987221
vt 0.368721 0.012930
vt 0.089427 0.012930
vt 0.049865 0.156298
vt 0.368721 0.156298
vt 0.020172 0.500075
vt 0.368721 0.500075
vt 0.669648 0.988518
vt 0.763644 0.761591
vt 0.763644 0.761591
vt 0.669648 0.988518
vt 0.687577 0.843853
vt 0.368721 0.843853
vt 0.368721 0.987221
vt 0.648015 0.987221
vt 0.368721 0.012930
vt 0.368721 0.156298
vt 0.368721 0.500075
vt 0.648016 0.012930
vt 0.687578 0.156298
vt 0.717271 0.500075
vt 0.763644 0.761591
vt 0.984712 0.667594
vt 0.984712 0.667594
vt 0.763644 0.761591
vt 0.368721 0.987221
vt 0.368721 0.843853
vt 0.368721 0.012930
vt 0.368721 0.156298
vt 0.368721 0.500075
vt 0.763644 0.761591
vt 0.763644 0.761591
vt 0.867813 0.037123
vt 0.867813 0.349389
vt 0.759372 0.349356
vt 0.759372 0.037123
vt 0.867813 0.676157
vt 0.759372 0.676157
vt 0.822650 0.644549
vt 0.808159 0.650709
vt 0.808159 0.629931
vt 0.828480 0.629931
vt 0.762897 0.269570
vt 0.763011 0.263459
vt 0.769176 0.269570
vt 0.769176 0.261063
vt 0.759372 0.349356
vt 0.867813 0.349389
vt 0.759372 0.676157
vt 0.867813 0.676157
vt 0.822650 0.644549
vt 0.828480 0.629931
vt 0.763011 0.263459
vt 0.769176 0.261063
vt 0.867813 0.037123
vt 0.759372 0.037123
vt 0.759372 0.349356
vt 0.867813 0.349389
vt 0.822650 0.644549
vt 0.808159 0.650709
vt 0.762897 0.269570
vt 0.763011 0.263459
vt 0.867813 0.349389
vt 0.759372 0.349356
vt 0.822650 0.644549
vt 0.763011 0.263459
vt 0.867813 0.037123
vt 0.867813 0.349389
vt 0.759372 0.349356
vt 0.759372 0.037123
vt 0.867813 0.676157
vt 0.759372 0.676157
vt 0.822650 0.644549
vt 0.808159 0.650709
vt 0.808159 0.629931
vt 0.828480 0.629931
vt 0.762897 0.269570
vt 0.763011 0.263459
vt 0.769176 0.269570
vt 0.769176 0.261063
vt 0.759372 0.349356
vt 0.867813 0.349389
vt 0.759372 0.676157
vt 0.867813 0.676157
vt 0.822650 0.644549
vt 0.828480 0.629931
vt 0.763011 0.263459
vt 0.769176 0.261063
vt 0.867813 0.037123
vt 0.759372 0.037123
vt 0.759372 0.349356
vt 0.867813 0.349389
vt 0.822650 0.644549
vt 0.808159 0.650709
vt 0.762897 0.269570
vt 0.763011 0.263459
vt 0.867813 0.349389
vt 0.759372 0.349356
vt 0.822650 0.644549
vt 0.763011 0.263459
vt 0.867813 0.037123
vt 0.867813 0.349389
vt 0.759372 0.349356
vt 0.759372 0.037123
vt 0.867813 0.676157
vt 0.759372 0.676157
vt 0.822650 0.644549
vt 0.808159 0.650709
vt 0.808159 0.629931
vt 0.828480 0.629931
vt 0.762897 0.269570
vt 0.763011 0.263459
vt 0.769176 0.269570
vt 0.769176 0.261063
vt 0.759372 0.349356
vt 0.867813 0.349389
vt 0.759372 0.676157
vt 0.867813 0.676157
vt 0.822650 0.644549
vt 0.828480 0.629931
vt 0.763011 0.263459
vt 0.769176 0.261063
vt 0.867813 0.037123
vt 0.759372 0.037123
vt 0.759372 0.349356
vt 0.867813 0.349389
vt 0.822650 0.644549
vt 0.808159 0.650709
vt 0.762897 0.269570
vt 0.763011 0.263459
vt 0.867813 0.349389
vt 0.759372 0.349356
vt 0.822650 0.644549
vt 0.763011 0.263459
vt 0.867813 0.037123
vt 0.867813 0.349389
vt 0.759372 0.349356
vt 0.759372 0.037123
vt 0.867813 0.676157
vt 0.759372 0.676157
vt 0.822650 0.644549
vt 0.808159 0.650709
vt 0.808159 0.629931
vt 0.828480 0.629931
vt 0.762897 0.269570
vt 0.763011 0.263459
vt 0.769176 0.269570
vt 0.769176 0.261063
vt 0.759372 0.349356
vt 0.867813 0.349389
vt 0.759372 0.676157
vt 0.867813 0.676157
vt 0.822650 0.644549
vt 0.828480 0.629931
vt 0.763011 0.263459
vt 0.769176 0.261063
vt 0.867813 0.037123
vt 0.759372 0.037123
vt 0.759372 0.349356
vt 0.867813 0.349389
vt 0.822650 0.644549
vt 0.808159 0.650709
vt 0.762897 0.269570
vt 0.763011 0.263459
vt 0.867813 0.349389
vt 0.759372 0.349356
vt 0.822650 0.644549
vt 0.763011 0.263459
vn 0.000000 0.237400 0.971400
vn 0.000000 0.363500 0.931500
vn -0.658700 0.363500 0.658700
vn -0.686900 0.237400 0.686900
vn -0.931500 0.363500 0.000000
vn -0.971400 0.237400 0.000000
vn -0.658700 -0.363500 0.658700
vn -0.686900 -0.237400 0.686900
vn -0.971400 -0.237400 0.000000
vn -0.931500 -0.363500 0.000000
vn -0.707100 0.000000 0.707100
vn -1.000000 0.000000 0.000000
vn 0.000000 -0.363500 0.931500
vn 0.000000 -0.237400 0.971400
vn 0.000000 0.000000 1.000000
vn 0.000000 1.000000 0.000000
vn 0.000000 -1.000000 0.000000
vn 0.686900 0.237400 0.686900
vn 0.658700 0.363500 0.658700
vn 0.971400 0.237400 0.000000
vn 0.931500 0.363500 0.000000
vn 0.658700 -0.363500 0.658700
vn 0.931500 -0.363500 0.000000
vn 0.971400 -0.237400 0.000000
vn 0.686900 -0.237400 0.686900
vn 1.000000 0.000000 0.000000
vn 0.707100 0.000000 0.707100
vn 0.000000 0.237400 -0.971400
vn -0.686900 0.237400 -0.686900
vn -0.658700 0.363500 -0.658700
vn 0.000000 0.363500 -0.931500
vn -0.658700 -0.363500 -0.658700
vn -0.686900 -0.237400 -0.686900
vn -0.707100 0.000000 -0.707100
vn 0.000000 -0.363500 -0.931500
vn 0.000000 -0.237400 -0.971400
vn 0.000000 0.000000 -1.000000
vn 0.658700 0.363500 -0.658700
vn 0.686900 0.237400 -0.686900
vn 0.658700 -0.363500 -0.658700
vn 0.686900 -0.237400 -0.686900
vn 0.707100 0.000000 -0.707100
vn 0.000000 0.342100 0.939600
vn -0.678100 0.330500 0.656400
vn -0.676000 0.330600 0.658600
vn 0.000000 0.342100 0.939700
vn -0.948400 0.317100 0.000000
vn 0.676000 0.330600 0.658600
vn 0.678100 0.330500 0.656400
vn 0.948400 0.317100 0.000000
vn 0.000000 0.342100 -0.939600
vn 0.000000 0.342100 -0.939700
vn -0.676000 0.330600 -0.658600
vn -0.678100 0.330500 -0.656400
vn 0.678100 0.330500 -0.656400
vn 0.676000 0.330600 -0.658600
vn 0.000000 0.166500 0.986000
vn -0.708900 0.154700 0.688100
vn -0.707700 0.154800 0.689300
vn -0.989800 0.142100 0.000000
vn 0.707700 0.154800 0.689300
vn 0.708900 0.154700 0.688100
vn 0.989800 0.142100 0.000000
vn 0.000000 0.166500 -0.986000
vn -0.707700 0.154800 -0.689300
vn -0.708900 0.154700 -0.688100
vn 0.708900 0.154700 -0.688100
vn 0.707700 0.154800 -0.689300
vn 0.000000 -0.309100 0.951000
vn -0.678500 -0.315400 0.663400
vn -0.680200 -0.315400 0.661600
vn -0.947500 -0.319800 0.000000
vn 0.680200 -0.315400 0.661600
vn 0.678500 -0.315400 0.663400
vn 0.947500 -0.319800 0.000000
vn 0.000000 -0.309100 -0.951000
vn -0.680200 -0.315400 -0.661600
vn -0.678500 -0.315400 -0.663400
vn 0.678500 -0.315400 -0.663400
vn 0.680200 -0.315400 -0.661600
vn 0.000000 -0.126000 0.992000
vn -0.709400 -0.135000 0.691800
vn -0.710000 -0.135000 0.691100
vn -0.989700 -0.142900 0.000000
vn 0.710000 -0.135000 0.691100
vn 0.709400 -0.135000 0.691800
vn 0.989700 -0.142900 0.000000
vn 0.000000 -0.126000 -0.992000
vn -0.710000 -0.135000 -0.691100
vn -0.709400 -0.135000 -0.691800
vn 0.709400 -0.135000 -0.691800
vn 0.710000 -0.135000 -0.691100
usemtl barrel
s 1
f 10/1/1 118/2/2 117/3/3 3/4/4
f 3/4/4 117/3/3 120/5/5 23/6/6
f 116/7/7 5/8/8 25/9/9 119/10/10
f 5/8/8 4/11/11 24/12/12 25/9/9
f 4/11/11 3/4/4 23/6/6 24/12/12
f 115/13/13 12/14/14 5/8/8 116/7/7
f 12/14/14 11/15/15 4/11/11 5/8/8
f 11/15/15 10/1/1 3/4/4 4/11/11
f 19/16/16 2/17/16 41/18/16
f 2/17/16 7/19/16 41/18/16
f 6/20/17 1/21/17 42/22/17
f 1/21/17 18/23/17 42/22/17
f 10/1/1 13/24/18 122/25/19 118/2/2
f 13/24/18 38/26/20 124/27/21 122/25/19
f 121/28/22 123/29/23 40/30/24 15/31/25
f 15/31/25 40/30/24 39/32/26 14/33/27
f 14/33/27 39/32/26 38/26/20 13/24/18
f 115/13/13 121/28/22 15/31/25 12/14/14
f 12/14/14 15/31/25 14/33/27 11/15/15
f 11/15/15 14/33/27 13/24/18 10/1/1
f 31/34/16 41/18/16 9/35/16
f 9/35/16 41/18/16 7/19/16
f 6/20/17 42/22/17 8/36/17
f 8/36/17 42/22/17 30/37/17
f 32/38/28 20/39/29 127/40/30 128/41/31
f 20/39/29 23/6/6 120/5/5 127/40/30
f 126/42/32 119/10/10 25/9/9 22/43/33
f 22/43/33 25/9/9 24/12/12 21/44/34
f 21/44/34 24/12/12 23/6/6 20/39/29
f 125/45/35 126/42/32 22/43/33 34/46/36
f 34/46/36 22/43/33 21/44/34 33/47/37
f 33/47/37 21/44/34 20/39/29 32/38/28
f 19/16/16 41/18/16 17/48/16
f 17/48/16 41/18/16 27/49/16
f 26/50/17 42/22/17 16/51/17
f 16/51/17 42/22/17 18/23/17
f 32/38/28 128/41/31 130/52/38 35/53/39
f 35/53/39 130/52/38 124/27/21 38/26/20
f 129/54/40 37/55/41 40/30/24 123/29/23
f 37/55/41 36/56/42 39/32/26 40/30/24
f 36/56/42 35/53/39 38/26/20 39/32/26
f 125/45/35 34/46/36 37/55/41 129/54/40
f 34/46/36 33/47/37 36/56/42 37/55/41
f 33/47/37 32/38/28 35/53/39 36/56/42
f 31/34/16 29/57/16 41/18/16
f 29/57/16 27/49/16 41/18/16
f 26/50/17 28/58/17 42/22/17
f 28/58/17 30/37/17 42/22/17
f 133/59/43 131/60/44 134/61/45 136/62/46
f 131/60/44 132/63/47 135/64/47 134/61/45
f 43/65/16 45/66/16 59/67/16
f 50/68/16 43/65/16 59/67/16
f 47/69/17 44/70/17 60/71/17
f 44/70/17 52/72/17 60/71/17
f 133/59/43 136/62/46 139/73/48 137/74/49
f 137/74/49 139/73/48 140/75/50 138/76/50
f 46/77/16 59/67/16 45/66/16
f 55/78/16 59/67/16 46/77/16
f 47/69/17 60/71/17 48/79/17
f 48/79/17 60/71/17 58/80/17
f 142/81/51 144/82/52 143/83/53 141/84/54
f 141/84/54 143/83/53 135/64/47 132/63/47
f 49/85/16 59/67/16 53/86/16
f 50/68/16 59/67/16 49/85/16
f 56/87/17 60/71/17 51/88/17
f 51/88/17 60/71/17 52/72/17
f 142/81/51 145/89/55 146/90/56 144/82/52
f 145/89/55 138/76/50 140/75/50 146/90/56
f 54/91/16 53/86/16 59/67/16
f 55/78/16 54/91/16 59/67/16
f 56/87/17 57/92/17 60/71/17
f 57/92/17 58/80/17 60/71/17
f 149/93/57 147/94/58 150/95/59 152/96/57
f 147/94/58 148/97/60 151/98/60 150/95/59
f 61/99/16 63/100/16 77/101/16
f 68/102/16 61/99/16 77/101/16
f 65/103/17 62/104/17 78/105/17
f 62/104/17 70/106/17 78/105/17
f 149/93/57 152/96/57 155/107/61 153/108/62
f 153/108/62 155/107/61 156/109/63 154/110/63
f 64/111/16 77/101/16 63/100/16
f 73/112/16 77/101/16 64/111/16
f 65/103/17 78/105/17 66/113/17
f 66/113/17 78/105/17 76/114/17
f 158/115/64 160/116/64 159/117/65 157/118/66
f 157/118/66 159/117/65 151/98/60 148/97/60
f 67/119/16 77/101/16 71/120/16
f 68/102/16 77/101/16 67/119/16
f 74/121/17 78/105/17 69/122/17
f 69/122/17 78/105/17 70/106/17
f 158/115/64 161/123/67 162/124/68 160/116/64
f 161/123/67 154/110/63 156/109/63 162/124/68
f 72/125/16 71/120/16 77/101/16
f 73/112/16 72/125/16 77/101/16
f 74/121/17 75/126/17 78/105/17
f 75/126/17 76/114/17 78/105/17
f 165/127/69 163/128/70 166/129/71 168/130/69
f 163/128/70 164/131/72 167/132/72 166/129/71
f 79/133/16 81/134/16 95/135/16
f 86/136/16 79/133/16 95/135/16
f 83/137/17 80/138/17 96/139/17
f 80/138/17 88/140/17 96/139/17
f 165/127/69 168/130/69 171/141/73 169/142/74
f 169/142/74 171/141/73 172/143/75 170/144/75
f 82/145/16 95/135/16 81/134/16
f 91/146/16 95/135/16 82/145/16
f 83/137/17 96/139/17 84/147/17
f 84/147/17 96/139/17 94/148/17
f 174/149/76 176/150/76 175/151/77 173/152/78
f 173/152/78 175/151/77 167/132/72 164/131/72
f 85/153/16 95/135/16 89/154/16
f 86/136/16 95/135/16 85/153/16
f 92/155/17 96/139/17 87/156/17
f 87/156/17 96/139/17 88/140/17
f 174/149/76 177/157/79 178/158/80 176/150/76
f 177/157/79 170/144/75 172/143/75 178/158/80
f 90/159/16 89/154/16 95/135/16
f 91/146/16 90/159/16 95/135/16
f 92/155/17 93/160/17 96/139/17
f 93/160/17 94/148/17 96/139/17
f 181/161/81 179/162/82 182/163/83 184/164/81
f 179/162/82 180/165/84 183/166/84 182/163/83
f 97/167/16 99/168/16 113/169/16
f 104/170/16 97/167/16 113/169/16
f 101/171/17 98/172/17 114/173/17
f 98/172/17 106/174/17 114/173/17
f 181/161/81 184/164/81 187/175/85 185/176/86
f 185/176/86 187/175/85 188/177/87 186/178/87
f 100/179/16 113/169/16 99/168/16
f 109/180/16 113/169/16 100/179/16
f 101/171/17 114/173/17 102/181/17
f 102/181/17 114/173/17 112/182/17
f 190/183/88 192/184/88 191/185/89 189/186/90
f 189/186/90 191/185/89 183/166/84 180/165/84
f 103/187/16 113/169/16 107/188/16
f 104/170/16 113/169/16 103/187/16
f 110/189/17 114/173/17 105/190/17
f 105/190/17 114/173/17 106/174/17
f 190/183/88 193/191/91 194/192/92 192/184/88
f 193/191/91 186/178/87 188/177/87 194/192/92
f 108/193/16 107/188/16 113/169/16
f 109/180/16 108/193/16 113/169/16
f 110/189/17 111/194/17 114/173/17
f 111/194/17 112/182/17 114/173/17
