# Blender v2.76 (sub 0) OBJ File: 'Romashka.blend'
# www.blender.org
o Plane_Plane.003
v -0.031250 -0.500000 0.000000
v 0.062500 -0.500000 0.000000
v -0.312500 -0.187500 0.000000
v 0.062500 -0.500000 0.000000
v -0.031250 -0.500000 0.000000
v -0.312500 -0.062500 0.000000
v -0.281250 -0.218750 0.000000
v -0.281250 -0.187500 0.000000
v -0.281250 -0.062500 0.000000
v -0.312500 -0.187500 0.000000
v -0.281250 0.000000 0.000000
v -0.250000 -0.250000 0.000000
v -0.250000 -0.218750 0.000000
v -0.250000 0.000000 0.000000
v -0.250000 0.031250 -0.000000
v -0.218750 0.031250 -0.000000
v -0.218750 0.062500 -0.000000
v -0.187500 0.062500 -0.000000
v -0.187500 0.093750 -0.000000
v -0.156250 -0.375000 0.000000
v -0.156250 -0.343750 0.000000
v -0.156250 -0.250000 0.000000
v -0.156250 -0.218750 0.000000
v -0.125000 -0.406250 0.000000
v -0.125000 -0.375000 0.000000
v -0.093750 -0.218750 0.000000
v -0.093750 -0.187500 0.000000
v -0.062500 -0.437500 0.000000
v -0.062500 -0.406250 0.000000
v -0.031250 -0.437500 0.000000
v -0.031250 -0.375000 0.000000
v -0.031250 -0.343750 0.000000
v -0.031250 -0.218750 0.000000
v -0.031250 -0.187500 0.000000
v -0.031250 -0.125000 0.000000
v -0.031250 -0.093750 0.000000
v -0.031250 0.062500 -0.000000
v -0.031250 0.093750 -0.000000
v 0.000000 -0.375000 0.000000
v 0.000000 -0.218750 0.000000
v 0.000000 -0.156250 0.000000
v 0.000000 -0.125000 0.000000
v 0.000000 -0.093750 0.000000
v 0.000000 -0.062500 0.000000
v 0.000000 0.031250 -0.000000
v 0.000000 0.062500 -0.000000
v 0.031250 -0.218750 0.000000
v 0.031250 -0.156250 0.000000
v 0.031250 -0.093750 0.000000
v 0.031250 -0.062500 0.000000
v -0.312500 -0.062500 0.000000
v -0.281250 -0.218750 0.000000
v 0.031250 0.031250 -0.000000
v 0.062500 -0.468750 0.000000
v 0.062500 -0.406250 0.000000
v 0.062500 -0.281250 0.000000
v 0.062500 -0.218750 0.000000
v 0.062500 -0.156250 0.000000
v 0.062500 -0.093750 0.000000
v 0.062500 -0.062500 0.000000
v 0.093750 -0.468750 0.000000
v 0.093750 -0.437500 0.000000
v 0.093750 -0.406250 0.000000
v 0.093750 -0.375000 0.000000
v 0.093750 -0.281250 0.000000
v 0.093750 -0.218750 0.000000
v 0.093750 -0.062500 0.000000
v 0.093750 -0.031250 0.000000
v 0.125000 -0.437500 0.000000
v 0.125000 -0.406250 0.000000
v 0.156250 -0.406250 0.000000
v 0.156250 -0.375000 0.000000
v 0.250000 -0.218750 0.000000
v 0.250000 -0.187500 0.000000
v 0.250000 -0.062500 0.000000
v 0.250000 -0.031250 0.000000
v 0.281250 -0.187500 0.000000
v 0.281250 -0.156250 0.000000
v 0.281250 -0.093750 0.000000
v 0.281250 -0.062500 0.000000
v 0.312500 -0.156250 0.000000
v 0.312500 -0.093750 0.000000
v -0.281250 -0.187500 0.000000
v -0.281250 -0.062500 0.000000
v -0.281250 0.000000 0.000000
v -0.250000 -0.250000 0.000000
v -0.250000 -0.218750 0.000000
v -0.250000 0.000000 0.000000
v -0.250000 0.031250 -0.000000
v -0.218750 0.031250 -0.000000
v -0.218750 0.062500 -0.000000
v -0.187500 0.062500 -0.000000
v -0.187500 0.093750 -0.000000
v -0.156250 -0.375000 0.000000
v -0.156250 -0.343750 0.000000
v -0.156250 -0.250000 0.000000
v -0.156250 -0.218750 0.000000
v -0.125000 -0.406250 0.000000
v -0.125000 -0.375000 0.000000
v -0.093750 -0.218750 0.000000
v -0.093750 -0.187500 0.000000
v -0.062500 -0.437500 0.000000
v -0.062500 -0.406250 0.000000
v -0.031250 -0.437500 0.000000
v -0.031250 -0.375000 0.000000
v -0.031250 -0.343750 0.000000
v -0.031250 -0.218750 0.000000
v -0.031250 -0.187500 0.000000
v -0.031250 -0.125000 0.000000
v -0.031250 -0.093750 0.000000
v -0.031250 0.062500 -0.000000
v -0.031250 0.093750 -0.000000
v 0.000000 -0.375000 0.000000
v 0.000000 -0.218750 0.000000
v 0.000000 -0.156250 0.000000
v 0.000000 -0.125000 0.000000
v 0.000000 -0.093750 0.000000
v 0.000000 -0.062500 0.000000
v 0.000000 0.031250 -0.000000
v 0.000000 0.062500 -0.000000
v 0.031250 -0.218750 0.000000
v 0.031250 -0.156250 0.000000
v 0.031250 -0.093750 0.000000
v 0.031250 -0.062500 0.000000
v 0.031250 0.031250 -0.000000
v 0.062500 -0.468750 0.000000
v 0.062500 -0.406250 0.000000
v 0.062500 -0.281250 0.000000
v 0.062500 -0.218750 0.000000
v 0.062500 -0.156250 0.000000
v 0.062500 -0.093750 0.000000
v 0.062500 -0.062500 0.000000
v 0.093750 -0.468750 0.000000
v 0.093750 -0.437500 0.000000
v 0.093750 -0.406250 0.000000
v 0.093750 -0.375000 0.000000
v 0.093750 -0.281250 0.000000
v 0.093750 -0.218750 0.000000
v 0.093750 -0.062500 0.000000
v 0.093750 -0.031250 0.000000
v 0.125000 -0.437500 0.000000
v 0.125000 -0.406250 0.000000
v 0.156250 -0.406250 0.000000
v 0.156250 -0.375000 0.000000
v 0.250000 -0.218750 0.000000
v 0.250000 -0.187500 0.000000
v 0.250000 -0.062500 0.000000
v 0.250000 -0.031250 0.000000
v 0.281250 -0.187500 0.000000
v 0.281250 -0.156250 0.000000
v 0.281250 -0.093750 0.000000
v 0.281250 -0.062500 0.000000
v 0.312500 -0.156250 0.000000
v 0.312500 -0.093750 0.000000
v -0.000000 -0.500000 -0.031250
v -0.000000 -0.500000 0.062500
v -0.000000 -0.187500 -0.312500
v -0.000000 -0.500000 0.062500
v -0.000000 -0.500000 -0.031250
v -0.000000 -0.062500 -0.312500
v -0.000000 -0.218750 -0.281250
v -0.000000 -0.187500 -0.281250
v 0.000000 -0.062500 -0.281250
v -0.000000 -0.187500 -0.312500
v 0.000000 0.000000 -0.281250
v -0.000000 -0.250000 -0.250000
v -0.000000 -0.218750 -0.250000
v 0.000000 0.000000 -0.250000
v 0.000000 0.031250 -0.250000
v 0.000000 0.031250 -0.218750
v 0.000000 0.062500 -0.218750
v 0.000000 0.062500 -0.187500
v 0.000000 0.093750 -0.187500
v -0.000000 -0.375000 -0.156250
v -0.000000 -0.343750 -0.156250
v -0.000000 -0.250000 -0.156250
v -0.000000 -0.218750 -0.156250
v -0.000000 -0.406250 -0.125000
v -0.000000 -0.375000 -0.125000
v -0.000000 -0.218750 -0.093750
v -0.000000 -0.187500 -0.093750
v -0.000000 -0.437500 -0.062500
v -0.000000 -0.406250 -0.062500
v -0.000000 -0.437500 -0.031250
v -0.000000 -0.375000 -0.031250
v -0.000000 -0.343750 -0.031250
v -0.000000 -0.218750 -0.031250
v -0.000000 -0.187500 -0.031250
v 0.000000 -0.125000 -0.031250
v 0.000000 -0.093750 -0.031250
v 0.000000 0.062500 -0.031250
v 0.000000 0.093750 -0.031250
v -0.000000 -0.375000 0.000000
v -0.000000 -0.218750 0.000000
v 0.000000 -0.156250 0.000000
v 0.000000 -0.125000 0.000000
v 0.000000 -0.093750 0.000000
v 0.000000 -0.062500 0.000000
v 0.000000 0.031250 0.000000
v 0.000000 0.062500 0.000000
v 0.000000 -0.218750 0.031250
v 0.000000 -0.156250 0.031250
v 0.000000 -0.093750 0.031250
v 0.000000 -0.062500 0.031250
v -0.000000 -0.062500 -0.312500
v -0.000000 -0.218750 -0.281250
v 0.000000 0.031250 0.031250
v -0.000000 -0.468750 0.062500
v -0.000000 -0.406250 0.062500
v 0.000000 -0.281250 0.062500
v 0.000000 -0.218750 0.062500
v 0.000000 -0.156250 0.062500
v 0.000000 -0.093750 0.062500
v 0.000000 -0.062500 0.062500
v -0.000000 -0.468750 0.093750
v -0.000000 -0.437500 0.093750
v -0.000000 -0.406250 0.093750
v 0.000000 -0.375000 0.093750
v 0.000000 -0.281250 0.093750
v 0.000000 -0.218750 0.093750
v 0.000000 -0.062500 0.093750
v 0.000000 -0.031250 0.093750
v 0.000000 -0.437500 0.125000
v 0.000000 -0.406250 0.125000
v 0.000000 -0.406250 0.156250
v 0.000000 -0.375000 0.156250
v 0.000000 -0.218750 0.250000
v 0.000000 -0.187500 0.250000
v 0.000000 -0.062500 0.250000
v 0.000000 -0.031250 0.250000
v 0.000000 -0.187500 0.281250
v 0.000000 -0.156250 0.281250
v 0.000000 -0.093750 0.281250
v 0.000000 -0.062500 0.281250
v 0.000000 -0.156250 0.312500
v 0.000000 -0.093750 0.312500
v -0.000000 -0.187500 -0.281250
v 0.000000 -0.062500 -0.281250
v 0.000000 0.000000 -0.281250
v -0.000000 -0.250000 -0.250000
v -0.000000 -0.218750 -0.250000
v 0.000000 0.000000 -0.250000
v 0.000000 0.031250 -0.250000
v 0.000000 0.031250 -0.218750
v 0.000000 0.062500 -0.218750
v 0.000000 0.062500 -0.187500
v 0.000000 0.093750 -0.187500
v -0.000000 -0.375000 -0.156250
v -0.000000 -0.343750 -0.156250
v -0.000000 -0.250000 -0.156250
v -0.000000 -0.218750 -0.156250
v -0.000000 -0.406250 -0.125000
v -0.000000 -0.375000 -0.125000
v -0.000000 -0.218750 -0.093750
v -0.000000 -0.187500 -0.093750
v -0.000000 -0.437500 -0.062500
v -0.000000 -0.406250 -0.062500
v -0.000000 -0.437500 -0.031250
v -0.000000 -0.375000 -0.031250
v -0.000000 -0.343750 -0.031250
v -0.000000 -0.218750 -0.031250
v -0.000000 -0.187500 -0.031250
v 0.000000 -0.125000 -0.031250
v 0.000000 -0.093750 -0.031250
v 0.000000 0.062500 -0.031250
v 0.000000 0.093750 -0.031250
v -0.000000 -0.375000 0.000000
v -0.000000 -0.218750 0.000000
v 0.000000 -0.156250 0.000000
v 0.000000 -0.125000 0.000000
v 0.000000 -0.093750 0.000000
v 0.000000 -0.062500 0.000000
v 0.000000 0.031250 0.000000
v 0.000000 0.062500 0.000000
v 0.000000 -0.218750 0.031250
v 0.000000 -0.156250 0.031250
v 0.000000 -0.093750 0.031250
v 0.000000 -0.062500 0.031250
v 0.000000 0.031250 0.031250
v -0.000000 -0.468750 0.062500
v -0.000000 -0.406250 0.062500
v 0.000000 -0.281250 0.062500
v 0.000000 -0.218750 0.062500
v 0.000000 -0.156250 0.062500
v 0.000000 -0.093750 0.062500
v 0.000000 -0.062500 0.062500
v -0.000000 -0.468750 0.093750
v -0.000000 -0.437500 0.093750
v -0.000000 -0.406250 0.093750
v 0.000000 -0.375000 0.093750
v 0.000000 -0.281250 0.093750
v 0.000000 -0.218750 0.093750
v 0.000000 -0.062500 0.093750
v 0.000000 -0.031250 0.093750
v 0.000000 -0.437500 0.125000
v 0.000000 -0.406250 0.125000
v 0.000000 -0.406250 0.156250
v 0.000000 -0.375000 0.156250
v 0.000000 -0.218750 0.250000
v 0.000000 -0.187500 0.250000
v 0.000000 -0.062500 0.250000
v 0.000000 -0.031250 0.250000
v 0.000000 -0.187500 0.281250
v 0.000000 -0.156250 0.281250
v 0.000000 -0.093750 0.281250
v 0.000000 -0.062500 0.281250
v 0.000000 -0.156250 0.312500
v 0.000000 -0.093750 0.312500
vt 0.468756 0.125075
vt 0.375025 0.125075
vt 0.437512 0.093831
vt 0.468756 0.375025
vt 0.468756 0.406269
vt 0.406269 0.312537
vt 0.749950 0.312537
vt 0.781194 0.343781
vt 0.781194 0.406269
vt 0.562487 0.218806
vt 0.593731 0.218806
vt 0.593731 0.281294
vt 0.749950 0.437512
vt 0.749950 0.468756
vt 0.593731 0.468756
vt 0.781194 0.437512
vt 0.812438 0.343781
vt 0.812438 0.406269
vt 0.781194 0.312537
vt 0.593731 0.437512
vt 0.562487 0.437512
vt 0.562487 0.406269
vt 0.749950 0.281294
vt 0.656219 0.125075
vt 0.593731 0.125075
vt 0.624975 0.093831
vt 0.562487 0.343781
vt 0.656219 0.093831
vt 0.593731 0.093831
vt 0.562487 0.281294
vt 0.624975 0.062587
vt 0.531244 0.406269
vt 0.531244 0.343781
vt 0.593731 0.062587
vt 0.562487 0.093831
vt 0.593731 0.031344
vt 0.562487 0.031344
vt 0.468756 0.062587
vt 0.468756 0.000100
vt 0.562487 0.000100
vt 0.437513 0.062587
vt 0.500000 0.125075
vt 0.531244 0.281294
vt 0.468756 0.156319
vt 0.500000 0.281294
vt 0.343781 0.156319
vt 0.343781 0.125075
vt 0.375025 0.093831
vt 0.250050 0.281294
vt 0.250050 0.250050
vt 0.343781 0.250050
vt 0.343781 0.281294
vt 0.406269 0.281294
vt 0.218806 0.312537
vt 0.218806 0.281294
vt 0.187562 0.437512
vt 0.187563 0.312537
vt 0.250050 0.500000
vt 0.218806 0.500000
vt 0.218806 0.437512
vt 0.468756 0.312537
vt 0.468756 0.281294
vt 0.500000 0.343781
vt 0.281294 0.531244
vt 0.250050 0.531244
vt 0.312537 0.562487
vt 0.281294 0.562487
vt 0.468756 0.593731
vt 0.312537 0.593731
vt 0.500000 0.531244
vt 0.500000 0.562487
vt 0.468756 0.562487
vt 0.500000 0.375025
vt 0.500000 0.437512
vt 0.531244 0.437512
vt 0.531244 0.531244
vt 0.500000 0.406269
vn 0.000000 0.000000 1.000000
vn 0.000000 -0.000000 -1.000000
vn -1.000000 0.000000 0.000000
vn 1.000000 -0.000000 -0.000000
s off
f 31/1/1 25/2/1 29/3/1
f 35/4/1 36/5/1 27/6/1
f 74/7/1 78/8/1 79/9/1
f 56/10/1 65/11/1 66/12/1
f 75/13/1 76/14/1 68/15/1
f 79/9/1 80/16/1 75/13/1
f 81/17/1 82/18/1 79/9/1
f 74/7/1 77/19/1 78/8/1
f 75/13/1 68/15/1 67/20/1
f 78/8/1 81/17/1 79/9/1
f 67/20/1 60/21/1 59/22/1
f 79/9/1 75/13/1 74/7/1
f 66/12/1 73/23/1 74/7/1
f 72/24/1 64/25/1 70/26/1
f 66/12/1 74/7/1 58/27/1
f 70/26/1 71/28/1 72/24/1
f 74/7/1 75/13/1 67/20/1
f 70/26/1 64/25/1 63/29/1
f 56/10/1 66/12/1 57/30/1
f 70/26/1 63/29/1 69/31/1
f 59/22/1 49/32/1 48/33/1
f 69/31/1 63/29/1 62/34/1
f 67/20/1 59/22/1 58/27/1
f 62/34/1 63/29/1 55/35/1
f 59/22/1 48/33/1 58/27/1
f 61/36/1 62/34/1 54/37/1
f 67/20/1 58/27/1 74/7/1
f 54/37/1 62/34/1 55/35/1
f 66/12/1 58/27/1 57/30/1
f 54/37/1 55/35/1 30/38/1
f 1/39/1 2/40/1 54/37/1
f 29/3/1 28/41/1 30/38/1
f 30/38/1 1/39/1 54/37/1
f 55/35/1 56/10/1 39/42/1
f 57/30/1 47/43/1 56/10/1
f 31/1/1 32/44/1 25/2/1
f 47/43/1 40/45/1 56/10/1
f 21/46/1 20/47/1 25/2/1
f 56/10/1 40/45/1 39/42/1
f 32/44/1 21/46/1 25/2/1
f 55/35/1 39/42/1 30/38/1
f 29/3/1 30/38/1 31/1/1
f 25/2/1 24/48/1 29/3/1
f 30/38/1 39/42/1 31/1/1
f 13/49/1 12/50/1 22/51/1
f 23/52/1 26/53/1 27/6/1
f 13/49/1 22/51/1 23/52/1
f 8/54/1 7/55/1 13/49/1
f 6/56/1 3/57/1 8/54/1
f 14/58/1 11/59/1 9/60/1
f 9/60/1 6/56/1 8/54/1
f 8/54/1 13/49/1 23/52/1
f 34/61/1 33/62/1 40/45/1
f 8/54/1 23/52/1 9/60/1
f 34/61/1 40/45/1 41/63/1
f 23/52/1 27/6/1 9/60/1
f 14/58/1 9/60/1 27/6/1
f 16/64/1 15/65/1 14/58/1
f 18/66/1 17/67/1 16/64/1
f 38/68/1 19/69/1 18/66/1
f 45/70/1 46/71/1 37/72/1
f 37/72/1 38/68/1 18/66/1
f 18/66/1 16/64/1 36/5/1
f 14/58/1 27/6/1 36/5/1
f 40/45/1 47/43/1 41/63/1
f 41/63/1 42/73/1 35/4/1
f 47/43/1 48/33/1 41/63/1
f 16/64/1 14/58/1 36/5/1
f 45/70/1 37/72/1 44/74/1
f 50/75/1 53/76/1 45/70/1
f 36/5/1 43/77/1 44/74/1
f 44/74/1 50/75/1 45/70/1
f 34/61/1 41/63/1 35/4/1
f 44/74/1 37/72/1 36/5/1
f 27/6/1 34/61/1 35/4/1
f 36/5/1 37/72/1 18/66/1
f 105/1/2 103/3/2 99/2/2
f 109/4/2 101/6/2 110/5/2
f 146/7/2 151/9/2 150/8/2
f 128/10/2 138/12/2 137/11/2
f 147/13/2 140/15/2 148/14/2
f 151/9/2 147/13/2 152/16/2
f 153/17/2 151/9/2 154/18/2
f 146/7/2 150/8/2 149/19/2
f 147/13/2 139/20/2 140/15/2
f 150/8/2 151/9/2 153/17/2
f 139/20/2 131/22/2 132/21/2
f 151/9/2 146/7/2 147/13/2
f 138/12/2 146/7/2 145/23/2
f 144/24/2 142/26/2 136/25/2
f 138/12/2 130/27/2 146/7/2
f 142/26/2 144/24/2 143/28/2
f 146/7/2 139/20/2 147/13/2
f 142/26/2 135/29/2 136/25/2
f 128/10/2 129/30/2 138/12/2
f 142/26/2 141/31/2 135/29/2
f 131/22/2 122/33/2 123/32/2
f 141/31/2 134/34/2 135/29/2
f 139/20/2 130/27/2 131/22/2
f 134/34/2 127/35/2 135/29/2
f 131/22/2 130/27/2 122/33/2
f 133/36/2 126/37/2 134/34/2
f 139/20/2 146/7/2 130/27/2
f 126/37/2 127/35/2 134/34/2
f 138/12/2 129/30/2 130/27/2
f 126/37/2 104/38/2 127/35/2
f 5/39/2 126/37/2 4/40/2
f 103/3/2 104/38/2 102/41/2
f 104/38/2 126/37/2 5/39/2
f 127/35/2 113/42/2 128/10/2
f 129/30/2 128/10/2 121/43/2
f 105/1/2 99/2/2 106/44/2
f 121/43/2 128/10/2 114/45/2
f 95/46/2 99/2/2 94/47/2
f 128/10/2 113/42/2 114/45/2
f 106/44/2 99/2/2 95/46/2
f 127/35/2 104/38/2 113/42/2
f 103/3/2 105/1/2 104/38/2
f 99/2/2 103/3/2 98/48/2
f 104/38/2 105/1/2 113/42/2
f 87/49/2 96/51/2 86/50/2
f 97/52/2 101/6/2 100/53/2
f 87/49/2 97/52/2 96/51/2
f 83/54/2 87/49/2 52/55/2
f 51/56/2 83/54/2 10/57/2
f 88/58/2 84/60/2 85/59/2
f 84/60/2 83/54/2 51/56/2
f 83/54/2 97/52/2 87/49/2
f 108/61/2 114/45/2 107/62/2
f 83/54/2 84/60/2 97/52/2
f 108/61/2 115/63/2 114/45/2
f 97/52/2 84/60/2 101/6/2
f 88/58/2 101/6/2 84/60/2
f 90/64/2 88/58/2 89/65/2
f 92/66/2 90/64/2 91/67/2
f 112/68/2 92/66/2 93/69/2
f 119/70/2 111/72/2 120/71/2
f 111/72/2 92/66/2 112/68/2
f 92/66/2 110/5/2 90/64/2
f 88/58/2 110/5/2 101/6/2
f 114/45/2 115/63/2 121/43/2
f 115/63/2 109/4/2 116/73/2
f 121/43/2 115/63/2 122/33/2
f 90/64/2 110/5/2 88/58/2
f 119/70/2 118/74/2 111/72/2
f 124/75/2 119/70/2 125/76/2
f 110/5/2 118/74/2 117/77/2
f 118/74/2 119/70/2 124/75/2
f 108/61/2 109/4/2 115/63/2
f 118/74/2 110/5/2 111/72/2
f 101/6/2 109/4/2 108/61/2
f 110/5/2 92/66/2 111/72/2
f 185/1/3 179/2/3 183/3/3
f 189/4/3 190/5/3 181/6/3
f 228/7/3 232/8/3 233/9/3
f 210/10/3 219/11/3 220/12/3
f 229/13/3 230/14/3 222/15/3
f 233/9/3 234/16/3 229/13/3
f 235/17/3 236/18/3 233/9/3
f 228/7/3 231/19/3 232/8/3
f 229/13/3 222/15/3 221/20/3
f 232/8/3 235/17/3 233/9/3
f 221/20/3 214/21/3 213/22/3
f 233/9/3 229/13/3 228/7/3
f 220/12/3 227/23/3 228/7/3
f 226/24/3 218/25/3 224/26/3
f 220/12/3 228/7/3 212/27/3
f 224/26/3 225/28/3 226/24/3
f 228/7/3 229/13/3 221/20/3
f 224/26/3 218/25/3 217/29/3
f 210/10/3 220/12/3 211/30/3
f 224/26/3 217/29/3 223/31/3
f 213/22/3 203/32/3 202/33/3
f 223/31/3 217/29/3 216/34/3
f 221/20/3 213/22/3 212/27/3
f 216/34/3 217/29/3 209/35/3
f 213/22/3 202/33/3 212/27/3
f 215/36/3 216/34/3 208/37/3
f 221/20/3 212/27/3 228/7/3
f 208/37/3 216/34/3 209/35/3
f 220/12/3 212/27/3 211/30/3
f 208/37/3 209/35/3 184/38/3
f 155/39/3 156/40/3 208/37/3
f 183/3/3 182/41/3 184/38/3
f 184/38/3 155/39/3 208/37/3
f 209/35/3 210/10/3 193/42/3
f 211/30/3 201/43/3 210/10/3
f 185/1/3 186/44/3 179/2/3
f 201/43/3 194/45/3 210/10/3
f 175/46/3 174/47/3 179/2/3
f 210/10/3 194/45/3 193/42/3
f 186/44/3 175/46/3 179/2/3
f 209/35/3 193/42/3 184/38/3
f 183/3/3 184/38/3 185/1/3
f 179/2/3 178/48/3 183/3/3
f 184/38/3 193/42/3 185/1/3
f 167/49/3 166/50/3 176/51/3
f 177/52/3 180/53/3 181/6/3
f 167/49/3 176/51/3 177/52/3
f 162/54/3 161/55/3 167/49/3
f 160/56/3 157/57/3 162/54/3
f 168/58/3 165/59/3 163/60/3
f 163/60/3 160/56/3 162/54/3
f 162/54/3 167/49/3 177/52/3
f 188/61/3 187/62/3 194/45/3
f 162/54/3 177/52/3 163/60/3
f 188/61/3 194/45/3 195/63/3
f 177/52/3 181/6/3 163/60/3
f 168/58/3 163/60/3 181/6/3
f 170/64/3 169/65/3 168/58/3
f 172/66/3 171/67/3 170/64/3
f 192/68/3 173/69/3 172/66/3
f 199/70/3 200/71/3 191/72/3
f 191/72/3 192/68/3 172/66/3
f 172/66/3 170/64/3 190/5/3
f 168/58/3 181/6/3 190/5/3
f 194/45/3 201/43/3 195/63/3
f 195/63/3 196/73/3 189/4/3
f 201/43/3 202/33/3 195/63/3
f 170/64/3 168/58/3 190/5/3
f 199/70/3 191/72/3 198/74/3
f 204/75/3 207/76/3 199/70/3
f 190/5/3 197/77/3 198/74/3
f 198/74/3 204/75/3 199/70/3
f 188/61/3 195/63/3 189/4/3
f 198/74/3 191/72/3 190/5/3
f 181/6/3 188/61/3 189/4/3
f 190/5/3 191/72/3 172/66/3
f 259/1/4 257/3/4 253/2/4
f 263/4/4 255/6/4 264/5/4
f 300/7/4 305/9/4 304/8/4
f 282/10/4 292/12/4 291/11/4
f 301/13/4 294/15/4 302/14/4
f 305/9/4 301/13/4 306/16/4
f 307/17/4 305/9/4 308/18/4
f 300/7/4 304/8/4 303/19/4
f 301/13/4 293/20/4 294/15/4
f 304/8/4 305/9/4 307/17/4
f 293/20/4 285/22/4 286/21/4
f 305/9/4 300/7/4 301/13/4
f 292/12/4 300/7/4 299/23/4
f 298/24/4 296/26/4 290/25/4
f 292/12/4 284/27/4 300/7/4
f 296/26/4 298/24/4 297/28/4
f 300/7/4 293/20/4 301/13/4
f 296/26/4 289/29/4 290/25/4
f 282/10/4 283/30/4 292/12/4
f 296/26/4 295/31/4 289/29/4
f 285/22/4 276/33/4 277/32/4
f 295/31/4 288/34/4 289/29/4
f 293/20/4 284/27/4 285/22/4
f 288/34/4 281/35/4 289/29/4
f 285/22/4 284/27/4 276/33/4
f 287/36/4 280/37/4 288/34/4
f 293/20/4 300/7/4 284/27/4
f 280/37/4 281/35/4 288/34/4
f 292/12/4 283/30/4 284/27/4
f 280/37/4 258/38/4 281/35/4
f 159/39/4 280/37/4 158/40/4
f 257/3/4 258/38/4 256/41/4
f 258/38/4 280/37/4 159/39/4
f 281/35/4 267/42/4 282/10/4
f 283/30/4 282/10/4 275/43/4
f 259/1/4 253/2/4 260/44/4
f 275/43/4 282/10/4 268/45/4
f 249/46/4 253/2/4 248/47/4
f 282/10/4 267/42/4 268/45/4
f 260/44/4 253/2/4 249/46/4
f 281/35/4 258/38/4 267/42/4
f 257/3/4 259/1/4 258/38/4
f 253/2/4 257/3/4 252/48/4
f 258/38/4 259/1/4 267/42/4
f 241/49/4 250/51/4 240/50/4
f 251/52/4 255/6/4 254/53/4
f 241/49/4 251/52/4 250/51/4
f 237/54/4 241/49/4 206/55/4
f 205/56/4 237/54/4 164/57/4
f 242/58/4 238/60/4 239/59/4
f 238/60/4 237/54/4 205/56/4
f 237/54/4 251/52/4 241/49/4
f 262/61/4 268/45/4 261/62/4
f 237/54/4 238/60/4 251/52/4
f 262/61/4 269/63/4 268/45/4
f 251/52/4 238/60/4 255/6/4
f 242/58/4 255/6/4 238/60/4
f 244/64/4 242/58/4 243/65/4
f 246/66/4 244/64/4 245/67/4
f 266/68/4 246/66/4 247/69/4
f 273/70/4 265/72/4 274/71/4
f 265/72/4 246/66/4 266/68/4
f 246/66/4 264/5/4 244/64/4
f 242/58/4 264/5/4 255/6/4
f 268/45/4 269/63/4 275/43/4
f 269/63/4 263/4/4 270/73/4
f 275/43/4 269/63/4 276/33/4
f 244/64/4 264/5/4 242/58/4
f 273/70/4 272/74/4 265/72/4
f 278/75/4 273/70/4 279/76/4
f 264/5/4 272/74/4 271/77/4
f 272/74/4 273/70/4 278/75/4
f 262/61/4 263/4/4 269/63/4
f 272/74/4 264/5/4 265/72/4
f 255/6/4 263/4/4 262/61/4
f 264/5/4 246/66/4 265/72/4
