# Blender v2.77 (sub 0) OBJ File: 'KamenZabor.blend'
# www.blender.org
o BylZabor_zaglysh_Cube.008
v -0.160584 -0.502568 0.156331
v -0.160584 0.502566 0.156331
v -0.160584 -0.502568 -0.156331
v -0.160584 0.502566 -0.156331
v 0.152079 -0.502568 0.156331
v 0.152079 0.502566 0.156331
v 0.152079 -0.502568 -0.156331
v 0.152079 0.502566 -0.156331
v -0.099514 0.406137 0.133260
v -0.099514 -0.500746 0.133260
v -0.099514 0.406137 -0.133260
v -0.099514 -0.500746 -0.133260
v -0.506804 0.406137 0.133260
v -0.506804 -0.500746 0.133260
v -0.506804 0.406137 -0.133260
v -0.506804 -0.500746 -0.133260
vt 0.251948 0.770368
vt 0.007802 0.770368
vt 0.007802 0.029450
vt 0.251948 0.029450
vt 0.718755 0.770368
vt 0.470703 0.770368
vt 0.470703 0.029450
vt 0.718755 0.029450
vt 0.962901 0.770368
vt 0.962901 0.029450
vt 0.035254 0.783252
vt 0.035254 0.997281
vt 0.246821 0.997281
vt 0.246821 0.783252
vt 0.246821 0.783252
vt 0.246821 0.997281
vt 0.035254 0.997281
vt 0.035254 0.783252
vt 0.718755 0.770368
vt 0.718755 0.029450
vt 0.470703 0.029450
vt 0.470703 0.770368
vt 0.962901 0.770368
vt 0.962901 0.029450
vt 0.251948 0.770368
vt 0.251948 0.029450
vt 0.007802 0.029450
vt 0.007802 0.770368
vt 0.035254 0.783252
vt 0.246821 0.783252
vt 0.246821 0.997281
vt 0.035254 0.997281
vt 0.246821 0.783252
vt 0.035254 0.783252
vt 0.035254 0.997281
vt 0.246821 0.997281
vn -1.000000 0.000000 0.000000
vn 1.000000 0.000000 0.000000
vn 0.000000 -0.000000 -1.000000
vn 0.000000 0.000000 1.000000
vn 0.000000 -1.000000 0.000000
vn 0.000000 1.000000 0.000000
s off
f 2/1/1 4/2/1 3/3/1 1/4/1
f 8/5/2 6/6/2 5/7/2 7/8/2
f 4/9/3 8/5/3 7/8/3 3/10/3
f 6/6/4 2/1/4 1/4/4 5/7/4
f 1/11/5 3/12/5 7/13/5 5/14/5
f 6/15/6 8/16/6 4/17/6 2/18/6
f 9/19/2 10/20/2 12/21/2 11/22/2
f 13/23/4 14/24/4 10/20/4 9/19/4
f 15/25/1 16/26/1 14/27/1 13/28/1
f 11/22/3 12/21/3 16/26/3 15/25/3
f 16/29/5 12/30/5 10/31/5 14/32/5
f 11/33/6 15/34/6 13/35/6 9/36/6
