# Blender v2.76 (sub 0) OBJ File: ''
# www.blender.org
o Cube.001_Cube.002
v -0.372259 -0.502133 0.372259
v -0.372259 0.242385 0.372259
v -0.372259 -0.502133 -0.372259
v -0.372259 0.242385 -0.372259
v 0.372259 -0.502133 0.372259
v 0.372259 0.242385 0.372259
v 0.372259 -0.502133 -0.372259
v 0.372259 0.242385 -0.372259
v 0.064431 0.104335 0.374295
v 0.064431 0.012364 0.374295
v 0.064431 -0.018294 0.374295
v 0.064431 -0.048951 0.374295
v 0.064431 -0.079608 0.374295
v 0.032215 0.165650 0.400975
v 0.000000 0.165650 0.400975
v -0.032215 0.165650 0.400975
v 0.032215 0.134992 0.374295
v 0.032215 -0.079608 0.374295
v -0.032215 -0.110265 0.400975
v 0.000000 -0.110265 0.400975
v 0.032215 -0.110265 0.400975
v -0.032215 0.134992 0.374295
v -0.064431 0.134992 0.400975
v -0.032215 -0.079608 0.400975
v -0.032215 -0.048951 0.400975
v -0.032215 -0.018294 0.400975
v -0.032215 0.012364 0.400975
v -0.032215 0.043021 0.400975
v -0.032215 0.073678 0.400975
v -0.032215 0.104335 0.400975
v -0.032215 0.134992 0.400975
v 0.000000 -0.079608 0.400975
v 0.000000 -0.048951 0.400975
v 0.000000 -0.018294 0.400975
v 0.000000 0.012364 0.400975
v 0.000000 0.043021 0.400975
v 0.000000 0.073678 0.400975
v 0.000000 0.104335 0.400975
v 0.000000 0.134992 0.400975
v 0.032215 -0.079608 0.400975
v 0.032215 -0.048951 0.400975
v 0.032215 -0.018294 0.400975
v 0.032215 0.012364 0.400975
v 0.032215 0.043021 0.400975
v 0.032215 0.073678 0.400975
v 0.032215 0.104335 0.400975
v 0.032215 0.134992 0.400975
v 0.064431 -0.079608 0.400975
v 0.064431 -0.048951 0.400975
v 0.064431 -0.018294 0.400975
v 0.064431 0.012364 0.400975
v 0.064431 0.043021 0.400975
v 0.064431 0.073678 0.400975
v 0.064431 0.104335 0.400975
v 0.064431 0.134992 0.400975
v -0.032215 -0.079608 0.374295
v -0.064431 0.134992 0.374295
v 0.032215 -0.110265 0.374295
v 0.096646 0.012364 0.400975
v 0.096646 0.043021 0.400975
v 0.096646 0.073678 0.400975
v 0.096646 0.104335 0.400975
v 0.000000 -0.110265 0.374295
v -0.032215 -0.110265 0.374295
v -0.096646 0.104335 0.400975
v -0.096646 0.073678 0.400975
v -0.096646 0.043021 0.400975
v -0.096646 0.012364 0.400975
v -0.032215 0.165650 0.374295
v 0.000000 0.165650 0.374295
v 0.032215 0.165650 0.374295
v -0.064431 0.104335 0.400975
v -0.064431 0.073678 0.400975
v -0.064431 0.043021 0.400975
v -0.064431 0.012364 0.400975
v -0.064431 -0.018294 0.400975
v -0.064431 -0.048951 0.400975
v -0.064431 -0.079608 0.400975
v 0.064431 0.134992 0.374295
v 0.096646 0.012364 0.374295
v 0.096646 0.043021 0.374295
v 0.096646 0.073678 0.374295
v 0.096646 0.104335 0.374295
v -0.096646 0.104335 0.374295
v -0.096646 0.073678 0.374295
v -0.096646 0.043021 0.374295
v -0.096646 0.012364 0.374295
v -0.064431 0.104335 0.374295
v -0.064431 0.012364 0.374295
v -0.064431 -0.018294 0.374295
v -0.064431 -0.048951 0.374295
v -0.064431 -0.079608 0.374295
vt 0.999292 0.499748
vt 0.999292 -0.000422
vt 0.499623 -0.000422
vt 0.499623 0.499748
vt 0.000794 0.999570
vt 0.000794 0.499748
vt 0.000794 -0.000422
vt 0.813278 0.719953
vt 0.813278 0.751019
vt 0.657037 0.782085
vt 0.687868 0.782085
vt 0.813278 0.688887
vt 0.781333 0.782085
vt 0.813278 0.782085
vt 0.813278 0.813151
vt 0.750320 0.813151
vt 0.781333 0.813151
vt 0.781333 0.844217
vt 0.718941 0.844217
vt 0.750320 0.844217
vt 0.750320 0.875283
vt 0.844213 0.844217
vt 0.844213 0.875283
vt 0.687868 0.844217
vt 0.718941 0.875283
vt 0.718941 0.688887
vt 0.750320 0.688887
vt 0.750320 0.719953
vt 0.718941 0.719953
vt 0.750320 0.751019
vt 0.718941 0.751019
vt 0.750320 0.782085
vt 0.718941 0.782085
vt 0.781333 0.906349
vt 0.781333 0.937415
vt 0.750320 0.906349
vt 0.718941 0.813151
vt 0.718941 0.906349
vt 0.750320 0.937415
vt 0.781333 0.688887
vt 0.781333 0.719953
vt 0.781333 0.751019
vt 0.718941 0.657821
vt 0.750320 0.657821
vt 0.781333 0.875283
vt 0.781333 0.657821
vt 0.813278 0.844217
vt 0.813278 0.875283
vt 0.813278 0.906349
vt 0.844213 0.813151
vt 0.687868 0.906349
vt 0.687868 0.875283
vt 0.844213 0.782085
vt 0.687868 0.688887
vt 0.718941 0.937414
vt 0.687868 0.813151
vt 0.657037 0.813151
vt 0.657037 0.844217
vt 0.687868 0.751019
vt 0.687868 0.719953
vt 0.657037 0.875283
vt 0.499623 0.999570
vn -1.000000 0.000000 0.000000
vn 0.000000 0.000000 -1.000000
vn 1.000000 0.000000 0.000000
vn 0.000000 0.000000 1.000000
vn 0.000000 -1.000000 0.000000
vn 0.000000 1.000000 0.000000
s off
f 4/1/1 3/2/1 1/3/1
f 8/1/2 7/2/2 3/3/2
f 6/4/3 5/3/3 7/2/3
f 2/5/4 1/6/4 5/4/4
f 3/6/5 7/4/5 5/3/5
f 8/4/6 4/6/6 2/7/6
f 49/8/3 12/8/3 11/9/3
f 68/10/5 87/10/5 89/11/5
f 48/12/3 13/12/3 12/8/3
f 43/13/4 51/14/4 52/15/4
f 36/16/4 44/17/4 45/18/4
f 29/19/4 37/20/4 38/21/4
f 61/22/3 82/22/3 83/23/3
f 73/24/4 29/19/4 30/25/4
f 24/26/4 32/27/4 33/28/4
f 25/29/4 33/28/4 34/30/4
f 26/31/4 34/30/4 35/32/4
f 27/33/4 35/32/4 36/16/4
f 47/34/3 17/34/3 71/35/3
f 30/25/4 38/21/4 39/36/4
f 28/37/4 36/16/4 37/20/4
f 31/38/4 39/36/4 15/39/4
f 32/27/4 40/40/4 41/41/4
f 33/28/4 41/41/4 42/42/4
f 34/30/4 42/42/4 43/13/4
f 19/43/4 20/44/4 32/27/4
f 37/20/4 45/18/4 46/45/4
f 35/32/4 43/13/4 44/17/4
f 38/21/4 46/45/4 47/34/4
f 39/36/4 47/34/4 14/35/4
f 40/40/4 48/12/4 49/8/4
f 41/41/4 49/8/4 50/9/4
f 20/44/4 21/46/4 40/40/4
f 44/17/4 52/15/4 53/47/4
f 42/42/4 50/9/4 51/14/4
f 45/18/4 53/47/4 54/48/4
f 46/45/4 54/48/4 55/49/4
f 60/50/3 81/50/3 82/22/3
f 23/51/1 57/51/1 88/52/1
f 50/9/3 11/9/3 10/14/3
f 51/14/4 59/53/4 60/50/4
f 59/53/3 80/53/3 81/50/3
f 52/15/4 60/50/4 61/22/4
f 53/47/4 61/22/4 62/23/4
f 78/54/5 92/54/5 56/26/5
f 16/55/1 69/55/1 22/38/1
f 62/23/6 83/23/6 9/48/6
f 40/40/5 18/40/5 13/12/5
f 20/44/5 63/44/5 58/46/5
f 68/10/4 75/11/4 74/56/4
f 67/57/4 74/56/4 73/24/4
f 66/58/4 73/24/4 72/52/4
f 75/11/1 89/11/1 90/59/1
f 19/43/5 64/43/5 63/44/5
f 72/52/4 30/25/4 31/38/4
f 74/56/4 28/37/4 29/19/4
f 75/11/4 27/33/4 28/37/4
f 76/59/4 26/31/4 27/33/4
f 77/60/4 25/29/4 26/31/4
f 78/54/4 24/26/4 25/29/4
f 55/49/6 79/49/6 17/34/6
f 21/46/3 58/46/3 18/40/3
f 14/35/6 71/35/6 70/39/6
f 24/26/1 56/26/1 64/43/1
f 15/39/6 70/39/6 69/55/6
f 72/52/6 88/52/6 84/61/6
f 65/61/1 84/61/1 85/58/1
f 31/38/6 22/38/6 57/51/6
f 66/58/1 85/58/1 86/57/1
f 77/60/1 91/60/1 92/54/1
f 67/57/1 86/57/1 87/10/1
f 51/14/5 10/14/5 80/53/5
f 54/48/3 9/48/3 79/49/3
f 76/59/1 90/59/1 91/60/1
f 2/4/1 4/1/1 1/3/1
f 4/4/2 8/1/2 3/3/2
f 8/1/3 6/4/3 7/2/3
f 6/62/4 2/5/4 5/4/4
f 1/7/5 3/6/5 5/3/5
f 6/3/6 8/4/6 2/7/6
f 50/9/3 49/8/3 11/9/3
f 75/11/5 68/10/5 89/11/5
f 49/8/3 48/12/3 12/8/3
f 44/17/4 43/13/4 52/15/4
f 37/20/4 36/16/4 45/18/4
f 30/25/4 29/19/4 38/21/4
f 62/23/3 61/22/3 83/23/3
f 72/52/4 73/24/4 30/25/4
f 25/29/4 24/26/4 33/28/4
f 26/31/4 25/29/4 34/30/4
f 27/33/4 26/31/4 35/32/4
f 28/37/4 27/33/4 36/16/4
f 14/35/3 47/34/3 71/35/3
f 31/38/4 30/25/4 39/36/4
f 29/19/4 28/37/4 37/20/4
f 16/55/4 31/38/4 15/39/4
f 33/28/4 32/27/4 41/41/4
f 34/30/4 33/28/4 42/42/4
f 35/32/4 34/30/4 43/13/4
f 24/26/4 19/43/4 32/27/4
f 38/21/4 37/20/4 46/45/4
f 36/16/4 35/32/4 44/17/4
f 39/36/4 38/21/4 47/34/4
f 15/39/4 39/36/4 14/35/4
f 41/41/4 40/40/4 49/8/4
f 42/42/4 41/41/4 50/9/4
f 32/27/4 20/44/4 40/40/4
f 45/18/4 44/17/4 53/47/4
f 43/13/4 42/42/4 51/14/4
f 46/45/4 45/18/4 54/48/4
f 47/34/4 46/45/4 55/49/4
f 61/22/3 60/50/3 82/22/3
f 72/52/1 23/51/1 88/52/1
f 51/14/3 50/9/3 10/14/3
f 52/15/4 51/14/4 60/50/4
f 60/50/3 59/53/3 81/50/3
f 53/47/4 52/15/4 61/22/4
f 54/48/4 53/47/4 62/23/4
f 24/26/5 78/54/5 56/26/5
f 31/38/1 16/55/1 22/38/1
f 54/48/6 62/23/6 9/48/6
f 48/12/5 40/40/5 13/12/5
f 21/46/5 20/44/5 58/46/5
f 67/57/4 68/10/4 74/56/4
f 66/58/4 67/57/4 73/24/4
f 65/61/4 66/58/4 72/52/4
f 76/59/1 75/11/1 90/59/1
f 20/44/5 19/43/5 63/44/5
f 23/51/4 72/52/4 31/38/4
f 73/24/4 74/56/4 29/19/4
f 74/56/4 75/11/4 28/37/4
f 75/11/4 76/59/4 27/33/4
f 76/59/4 77/60/4 26/31/4
f 77/60/4 78/54/4 25/29/4
f 47/34/6 55/49/6 17/34/6
f 40/40/3 21/46/3 18/40/3
f 15/39/6 14/35/6 70/39/6
f 19/43/1 24/26/1 64/43/1
f 16/55/6 15/39/6 69/55/6
f 65/61/6 72/52/6 84/61/6
f 66/58/1 65/61/1 85/58/1
f 23/51/6 31/38/6 57/51/6
f 67/57/1 66/58/1 86/57/1
f 78/54/1 77/60/1 92/54/1
f 68/10/1 67/57/1 87/10/1
f 59/53/5 51/14/5 80/53/5
f 55/49/3 54/48/3 79/49/3
f 77/60/1 76/59/1 91/60/1
