# Blender v2.77 (sub 0) OBJ File: 'bush.blend'
# www.blender.org
o Cube.001_Cube.004
v -0.283312 -0.502825 0.283619
v -0.283312 0.064239 0.283619
v -0.283312 -0.502825 -0.283445
v -0.283312 0.064239 -0.283445
v 0.283752 -0.502825 0.283619
v 0.283752 0.064239 0.283619
v 0.283752 -0.502825 -0.283445
v 0.283752 0.064239 -0.283445
v -0.023318 -0.496066 0.222700
v -0.023318 -0.050840 0.222700
v -0.023318 -0.496066 -0.222526
v -0.023318 -0.050840 -0.222526
v 0.421908 -0.496066 0.222700
v 0.421908 -0.050840 0.222700
v 0.421908 -0.496066 -0.222526
v 0.421908 -0.050840 -0.222526
v -0.420003 -0.496066 0.222700
v -0.420003 -0.050840 0.222700
v -0.420003 -0.496066 -0.222526
v -0.420003 -0.050840 -0.222526
v 0.025222 -0.496066 0.222700
v 0.025222 -0.050840 0.222700
v 0.025222 -0.496066 -0.222526
v 0.025222 -0.050840 -0.222526
v -0.220197 -0.496066 -0.024184
v -0.220197 -0.050840 -0.024184
v 0.225029 -0.496066 -0.024184
v 0.225029 -0.050840 -0.024184
v -0.220197 -0.496066 0.421042
v -0.220197 -0.050840 0.421042
v 0.225029 -0.496066 0.421042
v 0.225029 -0.050840 0.421042
v -0.220197 -0.496066 -0.420869
v -0.220197 -0.050840 -0.420869
v 0.225029 -0.496066 -0.420869
v 0.225029 -0.050840 -0.420869
v -0.220197 -0.496066 0.024357
v -0.220197 -0.050840 0.024357
v 0.225029 -0.496066 0.024357
v 0.225029 -0.050840 0.024357
v -0.220197 -0.282057 -0.219355
v -0.220197 0.163169 -0.219355
v 0.225029 -0.282057 -0.219355
v 0.225029 0.163169 -0.219355
v -0.220197 -0.282057 0.225871
v -0.220197 0.163169 0.225871
v 0.225029 -0.282057 0.225871
v 0.225029 0.163169 0.225871
vt 0.000100 0.000100
vt 0.999900 0.000100
vt 0.999900 0.999900
vt 0.000100 0.999900
vt 0.000100 0.000100
vt 0.999900 0.000100
vt 0.999900 0.999900
vt 0.000100 0.999900
vt 0.999900 0.999900
vt 0.000100 0.999900
vt 0.000100 0.000100
vt 0.999900 0.000100
vt 0.999900 0.999900
vt 0.000100 0.999900
vt 0.000100 0.000100
vt 0.999900 0.000100
vt 0.000100 0.000100
vt 0.999900 0.999900
vt 0.999900 0.000100
vt 0.000100 0.999900
vt 0.000100 0.000100
vt 0.999900 0.000100
vt 0.999900 0.999900
vt 0.000100 0.999900
vt 0.000100 0.000100
vt 0.999900 0.000100
vt 0.999900 0.999900
vt 0.000100 0.999900
vt 0.999900 0.999900
vt 0.000100 0.999900
vt 0.000100 0.000100
vt 0.999900 0.000100
vt 0.999900 0.999900
vt 0.000100 0.999900
vt 0.000100 0.000100
vt 0.999900 0.000100
vt 0.000100 0.000100
vt 0.999900 0.999900
vt 0.999900 0.000100
vt 0.000100 0.999900
vt 0.000100 0.000100
vt 0.999900 0.000100
vt 0.999900 0.999900
vt 0.000100 0.999900
vt 0.000100 0.000100
vt 0.999900 0.000100
vt 0.999900 0.999900
vt 0.000100 0.999900
vt 0.999900 0.999900
vt 0.000100 0.999900
vt 0.000100 0.000100
vt 0.999900 0.000100
vt 0.999900 0.999900
vt 0.000100 0.999900
vt 0.000100 0.000100
vt 0.999900 0.000100
vt 0.000100 0.000100
vt 0.999900 0.999900
vt 0.999900 0.000100
vt 0.000100 0.999900
vt 0.000100 0.000100
vt 0.999900 0.000100
vt 0.999900 0.999900
vt 0.000100 0.999900
vt 0.000100 0.000100
vt 0.999900 0.000100
vt 0.999900 0.999900
vt 0.000100 0.999900
vt 0.999900 0.999900
vt 0.000100 0.999900
vt 0.000100 0.000100
vt 0.999900 0.000100
vt 0.999900 0.999900
vt 0.000100 0.999900
vt 0.000100 0.000100
vt 0.999900 0.000100
vt 0.000100 0.000100
vt 0.999900 0.999900
vt 0.999900 0.000100
vt 0.000100 0.999900
vt 0.000100 0.000100
vt 0.999900 0.000100
vt 0.999900 0.999900
vt 0.000100 0.999900
vt 0.000100 0.000100
vt 0.999900 0.000100
vt 0.999900 0.999900
vt 0.000100 0.999900
vt 0.999900 0.999900
vt 0.000100 0.999900
vt 0.000100 0.000100
vt 0.999900 0.000100
vt 0.999900 0.999900
vt 0.000100 0.999900
vt 0.000100 0.000100
vt 0.999900 0.000100
vt 0.000100 0.000100
vt 0.999900 0.999900
vt 0.999900 0.000100
vt 0.000100 0.999900
vt 0.000100 0.000100
vt 0.999900 0.000100
vt 0.999900 0.999900
vt 0.000100 0.999900
vt 0.000100 0.000100
vt 0.999900 0.000100
vt 0.999900 0.999900
vt 0.000100 0.999900
vt 0.999900 0.999900
vt 0.000100 0.999900
vt 0.000100 0.000100
vt 0.999900 0.000100
vt 0.999900 0.999900
vt 0.000100 0.999900
vt 0.000100 0.000100
vt 0.999900 0.000100
vt 0.000100 0.000100
vt 0.999900 0.999900
vt 0.999900 0.000100
vt 0.000100 0.999900
vn -1.000000 0.000000 0.000000
vn 0.000000 0.000000 -1.000000
vn 1.000000 0.000000 0.000000
vn 0.000000 0.000000 1.000000
vn 0.000000 -1.000000 0.000000
vn 0.000000 1.000000 0.000000
s off
f 2/1/1 4/2/1 3/3/1 1/4/1
f 4/5/2 8/6/2 7/7/2 3/8/2
f 8/9/3 6/10/3 5/11/3 7/12/3
f 6/13/4 2/14/4 1/15/4 5/16/4
f 1/4/5 3/17/5 7/12/5 5/18/5
f 6/19/6 8/9/6 4/20/6 2/1/6
f 10/21/1 12/22/1 11/23/1 9/24/1
f 12/25/2 16/26/2 15/27/2 11/28/2
f 16/29/3 14/30/3 13/31/3 15/32/3
f 14/33/4 10/34/4 9/35/4 13/36/4
f 9/24/5 11/37/5 15/32/5 13/38/5
f 14/39/6 16/29/6 12/40/6 10/21/6
f 18/41/1 20/42/1 19/43/1 17/44/1
f 20/45/2 24/46/2 23/47/2 19/48/2
f 24/49/3 22/50/3 21/51/3 23/52/3
f 22/53/4 18/54/4 17/55/4 21/56/4
f 17/44/5 19/57/5 23/52/5 21/58/5
f 22/59/6 24/49/6 20/60/6 18/41/6
f 26/61/2 28/62/2 27/63/2 25/64/2
f 28/65/3 32/66/3 31/67/3 27/68/3
f 32/69/4 30/70/4 29/71/4 31/72/4
f 30/73/1 26/74/1 25/75/1 29/76/1
f 25/64/5 27/77/5 31/72/5 29/78/5
f 30/79/6 32/69/6 28/80/6 26/61/6
f 34/81/2 36/82/2 35/83/2 33/84/2
f 36/85/3 40/86/3 39/87/3 35/88/3
f 40/89/4 38/90/4 37/91/4 39/92/4
f 38/93/1 34/94/1 33/95/1 37/96/1
f 33/84/5 35/97/5 39/92/5 37/98/5
f 38/99/6 40/89/6 36/100/6 34/81/6
f 42/101/2 44/102/2 43/103/2 41/104/2
f 44/105/3 48/106/3 47/107/3 43/108/3
f 48/109/4 46/110/4 45/111/4 47/112/4
f 46/113/1 42/114/1 41/115/1 45/116/1
f 41/104/5 43/117/5 47/112/5 45/118/5
f 46/119/6 48/109/6 44/120/6 42/101/6
