# Blender v2.76 (sub 0) OBJ File: 'Romashka.blend'
# www.blender.org
o Plane_Plane.011
v -0.062500 -0.500000 0.000000
v -0.218750 -0.093750 0.000000
v -0.250000 0.031250 -0.000000
v 0.062500 -0.500000 0.000000
v -0.281250 -0.062500 0.000000
v -0.281250 -0.031250 0.000000
v -0.250000 -0.093750 0.000000
v -0.250000 -0.062500 0.000000
v -0.250000 -0.031250 0.000000
v -0.250000 0.031250 -0.000000
v -0.218750 -0.093750 0.000000
v -0.218750 0.031250 -0.000000
v -0.218750 0.093750 -0.000000
v -0.187500 -0.406250 0.000000
v -0.187500 -0.375000 0.000000
v -0.187500 -0.125000 0.000000
v -0.187500 -0.093750 0.000000
v -0.062500 -0.500000 0.000000
v -0.281250 -0.031250 0.000000
v -0.156250 -0.375000 0.000000
v -0.156250 -0.343750 0.000000
v -0.156250 -0.125000 0.000000
v -0.156250 0.093750 -0.000000
v -0.156250 0.156250 -0.000000
v -0.250000 -0.093750 0.000000
v -0.125000 -0.343750 0.000000
v -0.125000 -0.312500 0.000000
v -0.125000 -0.187500 0.000000
v -0.125000 -0.125000 0.000000
v -0.125000 0.156250 -0.000000
v -0.125000 0.187500 -0.000000
v -0.281250 -0.062500 0.000000
v 0.062500 -0.500000 0.000000
v -0.093750 -0.218750 0.000000
v -0.093750 -0.187500 0.000000
v -0.093750 0.187500 -0.000000
v -0.062500 -0.468750 0.000000
v -0.062500 -0.437500 0.000000
v -0.062500 -0.406250 0.000000
v -0.062500 -0.375000 0.000000
v -0.062500 -0.312500 0.000000
v -0.062500 -0.250000 0.000000
v -0.062500 -0.218750 0.000000
v -0.062500 0.187500 -0.000000
v -0.062500 0.218750 -0.000000
v -0.031250 -0.468750 0.000000
v -0.031250 -0.437500 0.000000
v -0.031250 -0.406250 0.000000
v -0.031250 -0.375000 0.000000
v -0.031250 -0.343750 0.000000
v -0.031250 -0.250000 0.000000
v -0.031250 0.218750 -0.000000
v -0.000000 -0.406250 0.000000
v -0.218750 0.093750 -0.000000
v -0.000000 -0.343750 0.000000
v 0.000000 0.187500 -0.000000
v 0.000000 0.218750 -0.000000
v -0.187500 -0.125000 0.000000
v 0.031250 -0.312500 0.000000
v 0.031250 -0.218750 0.000000
v 0.031250 0.156250 -0.000000
v 0.031250 0.187500 -0.000000
v 0.062500 -0.406250 0.000000
v -0.187500 -0.093750 0.000000
v 0.062500 -0.312500 0.000000
v 0.062500 -0.281250 0.000000
v 0.062500 -0.218750 0.000000
v 0.062500 -0.187500 0.000000
v -0.250000 -0.062500 0.000000
v 0.093750 -0.406250 0.000000
v -0.250000 -0.031250 0.000000
v 0.093750 -0.343750 0.000000
v 0.093750 -0.281250 0.000000
v 0.093750 -0.250000 0.000000
v -0.218750 0.031250 -0.000000
v -0.187500 -0.406250 0.000000
v 0.125000 0.156250 -0.000000
v -0.187500 -0.375000 0.000000
v 0.156250 0.125000 -0.000000
v 0.156250 0.156250 -0.000000
v 0.187500 -0.250000 0.000000
v 0.187500 -0.218750 0.000000
v 0.187500 -0.187500 0.000000
v 0.187500 -0.125000 0.000000
v 0.187500 0.062500 -0.000000
v 0.187500 0.125000 -0.000000
v 0.218750 -0.343750 0.000000
v 0.218750 -0.281250 0.000000
v 0.218750 -0.250000 0.000000
v 0.218750 -0.218750 0.000000
v 0.218750 -0.125000 0.000000
v 0.218750 -0.093750 0.000000
v 0.218750 0.031250 -0.000000
v 0.218750 0.062500 -0.000000
v 0.250000 -0.281250 0.000000
v 0.250000 -0.250000 0.000000
v 0.250000 -0.093750 0.000000
v 0.250000 0.031250 -0.000000
v -0.156250 -0.375000 0.000000
v -0.156250 -0.343750 0.000000
v -0.156250 -0.125000 0.000000
v -0.156250 0.093750 -0.000000
v -0.156250 0.156250 -0.000000
v -0.125000 -0.343750 0.000000
v -0.125000 -0.312500 0.000000
v -0.125000 -0.187500 0.000000
v -0.125000 -0.125000 0.000000
v -0.125000 0.156250 -0.000000
v -0.125000 0.187500 -0.000000
v -0.093750 -0.218750 0.000000
v -0.093750 -0.187500 0.000000
v -0.093750 0.187500 -0.000000
v -0.062500 -0.468750 0.000000
v -0.062500 -0.437500 0.000000
v -0.062500 -0.406250 0.000000
v -0.062500 -0.375000 0.000000
v -0.062500 -0.312500 0.000000
v -0.062500 -0.250000 0.000000
v -0.062500 -0.218750 0.000000
v -0.062500 0.187500 -0.000000
v -0.062500 0.218750 -0.000000
v -0.031250 -0.468750 0.000000
v -0.031250 -0.437500 0.000000
v -0.031250 -0.406250 0.000000
v -0.031250 -0.375000 0.000000
v -0.031250 -0.343750 0.000000
v -0.031250 -0.250000 0.000000
v -0.031250 0.218750 -0.000000
v -0.000000 -0.406250 0.000000
v -0.000000 -0.343750 0.000000
v 0.000000 0.187500 -0.000000
v 0.000000 0.218750 -0.000000
v 0.031250 -0.312500 0.000000
v 0.031250 -0.218750 0.000000
v 0.031250 0.156250 -0.000000
v 0.031250 0.187500 -0.000000
v 0.062500 -0.406250 0.000000
v 0.062500 -0.312500 0.000000
v 0.062500 -0.281250 0.000000
v 0.062500 -0.218750 0.000000
v 0.062500 -0.187500 0.000000
v 0.093750 -0.406250 0.000000
v 0.093750 -0.343750 0.000000
v 0.093750 -0.281250 0.000000
v 0.093750 -0.250000 0.000000
v 0.125000 0.156250 -0.000000
v 0.156250 0.125000 -0.000000
v 0.156250 0.156250 -0.000000
v 0.187500 -0.250000 0.000000
v 0.187500 -0.218750 0.000000
v 0.187500 -0.187500 0.000000
v 0.187500 -0.125000 0.000000
v 0.187500 0.062500 -0.000000
v 0.187500 0.125000 -0.000000
v 0.218750 -0.343750 0.000000
v 0.218750 -0.281250 0.000000
v 0.218750 -0.250000 0.000000
v 0.218750 -0.218750 0.000000
v 0.218750 -0.125000 0.000000
v 0.218750 -0.093750 0.000000
v 0.218750 0.031250 -0.000000
v 0.218750 0.062500 -0.000000
v 0.250000 -0.281250 0.000000
v 0.250000 -0.250000 0.000000
v 0.250000 -0.093750 0.000000
v 0.250000 0.031250 -0.000000
v -0.015625 -0.500000 -0.046875
v -0.015625 -0.093750 -0.203125
v -0.015625 0.031250 -0.234375
v -0.015625 -0.500000 0.078125
v -0.015625 -0.062500 -0.265625
v -0.015625 -0.031250 -0.265625
v -0.015625 -0.093750 -0.234375
v -0.015625 -0.062500 -0.234375
v -0.015625 -0.031250 -0.234375
v -0.015625 0.031250 -0.234375
v -0.015625 -0.093750 -0.203125
v -0.015625 0.031250 -0.203125
v -0.015625 0.093750 -0.203125
v -0.015625 -0.406250 -0.171875
v -0.015625 -0.375000 -0.171875
v -0.015625 -0.125000 -0.171875
v -0.015625 -0.093750 -0.171875
v -0.015625 -0.500000 -0.046875
v -0.015625 -0.031250 -0.265625
v -0.015625 -0.375000 -0.140625
v -0.015625 -0.343750 -0.140625
v -0.015625 -0.125000 -0.140625
v -0.015625 0.093750 -0.140625
v -0.015625 0.156250 -0.140625
v -0.015625 -0.093750 -0.234375
v -0.015625 -0.343750 -0.109375
v -0.015625 -0.312500 -0.109375
v -0.015625 -0.187500 -0.109375
v -0.015625 -0.125000 -0.109375
v -0.015625 0.156250 -0.109375
v -0.015625 0.187500 -0.109375
v -0.015625 -0.062500 -0.265625
v -0.015625 -0.500000 0.078125
v -0.015625 -0.218750 -0.078125
v -0.015625 -0.187500 -0.078125
v -0.015625 0.187500 -0.078125
v -0.015625 -0.468750 -0.046875
v -0.015625 -0.437500 -0.046875
v -0.015625 -0.406250 -0.046875
v -0.015625 -0.375000 -0.046875
v -0.015625 -0.312500 -0.046875
v -0.015625 -0.250000 -0.046875
v -0.015625 -0.218750 -0.046875
v -0.015625 0.187500 -0.046875
v -0.015625 0.218750 -0.046875
v -0.015625 -0.468750 -0.015625
v -0.015625 -0.437500 -0.015625
v -0.015625 -0.406250 -0.015625
v -0.015625 -0.375000 -0.015625
v -0.015625 -0.343750 -0.015625
v -0.015625 -0.250000 -0.015625
v -0.015625 0.218750 -0.015625
v -0.015625 -0.406250 0.015625
v -0.015625 0.093750 -0.203125
v -0.015625 -0.343750 0.015625
v -0.015625 0.187500 0.015625
v -0.015625 0.218750 0.015625
v -0.015625 -0.125000 -0.171875
v -0.015625 -0.312500 0.046875
v -0.015625 -0.218750 0.046875
v -0.015625 0.156250 0.046875
v -0.015625 0.187500 0.046875
v -0.015625 -0.406250 0.078125
v -0.015625 -0.093750 -0.171875
v -0.015625 -0.312500 0.078125
v -0.015625 -0.281250 0.078125
v -0.015625 -0.218750 0.078125
v -0.015625 -0.187500 0.078125
v -0.015625 -0.062500 -0.234375
v -0.015625 -0.406250 0.109375
v -0.015625 -0.031250 -0.234375
v -0.015625 -0.343750 0.109375
v -0.015625 -0.281250 0.109375
v -0.015625 -0.250000 0.109375
v -0.015625 0.031250 -0.203125
v -0.015625 -0.406250 -0.171875
v -0.015625 0.156250 0.140625
v -0.015625 -0.375000 -0.171875
v -0.015625 0.125000 0.171875
v -0.015625 0.156250 0.171875
v -0.015625 -0.250000 0.203125
v -0.015625 -0.218750 0.203125
v -0.015625 -0.187500 0.203125
v -0.015625 -0.125000 0.203125
v -0.015625 0.062500 0.203125
v -0.015625 0.125000 0.203125
v -0.015625 -0.343750 0.234375
v -0.015625 -0.281250 0.234375
v -0.015625 -0.250000 0.234375
v -0.015625 -0.218750 0.234375
v -0.015625 -0.125000 0.234375
v -0.015625 -0.093750 0.234375
v -0.015625 0.031250 0.234375
v -0.015625 0.062500 0.234375
v -0.015625 -0.281250 0.265625
v -0.015625 -0.250000 0.265625
v -0.015625 -0.093750 0.265625
v -0.015625 0.031250 0.265625
v -0.015625 -0.375000 -0.140625
v -0.015625 -0.343750 -0.140625
v -0.015625 -0.125000 -0.140625
v -0.015625 0.093750 -0.140625
v -0.015625 0.156250 -0.140625
v -0.015625 -0.343750 -0.109375
v -0.015625 -0.312500 -0.109375
v -0.015625 -0.187500 -0.109375
v -0.015625 -0.125000 -0.109375
v -0.015625 0.156250 -0.109375
v -0.015625 0.187500 -0.109375
v -0.015625 -0.218750 -0.078125
v -0.015625 -0.187500 -0.078125
v -0.015625 0.187500 -0.078125
v -0.015625 -0.468750 -0.046875
v -0.015625 -0.437500 -0.046875
v -0.015625 -0.406250 -0.046875
v -0.015625 -0.375000 -0.046875
v -0.015625 -0.312500 -0.046875
v -0.015625 -0.250000 -0.046875
v -0.015625 -0.218750 -0.046875
v -0.015625 0.187500 -0.046875
v -0.015625 0.218750 -0.046875
v -0.015625 -0.468750 -0.015625
v -0.015625 -0.437500 -0.015625
v -0.015625 -0.406250 -0.015625
v -0.015625 -0.375000 -0.015625
v -0.015625 -0.343750 -0.015625
v -0.015625 -0.250000 -0.015625
v -0.015625 0.218750 -0.015625
v -0.015625 -0.406250 0.015625
v -0.015625 -0.343750 0.015625
v -0.015625 0.187500 0.015625
v -0.015625 0.218750 0.015625
v -0.015625 -0.312500 0.046875
v -0.015625 -0.218750 0.046875
v -0.015625 0.156250 0.046875
v -0.015625 0.187500 0.046875
v -0.015625 -0.406250 0.078125
v -0.015625 -0.312500 0.078125
v -0.015625 -0.281250 0.078125
v -0.015625 -0.218750 0.078125
v -0.015625 -0.187500 0.078125
v -0.015625 -0.406250 0.109375
v -0.015625 -0.343750 0.109375
v -0.015625 -0.281250 0.109375
v -0.015625 -0.250000 0.109375
v -0.015625 0.156250 0.140625
v -0.015625 0.125000 0.171875
v -0.015625 0.156250 0.171875
v -0.015625 -0.250000 0.203125
v -0.015625 -0.218750 0.203125
v -0.015625 -0.187500 0.203125
v -0.015625 -0.125000 0.203125
v -0.015625 0.062500 0.203125
v -0.015625 0.125000 0.203125
v -0.015625 -0.343750 0.234375
v -0.015625 -0.281250 0.234375
v -0.015625 -0.250000 0.234375
v -0.015625 -0.218750 0.234375
v -0.015625 -0.125000 0.234375
v -0.015625 -0.093750 0.234375
v -0.015625 0.031250 0.234375
v -0.015625 0.062500 0.234375
v -0.015625 -0.281250 0.265625
v -0.015625 -0.250000 0.265625
v -0.015625 -0.093750 0.265625
v -0.015625 0.031250 0.265625
vt 0.562500 0.093750
vt 0.593750 0.093750
vt 0.593750 0.156250
vt 0.531250 0.656250
vt 0.375000 0.375000
vt 0.562500 0.312500
vt 0.343750 0.156250
vt 0.343750 0.125000
vt 0.375000 0.156250
vt 0.687500 0.250000
vt 0.593750 0.218750
vt 0.687500 0.375000
vt 0.718750 0.375000
vt 0.718750 0.406250
vt 0.593750 0.250000
vt 0.718750 0.531250
vt 0.718750 0.562500
vt 0.687500 0.562500
vt 0.687500 0.312500
vt 0.500000 0.156250
vt 0.500000 0.093750
vt 0.312500 0.125000
vt 0.312500 0.093750
vt 0.656250 0.625000
vt 0.656250 0.656250
vt 0.625000 0.656250
vt 0.562500 0.218750
vt 0.562500 0.187500
vt 0.531250 0.281250
vt 0.406250 0.312500
vt 0.437500 0.125000
vt 0.437500 0.093750
vt 0.468750 0.093750
vt 0.468750 0.125000
vt 0.437500 0.000000
vt 0.562500 0.000000
vt 0.468750 0.031250
vt 0.375000 0.187500
vt 0.437500 0.187500
vt 0.562500 0.281250
vt 0.437500 0.031250
vt 0.687500 0.625000
vt 0.531250 0.687500
vt 0.500000 0.687500
vt 0.718750 0.218750
vt 0.500000 0.718750
vt 0.468750 0.718750
vt 0.718750 0.250000
vt 0.687500 0.281250
vt 0.437500 0.062500
vt 0.468750 0.062500
vt 0.437500 0.250000
vt 0.468750 0.250000
vt 0.437500 0.281250
vt 0.437500 0.718750
vt 0.437500 0.687500
vt 0.750000 0.406250
vt 0.750000 0.531250
vt 0.406250 0.281250
vt 0.750000 0.250000
vt 0.375000 0.687500
vt 0.375000 0.656250
vt 0.406250 0.687500
vt 0.718750 0.281250
vt 0.750000 0.218750
vt 0.312500 0.375000
vt 0.343750 0.375000
vt 0.312500 0.406250
vt 0.718750 0.156250
vt 0.250000 0.406250
vt 0.281250 0.406250
vt 0.250000 0.437500
vt 0.250000 0.468750
vt 0.218750 0.468750
vt 0.531250 0.187500
vt 0.468750 0.156250
vt 0.343750 0.656250
vt 0.343750 0.593750
vt 0.281250 0.593750
vt 0.281250 0.531250
vt 0.250000 0.531250
vt 0.375000 0.312500
vt 0.218750 0.437500
vn 0.000000 0.000000 1.000000
vn 0.000000 -0.000000 -1.000000
vn -1.000000 0.000000 0.000000
vn 1.000000 -0.000000 -0.000000
s off
f 63/1/1 70/2/1 72/3/1
f 61/4/1 29/5/1 68/6/1
f 21/7/1 20/8/1 26/9/1
f 81/10/1 73/11/1 72/3/1
f 84/12/1 91/13/1 92/14/1
f 81/10/1 74/15/1 73/11/1
f 93/16/1 94/17/1 85/18/1
f 68/6/1 83/19/1 84/12/1
f 63/1/1 55/20/1 53/21/1
f 15/22/1 14/23/1 20/8/1
f 79/24/1 80/25/1 77/26/1
f 68/6/1 84/12/1 85/18/1
f 73/11/1 66/27/1 65/28/1
f 60/29/1 68/6/1 35/30/1
f 40/31/1 39/32/1 48/33/1
f 48/33/1 49/34/1 40/31/1
f 1/35/1 4/36/1 46/37/1
f 4/36/1 63/1/1 53/21/1
f 27/38/1 26/9/1 41/39/1
f 84/12/1 92/14/1 93/16/1
f 60/29/1 67/40/1 68/6/1
f 46/37/1 37/41/1 1/35/1
f 63/1/1 72/3/1 65/28/1
f 79/24/1 77/26/1 61/4/1
f 72/3/1 73/11/1 65/28/1
f 85/18/1 79/24/1 61/4/1
f 85/18/1 86/42/1 79/24/1
f 61/4/1 62/43/1 56/44/1
f 72/3/1 88/45/1 81/10/1
f 26/9/1 20/8/1 39/32/1
f 56/44/1 57/46/1 52/47/1
f 89/48/1 82/49/1 81/10/1
f 39/32/1 38/50/1 47/51/1
f 26/9/1 39/32/1 40/31/1
f 42/52/1 51/53/1 43/54/1
f 45/55/1 44/56/1 52/47/1
f 92/14/1 97/57/1 98/58/1
f 34/59/1 43/54/1 35/30/1
f 88/45/1 96/60/1 89/48/1
f 40/31/1 41/39/1 26/9/1
f 48/33/1 39/32/1 47/51/1
f 31/61/1 30/62/1 36/63/1
f 46/37/1 4/36/1 53/21/1
f 89/48/1 90/64/1 82/49/1
f 92/14/1 98/58/1 93/16/1
f 88/45/1 95/65/1 96/60/1
f 16/66/1 22/67/1 17/68/1
f 72/3/1 87/69/1 88/45/1
f 84/12/1 93/16/1 85/18/1
f 7/70/1 11/71/1 8/72/1
f 88/45/1 89/48/1 81/10/1
f 68/6/1 85/18/1 61/4/1
f 8/72/1 9/73/1 6/74/1
f 46/37/1 53/21/1 47/51/1
f 53/21/1 48/33/1 47/51/1
f 20/8/1 14/23/1 39/32/1
f 59/75/1 60/29/1 51/53/1
f 63/1/1 65/28/1 59/75/1
f 61/4/1 56/44/1 44/56/1
f 44/56/1 36/63/1 30/62/1
f 56/44/1 52/47/1 44/56/1
f 63/1/1 59/75/1 55/20/1
f 51/53/1 50/76/1 55/20/1
f 55/20/1 59/75/1 51/53/1
f 61/4/1 44/56/1 30/62/1
f 30/62/1 24/77/1 23/78/1
f 23/78/1 13/79/1 12/80/1
f 12/80/1 10/81/1 9/73/1
f 9/73/1 8/72/1 11/71/1
f 17/68/1 22/67/1 29/5/1
f 9/73/1 11/71/1 17/68/1
f 23/78/1 17/68/1 29/5/1
f 61/4/1 30/62/1 23/78/1
f 51/53/1 60/29/1 43/54/1
f 35/30/1 43/54/1 60/29/1
f 29/5/1 28/82/1 35/30/1
f 9/73/1 17/68/1 12/80/1
f 61/4/1 23/78/1 29/5/1
f 35/30/1 68/6/1 29/5/1
f 12/80/1 17/68/1 23/78/1
f 5/83/1 8/72/1 6/74/1
f 137/1/2 143/3/2 142/2/2
f 135/4/2 141/6/2 107/5/2
f 100/7/2 104/9/2 99/8/2
f 149/10/2 143/3/2 144/11/2
f 152/12/2 160/14/2 159/13/2
f 149/10/2 144/11/2 145/15/2
f 161/16/2 153/18/2 162/17/2
f 141/6/2 152/12/2 151/19/2
f 137/1/2 129/21/2 130/20/2
f 78/22/2 99/8/2 76/23/2
f 147/24/2 146/26/2 148/25/2
f 141/6/2 153/18/2 152/12/2
f 144/11/2 138/28/2 139/27/2
f 134/29/2 111/30/2 141/6/2
f 116/31/2 124/33/2 115/32/2
f 124/33/2 116/31/2 125/34/2
f 18/35/2 122/37/2 33/36/2
f 33/36/2 129/21/2 137/1/2
f 105/38/2 117/39/2 104/9/2
f 152/12/2 161/16/2 160/14/2
f 134/29/2 141/6/2 140/40/2
f 122/37/2 18/35/2 113/41/2
f 137/1/2 138/28/2 143/3/2
f 147/24/2 135/4/2 146/26/2
f 143/3/2 138/28/2 144/11/2
f 153/18/2 135/4/2 147/24/2
f 153/18/2 147/24/2 154/42/2
f 135/4/2 131/44/2 136/43/2
f 143/3/2 149/10/2 156/45/2
f 104/9/2 115/32/2 99/8/2
f 131/44/2 128/47/2 132/46/2
f 157/48/2 149/10/2 150/49/2
f 115/32/2 123/51/2 114/50/2
f 104/9/2 116/31/2 115/32/2
f 118/52/2 119/54/2 127/53/2
f 121/55/2 128/47/2 120/56/2
f 160/14/2 166/58/2 165/57/2
f 110/59/2 111/30/2 119/54/2
f 156/45/2 157/48/2 164/60/2
f 116/31/2 104/9/2 117/39/2
f 124/33/2 123/51/2 115/32/2
f 109/61/2 112/63/2 108/62/2
f 122/37/2 129/21/2 33/36/2
f 157/48/2 150/49/2 158/64/2
f 160/14/2 161/16/2 166/58/2
f 156/45/2 164/60/2 163/65/2
f 58/66/2 64/68/2 101/67/2
f 143/3/2 156/45/2 155/69/2
f 152/12/2 153/18/2 161/16/2
f 25/70/2 69/72/2 2/71/2
f 156/45/2 149/10/2 157/48/2
f 141/6/2 135/4/2 153/18/2
f 69/72/2 19/74/2 71/73/2
f 122/37/2 123/51/2 129/21/2
f 129/21/2 123/51/2 124/33/2
f 99/8/2 115/32/2 76/23/2
f 133/75/2 127/53/2 134/29/2
f 137/1/2 133/75/2 138/28/2
f 135/4/2 120/56/2 131/44/2
f 120/56/2 108/62/2 112/63/2
f 131/44/2 120/56/2 128/47/2
f 137/1/2 130/20/2 133/75/2
f 127/53/2 130/20/2 126/76/2
f 130/20/2 127/53/2 133/75/2
f 135/4/2 108/62/2 120/56/2
f 108/62/2 102/78/2 103/77/2
f 102/78/2 75/80/2 54/79/2
f 75/80/2 71/73/2 3/81/2
f 71/73/2 2/71/2 69/72/2
f 64/68/2 107/5/2 101/67/2
f 71/73/2 64/68/2 2/71/2
f 102/78/2 107/5/2 64/68/2
f 135/4/2 102/78/2 108/62/2
f 127/53/2 119/54/2 134/29/2
f 111/30/2 134/29/2 119/54/2
f 107/5/2 111/30/2 106/82/2
f 71/73/2 75/80/2 64/68/2
f 135/4/2 107/5/2 102/78/2
f 111/30/2 107/5/2 141/6/2
f 75/80/2 102/78/2 64/68/2
f 32/83/2 19/74/2 69/72/2
f 229/1/3 236/2/3 238/3/3
f 227/4/3 195/5/3 234/6/3
f 187/7/3 186/8/3 192/9/3
f 247/10/3 239/11/3 238/3/3
f 250/12/3 257/13/3 258/14/3
f 247/10/3 240/15/3 239/11/3
f 259/16/3 260/17/3 251/18/3
f 234/6/3 249/19/3 250/12/3
f 229/1/3 221/20/3 219/21/3
f 181/22/3 180/23/3 186/8/3
f 245/24/3 246/25/3 243/26/3
f 234/6/3 250/12/3 251/18/3
f 239/11/3 232/27/3 231/28/3
f 226/29/3 234/6/3 201/30/3
f 206/31/3 205/32/3 214/33/3
f 214/33/3 215/34/3 206/31/3
f 167/35/3 170/36/3 212/37/3
f 170/36/3 229/1/3 219/21/3
f 193/38/3 192/9/3 207/39/3
f 250/12/3 258/14/3 259/16/3
f 226/29/3 233/40/3 234/6/3
f 212/37/3 203/41/3 167/35/3
f 229/1/3 238/3/3 231/28/3
f 245/24/3 243/26/3 227/4/3
f 238/3/3 239/11/3 231/28/3
f 251/18/3 245/24/3 227/4/3
f 251/18/3 252/42/3 245/24/3
f 227/4/3 228/43/3 222/44/3
f 238/3/3 254/45/3 247/10/3
f 192/9/3 186/8/3 205/32/3
f 222/44/3 223/46/3 218/47/3
f 255/48/3 248/49/3 247/10/3
f 205/32/3 204/50/3 213/51/3
f 192/9/3 205/32/3 206/31/3
f 208/52/3 217/53/3 209/54/3
f 211/55/3 210/56/3 218/47/3
f 258/14/3 263/57/3 264/58/3
f 200/59/3 209/54/3 201/30/3
f 254/45/3 262/60/3 255/48/3
f 206/31/3 207/39/3 192/9/3
f 214/33/3 205/32/3 213/51/3
f 197/61/3 196/62/3 202/63/3
f 212/37/3 170/36/3 219/21/3
f 255/48/3 256/64/3 248/49/3
f 258/14/3 264/58/3 259/16/3
f 254/45/3 261/65/3 262/60/3
f 182/66/3 188/67/3 183/68/3
f 238/3/3 253/69/3 254/45/3
f 250/12/3 259/16/3 251/18/3
f 173/70/3 177/71/3 174/72/3
f 254/45/3 255/48/3 247/10/3
f 234/6/3 251/18/3 227/4/3
f 174/72/3 175/73/3 172/74/3
f 212/37/3 219/21/3 213/51/3
f 219/21/3 214/33/3 213/51/3
f 186/8/3 180/23/3 205/32/3
f 225/75/3 226/29/3 217/53/3
f 229/1/3 231/28/3 225/75/3
f 227/4/3 222/44/3 210/56/3
f 210/56/3 202/63/3 196/62/3
f 222/44/3 218/47/3 210/56/3
f 229/1/3 225/75/3 221/20/3
f 217/53/3 216/76/3 221/20/3
f 221/20/3 225/75/3 217/53/3
f 227/4/3 210/56/3 196/62/3
f 196/62/3 190/77/3 189/78/3
f 189/78/3 179/79/3 178/80/3
f 178/80/3 176/81/3 175/73/3
f 175/73/3 174/72/3 177/71/3
f 183/68/3 188/67/3 195/5/3
f 175/73/3 177/71/3 183/68/3
f 189/78/3 183/68/3 195/5/3
f 227/4/3 196/62/3 189/78/3
f 217/53/3 226/29/3 209/54/3
f 201/30/3 209/54/3 226/29/3
f 195/5/3 194/82/3 201/30/3
f 175/73/3 183/68/3 178/80/3
f 227/4/3 189/78/3 195/5/3
f 201/30/3 234/6/3 195/5/3
f 178/80/3 183/68/3 189/78/3
f 171/83/3 174/72/3 172/74/3
f 303/1/4 309/3/4 308/2/4
f 301/4/4 307/6/4 273/5/4
f 266/7/4 270/9/4 265/8/4
f 315/10/4 309/3/4 310/11/4
f 318/12/4 326/14/4 325/13/4
f 315/10/4 310/11/4 311/15/4
f 327/16/4 319/18/4 328/17/4
f 307/6/4 318/12/4 317/19/4
f 303/1/4 295/21/4 296/20/4
f 244/22/4 265/8/4 242/23/4
f 313/24/4 312/26/4 314/25/4
f 307/6/4 319/18/4 318/12/4
f 310/11/4 304/28/4 305/27/4
f 300/29/4 277/30/4 307/6/4
f 282/31/4 290/33/4 281/32/4
f 290/33/4 282/31/4 291/34/4
f 184/35/4 288/37/4 199/36/4
f 199/36/4 295/21/4 303/1/4
f 271/38/4 283/39/4 270/9/4
f 318/12/4 327/16/4 326/14/4
f 300/29/4 307/6/4 306/40/4
f 288/37/4 184/35/4 279/41/4
f 303/1/4 304/28/4 309/3/4
f 313/24/4 301/4/4 312/26/4
f 309/3/4 304/28/4 310/11/4
f 319/18/4 301/4/4 313/24/4
f 319/18/4 313/24/4 320/42/4
f 301/4/4 297/44/4 302/43/4
f 309/3/4 315/10/4 322/45/4
f 270/9/4 281/32/4 265/8/4
f 297/44/4 294/47/4 298/46/4
f 323/48/4 315/10/4 316/49/4
f 281/32/4 289/51/4 280/50/4
f 270/9/4 282/31/4 281/32/4
f 284/52/4 285/54/4 293/53/4
f 287/55/4 294/47/4 286/56/4
f 326/14/4 332/58/4 331/57/4
f 276/59/4 277/30/4 285/54/4
f 322/45/4 323/48/4 330/60/4
f 282/31/4 270/9/4 283/39/4
f 290/33/4 289/51/4 281/32/4
f 275/61/4 278/63/4 274/62/4
f 288/37/4 295/21/4 199/36/4
f 323/48/4 316/49/4 324/64/4
f 326/14/4 327/16/4 332/58/4
f 322/45/4 330/60/4 329/65/4
f 224/66/4 230/68/4 267/67/4
f 309/3/4 322/45/4 321/69/4
f 318/12/4 319/18/4 327/16/4
f 191/70/4 235/72/4 168/71/4
f 322/45/4 315/10/4 323/48/4
f 307/6/4 301/4/4 319/18/4
f 235/72/4 185/74/4 237/73/4
f 288/37/4 289/51/4 295/21/4
f 295/21/4 289/51/4 290/33/4
f 265/8/4 281/32/4 242/23/4
f 299/75/4 293/53/4 300/29/4
f 303/1/4 299/75/4 304/28/4
f 301/4/4 286/56/4 297/44/4
f 286/56/4 274/62/4 278/63/4
f 297/44/4 286/56/4 294/47/4
f 303/1/4 296/20/4 299/75/4
f 293/53/4 296/20/4 292/76/4
f 296/20/4 293/53/4 299/75/4
f 301/4/4 274/62/4 286/56/4
f 274/62/4 268/78/4 269/77/4
f 268/78/4 241/80/4 220/79/4
f 241/80/4 237/73/4 169/81/4
f 237/73/4 168/71/4 235/72/4
f 230/68/4 273/5/4 267/67/4
f 237/73/4 230/68/4 168/71/4
f 268/78/4 273/5/4 230/68/4
f 301/4/4 268/78/4 274/62/4
f 293/53/4 285/54/4 300/29/4
f 277/30/4 300/29/4 285/54/4
f 273/5/4 277/30/4 272/82/4
f 237/73/4 241/80/4 230/68/4
f 301/4/4 273/5/4 268/78/4
f 277/30/4 273/5/4 307/6/4
f 241/80/4 268/78/4 230/68/4
f 198/83/4 185/74/4 235/72/4
