# Blender v2.76 (sub 0) OBJ File: ''
# www.blender.org
mtllib GiftBox_voxel.mtl
o Cube_Cube.002
v -0.500000 -0.500000 0.500000
v -0.500000 0.500000 0.500000
v -0.500000 -0.500000 -0.500000
v -0.500000 0.500000 -0.500000
v 0.500000 -0.500000 0.500000
v 0.500000 0.500000 0.500000
v 0.500000 -0.500000 -0.500000
v 0.500000 0.500000 -0.500000
v 0.314572 0.493905 -0.217655
v 0.282797 0.493905 -0.185880
v 0.251021 0.493905 -0.154104
v -0.047627 0.628718 -0.071443
v -0.015851 0.628718 -0.103219
v 0.015924 0.628718 -0.134994
v 0.123918 0.493905 -0.027001
v 0.092142 0.493905 0.004775
v 0.060366 0.493905 0.036551
v 0.015924 0.718594 -0.134994
v 0.143027 0.718594 -0.262097
v -0.015851 0.673656 -0.103219
v 0.015924 0.673656 -0.134994
v 0.143027 0.673656 -0.262097
v 0.174803 0.673656 -0.293873
v 0.314572 0.628718 -0.217655
v 0.282797 0.628718 -0.185880
v 0.251021 0.628718 -0.154104
v 0.143027 0.628718 -0.262097
v 0.174803 0.628718 -0.293873
v 0.206579 0.628718 -0.325649
v 0.123918 0.628718 -0.027001
v 0.092142 0.628718 0.004775
v 0.060366 0.628718 0.036551
v 0.282797 0.673656 -0.185880
v 0.251021 0.673656 -0.154104
v -0.047627 0.493905 -0.071443
v -0.015851 0.493905 -0.103219
v 0.015924 0.493905 -0.134994
v 0.123918 0.673656 -0.027001
v 0.092142 0.673656 0.004775
v 0.251021 0.718594 -0.154104
v 0.143027 0.493905 -0.262097
v 0.174803 0.493905 -0.293873
v 0.206579 0.493905 -0.325649
v 0.123918 0.718594 -0.027001
v -0.304323 0.493905 0.185253
v -0.272547 0.493905 0.153477
v -0.240772 0.493905 0.121702
v 0.057877 0.628718 0.039040
v 0.026101 0.628718 0.070816
v -0.005675 0.628718 0.102592
v -0.113669 0.493905 -0.005402
v -0.081893 0.493905 -0.037177
v -0.050117 0.493905 -0.068953
v -0.005675 0.718594 0.102592
v -0.132778 0.718594 0.229695
v 0.026101 0.673656 0.070816
v -0.005675 0.673656 0.102592
v -0.132778 0.673656 0.229695
v -0.164554 0.673656 0.261471
v -0.304323 0.628718 0.185253
v -0.272547 0.628718 0.153477
v -0.240772 0.628718 0.121702
v -0.132778 0.628718 0.229695
v -0.164554 0.628718 0.261471
v -0.196330 0.628718 0.293247
v -0.113669 0.628718 -0.005401
v -0.081893 0.628718 -0.037177
v -0.050117 0.628718 -0.068953
v -0.272547 0.673656 0.153477
v -0.240772 0.673656 0.121702
v 0.057877 0.493905 0.039040
v 0.026101 0.493905 0.070816
v -0.005675 0.493905 0.102592
v -0.113669 0.673656 -0.005401
v -0.081893 0.673656 -0.037177
v -0.240772 0.718594 0.121702
v -0.132778 0.493905 0.229695
v -0.164554 0.493905 0.261471
v -0.196330 0.493905 0.293247
v -0.113669 0.718594 -0.005401
v 0.206579 0.493905 0.293246
v 0.174803 0.493905 0.261471
v 0.143027 0.493905 0.229695
v 0.060366 0.628718 -0.068953
v 0.092142 0.628718 -0.037177
v 0.123918 0.628718 -0.005402
v 0.015924 0.493905 0.102592
v -0.015851 0.493905 0.070816
v -0.047627 0.493905 0.039040
v 0.123918 0.718594 -0.005402
v 0.251021 0.718594 0.121701
v 0.092142 0.673656 -0.037177
v 0.123918 0.673656 -0.005402
v 0.251021 0.673656 0.121701
v 0.282797 0.673656 0.153477
v 0.206579 0.628718 0.293246
v 0.174803 0.628718 0.261471
v 0.143027 0.628718 0.229695
v 0.251021 0.628718 0.121701
v 0.282797 0.628718 0.153477
v 0.314572 0.628718 0.185253
v 0.015924 0.628718 0.102592
v -0.015851 0.628718 0.070816
v -0.047627 0.628718 0.039040
v 0.174803 0.673656 0.261471
v 0.143027 0.673656 0.229695
v 0.060366 0.493905 -0.068953
v 0.092142 0.493905 -0.037177
v 0.123918 0.493905 -0.005402
v 0.015924 0.673656 0.102592
v -0.015851 0.673656 0.070816
v 0.143027 0.718594 0.229695
v 0.251021 0.493905 0.121701
v 0.282797 0.493905 0.153477
v 0.314572 0.493905 0.185253
v 0.015924 0.718594 0.102592
v -0.196330 0.493905 -0.325649
v -0.164554 0.493905 -0.293873
v -0.132778 0.493905 -0.262098
v -0.050117 0.628718 0.036551
v -0.081893 0.628718 0.004775
v -0.113668 0.628718 -0.027001
v -0.005675 0.493905 -0.134995
v 0.026101 0.493905 -0.103219
v 0.057877 0.493905 -0.071443
v -0.113668 0.718594 -0.027001
v -0.240772 0.718594 -0.154104
v -0.081893 0.673656 0.004775
v -0.113668 0.673656 -0.027001
v -0.240772 0.673656 -0.154104
v -0.272547 0.673656 -0.185880
v -0.196330 0.628718 -0.325649
v -0.164554 0.628718 -0.293873
v -0.132778 0.628718 -0.262097
v -0.240771 0.628718 -0.154104
v -0.272547 0.628718 -0.185880
v -0.304323 0.628718 -0.217655
v -0.005675 0.628718 -0.134995
v 0.026101 0.628718 -0.103219
v 0.057877 0.628718 -0.071443
v -0.164554 0.673656 -0.293873
v -0.132778 0.673656 -0.262097
v -0.050117 0.493905 0.036551
v -0.081893 0.493905 0.004775
v -0.113668 0.493905 -0.027001
v -0.005675 0.673656 -0.134995
v 0.026101 0.673656 -0.103219
v -0.132778 0.718594 -0.262097
v -0.240771 0.493905 -0.154104
v -0.272547 0.493905 -0.185880
v -0.304323 0.493905 -0.217655
v -0.005675 0.718594 -0.134995
v 0.514238 0.248152 0.514238
v 0.514238 0.248152 -0.514238
v -0.500000 0.250000 0.500000
v -0.500000 0.250000 -0.500000
v -0.514238 0.248152 -0.514238
v -0.514238 0.248152 0.514238
v 0.500000 0.250000 -0.500000
v 0.514238 0.505271 -0.514238
v 0.514238 0.505271 0.514238
v 0.500000 0.250000 0.500000
v -0.514238 0.505271 -0.514238
v -0.514238 0.505271 0.514238
vt 0.496161 0.501164
vt 0.496161 0.995497
vt 0.002803 0.995497
vt 0.002803 0.501164
vt 0.499435 0.499388
vt 0.003220 0.499388
vt 0.003220 0.375093
vt 0.499435 0.375093
vt 0.749949 0.687460
vt 0.749949 0.781191
vt 0.781193 0.781191
vt 0.781193 0.687460
vt 0.743748 0.648705
vt 0.774992 0.648705
vt 0.749949 0.812435
vt 0.749950 0.843679
vt 0.624975 0.843679
vt 0.624975 0.812435
vt 0.593731 0.687461
vt 0.593731 0.781192
vt 0.624975 0.781192
vt 0.624974 0.687461
vt 0.593731 0.812436
vt 0.562487 0.687461
vt 0.562487 0.781192
vt 0.781193 0.812435
vt 0.618774 0.648706
vt 0.812437 0.781191
vt 0.812436 0.687460
vt 0.797352 0.998268
vt 0.797352 0.911385
vt 0.778721 0.911385
vt 0.778721 0.998268
vt 0.666936 0.998268
vt 0.666936 0.911385
vt 0.648305 0.911385
vt 0.648305 0.998268
vt 0.629674 0.998268
vt 0.629674 0.911385
vt 0.611043 0.911385
vt 0.611043 0.998268
vt 0.592413 0.911385
vt 0.592413 0.998268
vt 0.815982 0.998268
vt 0.815982 0.911385
vt 0.741459 0.998268
vt 0.741459 0.911385
vt 0.587530 0.648706
vt 0.536520 0.911385
vt 0.536520 0.998268
vt 0.760090 0.911385
vt 0.760090 0.998268
vt 0.556286 0.648706
vt 0.871875 0.998268
vt 0.871875 0.911385
vt 0.806235 0.648705
vt 0.003220 0.002209
vt 0.499435 0.002209
vt 0.497642 0.497743
vt 0.001460 0.497743
vt 0.001460 0.374064
vt 0.497642 0.374064
vt 0.001460 0.003026
vt 0.497642 0.003026
vt 0.008542 0.504556
vt 0.491753 0.504556
vt 0.491753 0.987767
vt 0.008542 0.987767
vn 0.000000 1.000000 0.000000
vn 0.000000 0.000000 1.000000
vn 0.000000 0.000000 -1.000000
vn 0.000000 -1.000000 0.000000
vn -0.707100 0.000000 -0.707100
vn 0.707100 0.000000 0.707100
vn 0.707100 -0.000000 -0.707100
vn -0.707100 0.000000 0.707100
vn 1.000000 0.000000 0.000000
vn -1.000000 0.000000 0.000000
usemtl Material.001
s off
f 161/1/1 160/2/1 163/3/1 164/4/1
f 161/5/2 164/6/2 158/7/2 153/8/2
f 163/6/3 160/5/3 154/8/3 157/7/3
f 1/4/4 3/3/4 7/2/4 5/1/4
f 6/1/1 8/2/1 4/3/1 2/4/1
f 41/9/5 27/10/5 28/11/5 42/12/5
f 11/13/4 41/13/4 42/14/4 10/14/4
f 34/15/6 40/16/6 44/17/6 38/18/6
f 36/19/5 13/20/5 14/21/5 37/22/5
f 31/20/6 30/21/6 38/18/6 39/23/6
f 35/24/5 12/25/5 13/20/5 36/19/5
f 37/22/5 14/21/5 27/10/5 41/9/5
f 26/10/6 34/15/6 38/18/6 30/21/6
f 27/10/5 14/21/5 21/18/5 22/15/5
f 26/10/6 25/11/6 33/26/6 34/15/6
f 15/27/4 37/27/4 41/13/4 11/13/4
f 42/12/5 28/11/5 29/28/5 43/29/5
f 17/24/6 16/19/6 31/20/6 32/25/6
f 16/19/6 15/22/6 30/21/6 31/20/6
f 27/10/5 22/15/5 23/26/5 28/11/5
f 13/20/5 20/23/5 21/18/5 14/21/5
f 15/22/6 11/9/6 26/10/6 30/21/6
f 22/15/5 21/18/5 18/17/5 19/16/5
f 11/9/6 10/12/6 25/11/6 26/10/6
f 10/12/6 9/29/6 24/28/6 25/11/6
f 25/30/7 28/31/7 23/32/7 33/33/7
f 44/34/8 18/35/8 21/36/8 38/37/8
f 39/38/8 20/39/8 13/40/8 31/41/8
f 31/41/1 13/40/1 12/42/1 32/43/1
f 24/44/1 29/45/1 28/31/1 25/30/1
f 38/37/1 21/36/1 20/39/1 39/38/1
f 40/46/1 19/47/1 18/35/1 44/34/1
f 16/48/4 36/48/4 37/27/4 15/27/4
f 32/43/8 12/42/8 35/49/8 17/50/8
f 33/33/1 23/32/1 22/51/1 34/52/1
f 34/52/7 22/51/7 19/47/7 40/46/7
f 17/53/4 35/53/4 36/48/4 16/48/4
f 9/54/7 43/55/7 29/45/7 24/44/7
f 10/14/4 42/14/4 43/56/4 9/56/4
f 77/9/6 63/10/6 64/11/6 78/12/6
f 47/13/4 77/13/4 78/14/4 46/14/4
f 70/15/5 76/16/5 80/17/5 74/18/5
f 72/19/6 49/20/6 50/21/6 73/22/6
f 67/20/5 66/21/5 74/18/5 75/23/5
f 71/24/6 48/25/6 49/20/6 72/19/6
f 73/22/6 50/21/6 63/10/6 77/9/6
f 62/10/5 70/15/5 74/18/5 66/21/5
f 63/10/6 50/21/6 57/18/6 58/15/6
f 62/10/5 61/11/5 69/26/5 70/15/5
f 51/27/4 73/27/4 77/13/4 47/13/4
f 78/12/6 64/11/6 65/28/6 79/29/6
f 53/24/5 52/19/5 67/20/5 68/25/5
f 52/19/5 51/22/5 66/21/5 67/20/5
f 63/10/6 58/15/6 59/26/6 64/11/6
f 49/20/6 56/23/6 57/18/6 50/21/6
f 51/22/5 47/9/5 62/10/5 66/21/5
f 58/15/6 57/18/6 54/17/6 55/16/6
f 47/9/5 46/12/5 61/11/5 62/10/5
f 46/12/5 45/29/5 60/28/5 61/11/5
f 61/30/8 64/31/8 59/32/8 69/33/8
f 80/34/7 54/35/7 57/36/7 74/37/7
f 75/38/7 56/39/7 49/40/7 67/41/7
f 67/41/1 49/40/1 48/42/1 68/43/1
f 60/44/1 65/45/1 64/31/1 61/30/1
f 74/37/1 57/36/1 56/39/1 75/38/1
f 76/46/1 55/47/1 54/35/1 80/34/1
f 52/48/4 72/48/4 73/27/4 51/27/4
f 68/43/7 48/42/7 71/49/7 53/50/7
f 69/33/1 59/32/1 58/51/1 70/52/1
f 70/52/8 58/51/8 55/47/8 76/46/8
f 53/53/4 71/53/4 72/48/4 52/48/4
f 45/54/8 79/55/8 65/45/8 60/44/8
f 46/14/4 78/14/4 79/56/4 45/56/4
f 113/9/7 99/10/7 100/11/7 114/12/7
f 83/13/4 113/13/4 114/14/4 82/14/4
f 106/15/8 112/16/8 116/17/8 110/18/8
f 108/19/7 85/20/7 86/21/7 109/22/7
f 103/20/8 102/21/8 110/18/8 111/23/8
f 107/24/7 84/25/7 85/20/7 108/19/7
f 109/22/7 86/21/7 99/10/7 113/9/7
f 98/10/8 106/15/8 110/18/8 102/21/8
f 99/10/7 86/21/7 93/18/7 94/15/7
f 98/10/8 97/11/8 105/26/8 106/15/8
f 87/27/4 109/27/4 113/13/4 83/13/4
f 114/12/7 100/11/7 101/28/7 115/29/7
f 89/24/8 88/19/8 103/20/8 104/25/8
f 88/19/8 87/22/8 102/21/8 103/20/8
f 99/10/7 94/15/7 95/26/7 100/11/7
f 85/20/7 92/23/7 93/18/7 86/21/7
f 87/22/8 83/9/8 98/10/8 102/21/8
f 94/15/7 93/18/7 90/17/7 91/16/7
f 83/9/8 82/12/8 97/11/8 98/10/8
f 82/12/8 81/29/8 96/28/8 97/11/8
f 97/30/6 100/31/6 95/32/6 105/33/6
f 116/34/5 90/35/5 93/36/5 110/37/5
f 111/38/5 92/39/5 85/40/5 103/41/5
f 103/41/1 85/40/1 84/42/1 104/43/1
f 96/44/1 101/45/1 100/31/1 97/30/1
f 110/37/1 93/36/1 92/39/1 111/38/1
f 112/46/1 91/47/1 90/35/1 116/34/1
f 88/48/4 108/48/4 109/27/4 87/27/4
f 104/43/5 84/42/5 107/49/5 89/50/5
f 105/33/1 95/32/1 94/51/1 106/52/1
f 106/52/6 94/51/6 91/47/6 112/46/6
f 89/53/4 107/53/4 108/48/4 88/48/4
f 81/54/6 115/55/6 101/45/6 96/44/6
f 82/14/4 114/14/4 115/56/4 81/56/4
f 149/9/8 135/10/8 136/11/8 150/12/8
f 119/13/4 149/13/4 150/14/4 118/14/4
f 142/15/7 148/16/7 152/17/7 146/18/7
f 144/19/8 121/20/8 122/21/8 145/22/8
f 139/20/7 138/21/7 146/18/7 147/23/7
f 143/24/8 120/25/8 121/20/8 144/19/8
f 145/22/8 122/21/8 135/10/8 149/9/8
f 134/10/7 142/15/7 146/18/7 138/21/7
f 135/10/8 122/21/8 129/18/8 130/15/8
f 134/10/7 133/11/7 141/26/7 142/15/7
f 123/27/4 145/27/4 149/13/4 119/13/4
f 150/12/8 136/11/8 137/28/8 151/29/8
f 125/24/7 124/19/7 139/20/7 140/25/7
f 124/19/7 123/22/7 138/21/7 139/20/7
f 135/10/8 130/15/8 131/26/8 136/11/8
f 121/20/8 128/23/8 129/18/8 122/21/8
f 123/22/7 119/9/7 134/10/7 138/21/7
f 130/15/8 129/18/8 126/17/8 127/16/8
f 119/9/7 118/12/7 133/11/7 134/10/7
f 118/12/7 117/29/7 132/28/7 133/11/7
f 133/30/5 136/31/5 131/32/5 141/33/5
f 152/34/6 126/35/6 129/36/6 146/37/6
f 147/38/6 128/39/6 121/40/6 139/41/6
f 139/41/1 121/40/1 120/42/1 140/43/1
f 132/44/1 137/45/1 136/31/1 133/30/1
f 146/37/1 129/36/1 128/39/1 147/38/1
f 148/46/1 127/47/1 126/35/1 152/34/1
f 124/48/4 144/48/4 145/27/4 123/27/4
f 140/43/6 120/42/6 143/49/6 125/50/6
f 141/33/1 131/32/1 130/51/1 142/52/1
f 142/52/5 130/51/5 127/47/5 148/46/5
f 125/53/4 143/53/4 144/48/4 124/48/4
f 117/54/5 151/55/5 137/45/5 132/44/5
f 118/14/4 150/14/4 151/56/4 117/56/4
f 6/5/2 2/6/2 155/7/2 162/8/2
f 162/8/2 155/7/2 1/57/2 5/58/2
f 8/59/9 6/60/9 162/61/9 159/62/9
f 159/62/9 162/61/9 5/63/9 7/64/9
f 4/6/3 8/5/3 159/8/3 156/7/3
f 164/60/10 163/59/10 157/62/10 158/61/10
f 156/7/3 159/8/3 7/58/3 3/57/3
f 2/60/10 4/59/10 156/62/10 155/61/10
f 160/59/9 161/60/9 153/61/9 154/62/9
f 155/61/10 156/62/10 3/64/10 1/63/10
usemtl Material.001_NONE
f 157/65/4 154/66/4 153/67/4 158/68/4
