# Blender v2.76 (sub 0) OBJ File: ''
# www.blender.org
o Cube.001_Cube.000
v -0.500000 0.500000 0.500000
v 0.500000 0.500000 0.500000
v -0.500000 -0.500000 0.500000
v 0.500000 -0.500000 0.500000
v -0.366667 0.366667 0.500000
v 0.366667 0.366667 0.500000
v -0.366667 -0.366667 0.500000
v 0.366667 -0.366667 0.500000
v 0.366667 0.500000 0.366667
v -0.366667 0.500000 0.366667
v 0.366667 0.500000 -0.366667
v -0.366667 0.500000 -0.366667
v -0.130275 -0.129174 0.500000
v -0.066556 -0.129174 0.500000
v -0.066556 -0.065455 0.500000
v -0.130275 -0.065455 0.500000
v -0.066582 -0.065481 0.500000
v -0.002863 -0.065481 0.500000
v -0.002863 -0.001762 0.500000
v -0.066582 -0.001762 0.500000
v -0.001420 0.000048 0.500000
v 0.062299 0.000048 0.500000
v 0.062299 0.063768 0.500000
v -0.001420 0.063768 0.500000
v 0.062006 0.064309 0.500000
v 0.125725 0.064309 0.500000
v 0.125725 0.128028 0.500000
v 0.062006 0.128028 0.500000
v 0.500000 0.500000 0.500000
v -0.500000 0.500000 0.500000
v 0.500000 0.500000 -0.500000
v -0.500000 0.500000 -0.500000
v 0.200475 -0.193194 0.500000
v 0.264195 -0.193194 0.500000
v 0.264195 -0.129475 0.500000
v 0.200475 -0.129475 0.500000
v 0.135580 -0.256647 0.500000
v 0.199300 -0.256647 0.500000
v 0.199300 -0.192928 0.500000
v 0.135580 -0.192928 0.500000
v -0.192740 0.195214 0.500000
v -0.129021 0.195214 0.500000
v -0.129021 0.258933 0.500000
v -0.192740 0.258933 0.500000
v -0.257635 0.131761 0.500000
v -0.193916 0.131761 0.500000
v -0.193916 0.195480 0.500000
v -0.257635 0.195480 0.500000
v -0.130275 0.500000 0.129174
v -0.066556 0.500000 0.129174
v -0.066556 0.500000 0.065455
v -0.130275 0.500000 0.065455
v -0.066582 0.500000 0.065481
v -0.002863 0.500000 0.065481
v -0.002863 0.500000 0.001762
v -0.066582 0.500000 0.001762
v -0.001420 0.500000 -0.000048
v 0.062299 0.500000 -0.000048
v 0.062299 0.500000 -0.063768
v -0.001420 0.500000 -0.063768
v 0.062006 0.500000 -0.064309
v 0.125725 0.500000 -0.064309
v 0.125725 0.500000 -0.128028
v 0.062006 0.500000 -0.128028
v 0.200475 0.500000 0.193194
v 0.264195 0.500000 0.193194
v 0.264195 0.500000 0.129475
v 0.200475 0.500000 0.129475
v 0.135580 0.500000 0.256647
v 0.199300 0.500000 0.256647
v 0.199300 0.500000 0.192928
v 0.135580 0.500000 0.192928
v -0.192740 0.500000 -0.195214
v -0.129021 0.500000 -0.195214
v -0.129021 0.500000 -0.258933
v -0.192740 0.500000 -0.258933
v -0.257635 0.500000 -0.131761
v -0.193916 0.500000 -0.131761
v -0.193916 0.500000 -0.195480
v -0.257635 0.500000 -0.195480
v 0.366667 0.366667 -0.500000
v -0.366667 0.366667 -0.500000
v 0.366667 -0.366667 -0.500000
v -0.366667 -0.366667 -0.500000
v 0.500000 0.500000 -0.500000
v -0.500000 0.500000 -0.500000
v 0.500000 -0.500000 -0.500000
v -0.500000 -0.500000 -0.500000
v -0.130275 0.129174 -0.500000
v -0.066556 0.129174 -0.500000
v -0.066556 0.065455 -0.500000
v -0.130275 0.065455 -0.500000
v -0.066582 0.065481 -0.500000
v -0.002863 0.065481 -0.500000
v -0.002863 0.001762 -0.500000
v -0.066582 0.001762 -0.500000
v -0.001420 -0.000048 -0.500000
v 0.062299 -0.000048 -0.500000
v 0.062299 -0.063768 -0.500000
v -0.001420 -0.063768 -0.500000
v 0.062006 -0.064309 -0.500000
v 0.125725 -0.064309 -0.500000
v 0.125725 -0.128028 -0.500000
v 0.062006 -0.128028 -0.500000
v 0.200475 0.193194 -0.500000
v 0.264195 0.193194 -0.500000
v 0.264195 0.129475 -0.500000
v 0.200475 0.129475 -0.500000
v 0.135580 0.256647 -0.500000
v 0.199300 0.256647 -0.500000
v 0.199300 0.192928 -0.500000
v 0.135580 0.192928 -0.500000
v -0.192740 -0.195214 -0.500000
v -0.129021 -0.195214 -0.500000
v -0.129021 -0.258933 -0.500000
v -0.192740 -0.258933 -0.500000
v -0.257635 -0.131761 -0.500000
v -0.193916 -0.131761 -0.500000
v -0.193916 -0.195480 -0.500000
v -0.257635 -0.195480 -0.500000
v 0.366667 -0.500000 -0.366667
v -0.366667 -0.500000 -0.366667
v 0.366667 -0.500000 0.366667
v -0.366667 -0.500000 0.366667
v 0.500000 -0.500000 -0.500000
v -0.500000 -0.500000 -0.500000
v 0.500000 -0.500000 0.500000
v -0.500000 -0.500000 0.500000
v -0.130275 -0.500000 -0.129174
v -0.066556 -0.500000 -0.129174
v -0.066556 -0.500000 -0.065455
v -0.130275 -0.500000 -0.065455
v -0.066582 -0.500000 -0.065481
v -0.002863 -0.500000 -0.065481
v -0.002863 -0.500000 -0.001762
v -0.066582 -0.500000 -0.001762
v -0.001420 -0.500000 0.000048
v 0.062299 -0.500000 0.000048
v 0.062299 -0.500000 0.063768
v -0.001420 -0.500000 0.063768
v 0.062006 -0.500000 0.064309
v 0.125725 -0.500000 0.064309
v 0.125725 -0.500000 0.128028
v 0.062006 -0.500000 0.128028
v 0.200475 -0.500000 -0.193194
v 0.264195 -0.500000 -0.193194
v 0.264195 -0.500000 -0.129475
v 0.200475 -0.500000 -0.129475
v 0.135580 -0.500000 -0.256647
v 0.199300 -0.500000 -0.256647
v 0.199300 -0.500000 -0.192928
v 0.135580 -0.500000 -0.192928
v -0.192740 -0.500000 0.195214
v -0.129021 -0.500000 0.195214
v -0.129021 -0.500000 0.258933
v -0.192740 -0.500000 0.258933
v -0.257635 -0.500000 0.131761
v -0.193916 -0.500000 0.131761
v -0.193916 -0.500000 0.195480
v -0.257635 -0.500000 0.195480
v -0.500000 -0.366667 -0.366667
v -0.500000 0.366667 -0.366667
v -0.500000 -0.366667 0.366667
v -0.500000 0.366667 0.366667
v -0.500000 -0.500000 -0.500000
v -0.500000 0.500000 -0.500000
v -0.500000 -0.500000 0.500000
v -0.500000 0.500000 0.500000
v -0.500000 0.130275 -0.129174
v -0.500000 0.066556 -0.129174
v -0.500000 0.066556 -0.065455
v -0.500000 0.130275 -0.065455
v -0.500000 0.066582 -0.065481
v -0.500000 0.002863 -0.065481
v -0.500000 0.002863 -0.001762
v -0.500000 0.066582 -0.001762
v -0.500000 0.001420 0.000048
v -0.500000 -0.062299 0.000048
v -0.500000 -0.062299 0.063768
v -0.500000 0.001420 0.063768
v -0.500000 -0.062006 0.064309
v -0.500000 -0.125725 0.064309
v -0.500000 -0.125725 0.128028
v -0.500000 -0.062006 0.128028
v -0.500000 -0.200475 -0.193194
v -0.500000 -0.264195 -0.193194
v -0.500000 -0.264195 -0.129475
v -0.500000 -0.200475 -0.129475
v -0.500000 -0.135580 -0.256647
v -0.500000 -0.199300 -0.256647
v -0.500000 -0.199300 -0.192928
v -0.500000 -0.135580 -0.192928
v -0.500000 0.192740 0.195214
v -0.500000 0.129021 0.195214
v -0.500000 0.129021 0.258933
v -0.500000 0.192740 0.258933
v -0.500000 0.257635 0.131761
v -0.500000 0.193916 0.131761
v -0.500000 0.193916 0.195480
v -0.500000 0.257635 0.195480
v 0.500000 0.366667 -0.366667
v 0.500000 -0.366667 -0.366667
v 0.500000 0.366667 0.366667
v 0.500000 -0.366667 0.366667
v 0.500000 0.500000 -0.500000
v 0.500000 -0.500000 -0.500000
v 0.500000 0.500000 0.500000
v 0.500000 -0.500000 0.500000
v 0.500000 -0.130275 -0.129174
v 0.500000 -0.066556 -0.129174
v 0.500000 -0.066556 -0.065455
v 0.500000 -0.130275 -0.065455
v 0.500000 -0.066582 -0.065481
v 0.500000 -0.002863 -0.065481
v 0.500000 -0.002863 -0.001762
v 0.500000 -0.066582 -0.001762
v 0.500000 -0.001420 0.000048
v 0.500000 0.062299 0.000048
v 0.500000 0.062299 0.063768
v 0.500000 -0.001420 0.063768
v 0.500000 0.062006 0.064309
v 0.500000 0.125725 0.064309
v 0.500000 0.125725 0.128028
v 0.500000 0.062006 0.128028
v 0.500000 0.200475 -0.193194
v 0.500000 0.264195 -0.193194
v 0.500000 0.264195 -0.129475
v 0.500000 0.200475 -0.129475
v 0.500000 0.135580 -0.256647
v 0.500000 0.199300 -0.256647
v 0.500000 0.199300 -0.192928
v 0.500000 0.135580 -0.192928
v 0.500000 -0.192740 0.195214
v 0.500000 -0.129021 0.195214
v 0.500000 -0.129021 0.258933
v 0.500000 -0.192740 0.258933
v 0.500000 -0.257635 0.131761
v 0.500000 -0.193916 0.131761
v 0.500000 -0.193916 0.195480
v 0.500000 -0.257635 0.195480
vt 0.124179 0.875821
vt 0.877667 0.875821
vt 0.999822 0.999675
vt 0.000128 0.999140
vt 0.877667 0.123153
vt 0.124179 0.123153
vt 0.000128 -0.000141
vt 1.000520 0.000100
vt 0.999900 0.000729
vt 0.250999 0.250985
vt 0.311552 0.250985
vt 0.311552 0.311538
vt 0.250999 0.311538
vn 0.000000 -0.000000 1.000000
vn -0.000000 1.000000 0.000000
vn -0.000000 0.000000 -1.000000
vn -0.000000 -1.000000 -0.000000
vn -1.000000 -0.000000 -0.000000
vn 1.000000 -0.000000 -0.000000
s 1
f 5/1/1 6/2/1 2/3/1 1/4/1
f 8/5/1 7/6/1 3/7/1 4/8/1
f 3/7/1 7/6/1 5/1/1 1/4/1
f 6/2/1 8/5/1 4/9/1 2/3/1
f 9/5/2 10/6/2 30/7/2 29/8/2
f 13/10/1 14/11/1 15/12/1 16/13/1
f 17/10/1 18/11/1 19/12/1 20/13/1
f 21/10/1 22/11/1 23/12/1 24/13/1
f 25/10/1 26/11/1 27/12/1 28/13/1
f 12/1/2 11/2/2 31/3/2 32/4/2
f 33/10/1 34/11/1 35/12/1 36/13/1
f 37/10/1 38/11/1 39/12/1 40/13/1
f 41/10/1 42/11/1 43/12/1 44/13/1
f 45/10/1 46/11/1 47/12/1 48/13/1
f 30/7/2 10/6/2 12/1/2 32/4/2
f 11/2/2 9/5/2 29/9/2 31/3/2
f 49/10/2 50/11/2 51/12/2 52/13/2
f 53/10/2 54/11/2 55/12/2 56/13/2
f 57/10/2 58/11/2 59/12/2 60/13/2
f 61/10/2 62/11/2 63/12/2 64/13/2
f 65/10/2 66/11/2 67/12/2 68/13/2
f 69/10/2 70/11/2 71/12/2 72/13/2
f 73/10/2 74/11/2 75/12/2 76/13/2
f 77/10/2 78/11/2 79/12/2 80/13/2
f 81/5/3 82/6/3 86/7/3 85/8/3
f 84/1/3 83/2/3 87/3/3 88/4/3
f 86/7/3 82/6/3 84/1/3 88/4/3
f 83/2/3 81/5/3 85/9/3 87/3/3
f 89/10/3 90/11/3 91/12/3 92/13/3
f 93/10/3 94/11/3 95/12/3 96/13/3
f 97/10/3 98/11/3 99/12/3 100/13/3
f 101/10/3 102/11/3 103/12/3 104/13/3
f 105/10/3 106/11/3 107/12/3 108/13/3
f 109/10/3 110/11/3 111/12/3 112/13/3
f 113/10/3 114/11/3 115/12/3 116/13/3
f 117/10/3 118/11/3 119/12/3 120/13/3
f 121/5/4 122/6/4 126/7/4 125/8/4
f 124/1/4 123/2/4 127/3/4 128/4/4
f 126/7/4 122/6/4 124/1/4 128/4/4
f 123/2/4 121/5/4 125/9/4 127/3/4
f 129/10/4 130/11/4 131/12/4 132/13/4
f 133/10/4 134/11/4 135/12/4 136/13/4
f 137/10/4 138/11/4 139/12/4 140/13/4
f 141/10/4 142/11/4 143/12/4 144/13/4
f 145/10/4 146/11/4 147/12/4 148/13/4
f 149/10/4 150/11/4 151/12/4 152/13/4
f 153/10/4 154/11/4 155/12/4 156/13/4
f 157/10/4 158/11/4 159/12/4 160/13/4
f 161/5/5 162/6/5 166/7/5 165/8/5
f 164/1/5 163/2/5 167/3/5 168/4/5
f 166/7/5 162/6/5 164/1/5 168/4/5
f 163/2/5 161/5/5 165/9/5 167/3/5
f 169/10/5 170/11/5 171/12/5 172/13/5
f 173/10/5 174/11/5 175/12/5 176/13/5
f 177/10/5 178/11/5 179/12/5 180/13/5
f 181/10/5 182/11/5 183/12/5 184/13/5
f 185/10/5 186/11/5 187/12/5 188/13/5
f 189/10/5 190/11/5 191/12/5 192/13/5
f 193/10/5 194/11/5 195/12/5 196/13/5
f 197/10/5 198/11/5 199/12/5 200/13/5
f 201/5/6 202/6/6 206/7/6 205/8/6
f 204/1/6 203/2/6 207/3/6 208/4/6
f 206/7/6 202/6/6 204/1/6 208/4/6
f 203/2/6 201/5/6 205/9/6 207/3/6
f 209/10/6 210/11/6 211/12/6 212/13/6
f 213/10/6 214/11/6 215/12/6 216/13/6
f 217/10/6 218/11/6 219/12/6 220/13/6
f 221/10/6 222/11/6 223/12/6 224/13/6
f 225/10/6 226/11/6 227/12/6 228/13/6
f 229/10/6 230/11/6 231/12/6 232/13/6
f 233/10/6 234/11/6 235/12/6 236/13/6
f 237/10/6 238/11/6 239/12/6 240/13/6
