# Blender v2.76 (sub 0) OBJ File: ''
# www.blender.org
o grass_Plane.005
v -0.287262 -0.437500 0.287262
v -0.265165 -0.312500 0.265165
v -0.287262 -0.343750 0.287262
v -0.176777 -0.437500 0.176777
v -0.176777 -0.406250 0.176777
v -0.154680 -0.437500 0.154680
v 0.198874 -0.500000 -0.198874
v 0.220971 -0.343750 -0.220971
v 0.243068 -0.375000 -0.243068
v -0.220971 -0.406250 0.220971
v -0.220971 -0.437500 0.220971
v -0.309359 -0.468750 0.309359
v -0.287262 -0.500000 0.287262
v 0.000000 -0.406250 -0.000000
v 0.331456 -0.468750 -0.331456
v -0.265165 -0.343750 0.265165
v -0.088388 -0.500000 0.088388
v -0.088388 -0.437500 0.088388
v -0.110485 -0.468750 0.110485
v -0.044194 -0.468750 0.044194
v -0.044194 -0.500000 0.044194
v 0.220971 -0.406250 -0.220971
v 0.287262 -0.437500 -0.287262
v 0.176777 -0.468750 -0.176777
v 0.154680 -0.468750 -0.154680
v 0.066291 -0.468750 -0.066291
v 0.088388 -0.437500 -0.088388
v 0.044194 -0.375000 -0.044194
v 0.088388 -0.468750 -0.088388
v 0.154680 -0.500000 -0.154680
v 0.022097 -0.500000 -0.022097
v -0.022097 -0.343750 0.022097
v -0.022097 -0.375000 0.022097
v 0.022097 -0.343750 -0.022097
v 0.331456 -0.500000 -0.331456
v 0.000000 -0.468750 -0.000000
v -0.287262 -0.406250 0.287262
v -0.243068 -0.468750 0.243068
v -0.220971 -0.500000 0.220971
v -0.265165 -0.500000 0.265165
v -0.265165 -0.437500 0.265165
v -0.287262 -0.468750 0.287262
v -0.287262 -0.312500 0.287262
v -0.154680 -0.500000 0.154680
v -0.198874 -0.500000 0.198874
v 0.176777 -0.500000 -0.176777
v 0.198874 -0.468750 -0.198874
v 0.265165 -0.437500 -0.265165
v 0.265165 -0.375000 -0.265165
v 0.243068 -0.406250 -0.243068
v -0.198874 -0.437500 0.198874
v 0.243068 -0.343750 -0.243068
v -0.331456 -0.500000 0.331456
v 0.000000 -0.375000 -0.000000
v 0.309359 -0.500000 -0.309359
v 0.309359 -0.468750 -0.309359
v -0.066291 -0.468750 0.066291
v -0.088388 -0.468750 0.088388
v -0.110485 -0.437500 0.110485
v -0.243068 -0.437500 0.243068
v -0.265165 -0.468750 0.265165
v 0.000000 -0.500000 -0.000000
v -0.309359 -0.406250 0.309359
v -0.309359 -0.343750 0.309359
v 0.287262 -0.500000 -0.287262
v 0.243068 -0.500000 -0.243068
v -0.331456 -0.406250 0.331456
v 0.176777 -0.437500 -0.176777
v 0.044194 -0.406250 -0.044194
v 0.066291 -0.406250 -0.066291
v -0.066291 -0.500000 0.066291
v 0.022097 -0.406250 -0.022097
v 0.044194 -0.406250 -0.044194
v 0.022097 -0.375000 -0.022097
v 0.243068 -0.406250 -0.243068
v 0.088388 -0.468750 -0.088388
v -0.287262 -0.437500 0.287262
v -0.265165 -0.312500 0.265165
v -0.287262 -0.343750 0.287262
v -0.176777 -0.437500 0.176777
v -0.176777 -0.406250 0.176777
v -0.154680 -0.437500 0.154680
v 0.198874 -0.500000 -0.198874
v 0.220971 -0.343750 -0.220971
v 0.243068 -0.375000 -0.243068
v -0.220971 -0.406250 0.220971
v -0.220971 -0.437500 0.220971
v -0.309359 -0.468750 0.309359
v -0.287262 -0.500000 0.287262
v 0.000000 -0.406250 -0.000000
v 0.331456 -0.468750 -0.331456
v -0.265165 -0.343750 0.265165
v -0.088388 -0.500000 0.088388
v -0.088388 -0.437500 0.088388
v -0.110485 -0.468750 0.110485
v -0.044194 -0.468750 0.044194
v -0.044194 -0.500000 0.044194
v 0.220971 -0.406250 -0.220971
v 0.287262 -0.437500 -0.287262
v 0.176777 -0.468750 -0.176777
v 0.154680 -0.468750 -0.154680
v 0.066291 -0.468750 -0.066291
v 0.088388 -0.437500 -0.088388
v 0.044194 -0.375000 -0.044194
v 0.088388 -0.468750 -0.088388
v 0.154680 -0.500000 -0.154680
v 0.022097 -0.500000 -0.022097
v -0.022097 -0.343750 0.022097
v -0.022097 -0.375000 0.022097
v 0.022097 -0.343750 -0.022097
v 0.331456 -0.500000 -0.331456
v 0.000000 -0.468750 -0.000000
v -0.287262 -0.406250 0.287262
v -0.243068 -0.468750 0.243068
v -0.220971 -0.500000 0.220971
v -0.265165 -0.500000 0.265165
v -0.265165 -0.437500 0.265165
v -0.287262 -0.468750 0.287262
v -0.287262 -0.312500 0.287262
v -0.154680 -0.500000 0.154680
v -0.198874 -0.500000 0.198874
v 0.176777 -0.500000 -0.176777
v 0.198874 -0.468750 -0.198874
v 0.265165 -0.437500 -0.265165
v 0.265165 -0.375000 -0.265165
v 0.243068 -0.406250 -0.243068
v -0.198874 -0.437500 0.198874
v 0.243068 -0.343750 -0.243068
v -0.331456 -0.500000 0.331456
v 0.000000 -0.375000 -0.000000
v 0.309359 -0.500000 -0.309359
v 0.309359 -0.468750 -0.309359
v -0.066291 -0.468750 0.066291
v -0.088388 -0.468750 0.088388
v -0.110485 -0.437500 0.110485
v -0.243068 -0.437500 0.243068
v -0.265165 -0.468750 0.265165
v 0.000000 -0.500000 -0.000000
v -0.309359 -0.406250 0.309359
v -0.309359 -0.343750 0.309359
v 0.287262 -0.500000 -0.287262
v 0.243068 -0.500000 -0.243068
v -0.331456 -0.406250 0.331456
v 0.176777 -0.437500 -0.176777
v 0.044194 -0.406250 -0.044194
v 0.066291 -0.406250 -0.066291
v -0.066291 -0.500000 0.066291
v 0.022097 -0.406250 -0.022097
v 0.044194 -0.406250 -0.044194
v 0.022097 -0.375000 -0.022097
v 0.243068 -0.406250 -0.243068
v 0.088388 -0.468750 -0.088388
v -0.287262 -0.437500 -0.287262
v -0.265165 -0.312500 -0.265165
v -0.287262 -0.343750 -0.287262
v -0.176777 -0.437500 -0.176777
v -0.176777 -0.406250 -0.176777
v -0.154680 -0.437500 -0.154680
v 0.198874 -0.500000 0.198874
v 0.220971 -0.343750 0.220971
v 0.243068 -0.375000 0.243068
v -0.220971 -0.406250 -0.220971
v -0.220971 -0.437500 -0.220971
v -0.309359 -0.468750 -0.309359
v -0.287262 -0.500000 -0.287262
v 0.000000 -0.406250 0.000000
v 0.331456 -0.468750 0.331456
v -0.265165 -0.343750 -0.265165
v -0.088388 -0.500000 -0.088388
v -0.088388 -0.437500 -0.088388
v -0.110485 -0.468750 -0.110485
v -0.044194 -0.468750 -0.044194
v -0.044194 -0.500000 -0.044194
v 0.220971 -0.406250 0.220971
v 0.287262 -0.437500 0.287262
v 0.176777 -0.468750 0.176777
v 0.154680 -0.468750 0.154680
v 0.066291 -0.468750 0.066291
v 0.088388 -0.437500 0.088388
v 0.044194 -0.375000 0.044194
v 0.088388 -0.468750 0.088388
v 0.154680 -0.500000 0.154680
v 0.022097 -0.500000 0.022097
v -0.022097 -0.343750 -0.022097
v -0.022097 -0.375000 -0.022097
v 0.022097 -0.343750 0.022097
v 0.331456 -0.500000 0.331456
v 0.000000 -0.468750 0.000000
v -0.287262 -0.406250 -0.287262
v -0.243068 -0.468750 -0.243068
v -0.220971 -0.500000 -0.220971
v -0.265165 -0.500000 -0.265165
v -0.265165 -0.437500 -0.265165
v -0.287262 -0.468750 -0.287262
v -0.287262 -0.312500 -0.287262
v -0.154680 -0.500000 -0.154680
v -0.198874 -0.500000 -0.198874
v 0.176777 -0.500000 0.176777
v 0.198874 -0.468750 0.198874
v 0.265165 -0.437500 0.265165
v 0.265165 -0.375000 0.265165
v 0.243068 -0.406250 0.243068
v -0.198874 -0.437500 -0.198874
v 0.243068 -0.343750 0.243068
v -0.331456 -0.500000 -0.331456
v 0.000000 -0.375000 0.000000
v 0.309359 -0.500000 0.309359
v 0.309359 -0.468750 0.309359
v -0.066291 -0.468750 -0.066291
v -0.088388 -0.468750 -0.088388
v -0.110485 -0.437500 -0.110485
v -0.243068 -0.437500 -0.243068
v -0.265165 -0.468750 -0.265165
v 0.000000 -0.500000 0.000000
v -0.309359 -0.406250 -0.309359
v -0.309359 -0.343750 -0.309359
v 0.287262 -0.500000 0.287262
v 0.243068 -0.500000 0.243068
v -0.331456 -0.406250 -0.331456
v 0.176777 -0.437500 0.176777
v 0.044194 -0.406250 0.044194
v 0.066291 -0.406250 0.066291
v -0.066291 -0.500000 -0.066291
v 0.022097 -0.406250 0.022097
v 0.044194 -0.406250 0.044194
v 0.022097 -0.375000 0.022097
v 0.243068 -0.406250 0.243068
v 0.088388 -0.468750 0.088388
v -0.287262 -0.437500 -0.287262
v -0.265165 -0.312500 -0.265165
v -0.287262 -0.343750 -0.287262
v -0.176777 -0.437500 -0.176777
v -0.176777 -0.406250 -0.176777
v -0.154680 -0.437500 -0.154680
v 0.198874 -0.500000 0.198874
v 0.220971 -0.343750 0.220971
v 0.243068 -0.375000 0.243068
v -0.220971 -0.406250 -0.220971
v -0.220971 -0.437500 -0.220971
v -0.309359 -0.468750 -0.309359
v -0.287262 -0.500000 -0.287262
v 0.000000 -0.406250 0.000000
v 0.331456 -0.468750 0.331456
v -0.265165 -0.343750 -0.265165
v -0.088388 -0.500000 -0.088388
v -0.088388 -0.437500 -0.088388
v -0.110485 -0.468750 -0.110485
v -0.044194 -0.468750 -0.044194
v -0.044194 -0.500000 -0.044194
v 0.220971 -0.406250 0.220971
v 0.287262 -0.437500 0.287262
v 0.176777 -0.468750 0.176777
v 0.154680 -0.468750 0.154680
v 0.066291 -0.468750 0.066291
v 0.088388 -0.437500 0.088388
v 0.044194 -0.375000 0.044194
v 0.088388 -0.468750 0.088388
v 0.154680 -0.500000 0.154680
v 0.022097 -0.500000 0.022097
v -0.022097 -0.343750 -0.022097
v -0.022097 -0.375000 -0.022097
v 0.022097 -0.343750 0.022097
v 0.331456 -0.500000 0.331456
v 0.000000 -0.468750 0.000000
v -0.287262 -0.406250 -0.287262
v -0.243068 -0.468750 -0.243068
v -0.220971 -0.500000 -0.220971
v -0.265165 -0.500000 -0.265165
v -0.265165 -0.437500 -0.265165
v -0.287262 -0.468750 -0.287262
v -0.287262 -0.312500 -0.287262
v -0.154680 -0.500000 -0.154680
v -0.198874 -0.500000 -0.198874
v 0.176777 -0.500000 0.176777
v 0.198874 -0.468750 0.198874
v 0.265165 -0.437500 0.265165
v 0.265165 -0.375000 0.265165
v 0.243068 -0.406250 0.243068
v -0.198874 -0.437500 -0.198874
v 0.243068 -0.343750 0.243068
v -0.331456 -0.500000 -0.331456
v 0.000000 -0.375000 0.000000
v 0.309359 -0.500000 0.309359
v 0.309359 -0.468750 0.309359
v -0.066291 -0.468750 -0.066291
v -0.088388 -0.468750 -0.088388
v -0.110485 -0.437500 -0.110485
v -0.243068 -0.437500 -0.243068
v -0.265165 -0.468750 -0.265165
v 0.000000 -0.500000 0.000000
v -0.309359 -0.406250 -0.309359
v -0.309359 -0.343750 -0.309359
v 0.287262 -0.500000 0.287262
v 0.243068 -0.500000 0.243068
v -0.331456 -0.406250 -0.331456
v 0.176777 -0.437500 0.176777
v 0.044194 -0.406250 0.044194
v 0.066291 -0.406250 0.066291
v -0.066291 -0.500000 -0.066291
v 0.022097 -0.406250 0.022097
v 0.044194 -0.406250 0.044194
v 0.022097 -0.375000 0.022097
v 0.243068 -0.406250 0.243068
v 0.088388 -0.468750 0.088388
vt 0.593750 0.000000
vt 0.625000 0.000000
vt 0.593750 0.031250
vt 0.031250 0.000000
vt 0.062500 0.000000
vt 0.031250 0.031250
vt 0.500000 0.031250
vt 0.500000 0.000000
vt 0.562500 0.031250
vt 0.625000 0.031250
vt 0.656250 0.031250
vt 0.625000 0.062500
vt 0.406250 0.031250
vt 0.437500 0.093750
vt 0.406250 0.093750
vt 0.906250 0.000000
vt 0.937500 0.031250
vt 0.906250 0.031250
vt 0.156250 0.125000
vt 0.125000 0.125000
vt 0.156250 0.093750
vt 0.468750 0.093750
vt 0.812500 0.000000
vt 0.843750 0.031250
vt 0.812500 0.062500
vt 0.906250 0.093750
vt 0.937500 0.093750
vt 0.906250 0.156250
vt 0.062500 0.031250
vt 0.968750 0.000000
vt 0.437500 0.125000
vt 0.500125 0.093750
vt 0.500000 0.125000
vt 0.968750 0.093750
vt 0.187500 0.156250
vt 0.156250 0.156375
vt 0.187500 0.093750
vt 0.218750 0.000000
vt 0.250000 0.000000
vt 0.218750 0.031250
vt 0.875000 0.187500
vt 0.906250 0.187500
vt 0.562500 0.000000
vt 0.250000 0.031250
vt 0.843750 0.062500
vt 0.875000 0.062500
vt 0.906250 0.062500
vt 0.937500 0.156250
vt 0.656250 0.062500
vt 0.125000 0.062500
vt 0.093750 0.062500
vt 0.093750 0.000000
vt 0.875000 0.156250
vt 0.281250 0.031250
vt 0.281250 0.000000
vt 0.375000 0.031250
vt 0.468750 0.000000
vt 0.875000 0.000000
vt 0.875000 0.031250
vt 0.156250 0.000000
vt 0.718750 0.000000
vt 0.781250 0.000000
vt 0.718933 0.062500
vt 0.781250 0.062500
vt 0.812500 0.093750
vt 0.749998 0.062500
vt 0.750000 0.093750
vt 0.531250 0.156250
vt 0.468750 0.156250
vt 0.531250 0.125000
vt 0.468750 0.125000
vt 0.375000 0.062500
vt 0.250000 0.062500
vn 0.707100 0.000000 0.707100
vn -0.707100 0.000000 -0.707100
vn -0.707100 0.000000 0.707100
vn 0.707100 0.000000 -0.707100
s 1
f 71/1/1 57/2/1 17/3/1
f 35/4/1 15/5/1 55/6/1
f 36/7/1 20/8/1 62/9/1
f 58/10/1 18/11/1 19/12/1
f 26/13/1 70/14/1 73/15/1
f 13/16/1 42/17/1 12/18/1
f 9/19/1 75/20/1 49/21/1
f 26/13/1 73/22/1 72/14/1
f 39/23/1 11/24/1 38/25/1
f 37/26/1 3/27/1 63/28/1
f 55/5/1 15/29/1 56/6/1
f 12/17/1 53/16/1 13/30/1
f 28/31/1 54/32/1 14/33/1
f 14/32/1 69/31/1 28/14/1
f 134/10/2 95/12/2 94/11/2
f 12/17/1 67/30/1 53/34/1
f 8/35/1 22/36/1 52/37/1
f 7/38/1 47/39/1 46/40/1
f 2/41/1 43/28/1 3/42/1
f 12/17/1 63/34/1 67/27/1
f 20/9/1 21/8/1 62/43/1
f 46/39/1 47/44/1 24/40/1
f 11/25/1 60/24/1 38/45/1
f 41/46/1 1/18/1 42/47/1
f 57/3/1 58/2/1 17/10/1
f 3/28/1 64/27/1 63/48/1
f 18/12/1 59/11/1 19/49/1
f 48/50/1 65/51/1 23/52/1
f 112/7/2 138/9/2 96/8/2
f 111/4/2 131/6/2 91/5/2
f 16/53/1 2/28/1 3/41/1
f 147/1/2 93/3/2 133/2/2
f 50/21/1 52/37/1 22/36/1
f 25/54/1 76/55/1 30/56/1
f 31/57/1 76/13/1 26/56/1
f 30/55/1 76/57/1 31/56/1
f 72/22/1 31/13/1 26/57/1
f 38/24/1 40/23/1 39/58/1
f 48/50/1 49/21/1 75/20/1
f 61/59/1 41/18/1 42/46/1
f 38/24/1 61/58/1 40/59/1
f 65/52/1 48/60/1 66/50/1
f 66/60/1 48/21/1 75/50/1
f 44/61/1 6/62/1 45/63/1
f 51/64/1 45/63/1 6/62/1
f 10/65/1 11/66/1 4/25/1
f 10/65/1 4/67/1 5/66/1
f 32/68/1 33/69/1 34/70/1
f 74/71/1 34/70/1 33/69/1
f 24/44/1 68/72/1 27/73/1
f 24/44/1 27/56/1 29/72/1
f 102/13/2 149/15/2 146/14/2
f 89/16/2 88/18/2 118/17/2
f 85/19/2 125/21/2 151/20/2
f 102/13/2 148/14/2 149/22/2
f 115/23/2 114/25/2 87/24/2
f 113/26/2 139/28/2 79/27/2
f 131/5/2 132/6/2 91/29/2
f 88/17/2 89/30/2 129/16/2
f 104/31/2 90/33/2 130/32/2
f 90/32/2 104/14/2 145/31/2
f 88/17/2 129/34/2 143/30/2
f 84/35/2 128/37/2 98/36/2
f 83/38/2 122/40/2 123/39/2
f 78/41/2 79/42/2 119/28/2
f 88/17/2 143/27/2 139/34/2
f 96/9/2 138/43/2 97/8/2
f 122/39/2 100/40/2 123/44/2
f 87/25/2 114/45/2 136/24/2
f 117/46/2 118/47/2 77/18/2
f 133/3/2 93/10/2 134/2/2
f 79/28/2 139/48/2 140/27/2
f 94/12/2 95/49/2 135/11/2
f 124/50/2 99/52/2 141/51/2
f 92/53/2 79/41/2 78/28/2
f 126/21/2 98/36/2 128/37/2
f 101/54/2 106/56/2 152/55/2
f 107/57/2 102/56/2 152/13/2
f 106/55/2 107/56/2 152/57/2
f 148/22/2 102/57/2 107/13/2
f 114/24/2 115/58/2 116/23/2
f 124/50/2 151/20/2 125/21/2
f 137/59/2 118/46/2 117/18/2
f 114/24/2 116/59/2 137/58/2
f 141/52/2 142/50/2 124/60/2
f 142/60/2 151/50/2 124/21/2
f 120/61/2 121/63/2 82/62/2
f 127/64/2 82/62/2 121/63/2
f 86/65/2 80/25/2 87/66/2
f 86/65/2 81/66/2 80/67/2
f 108/68/2 110/70/2 109/69/2
f 150/71/2 109/69/2 110/70/2
f 100/44/2 103/73/2 144/72/2
f 100/44/2 105/72/2 103/56/2
f 223/1/3 209/2/3 169/3/3
f 187/4/3 167/5/3 207/6/3
f 188/7/3 172/8/3 214/9/3
f 210/10/3 170/11/3 171/12/3
f 178/13/3 222/14/3 225/15/3
f 165/16/3 194/17/3 164/18/3
f 161/19/3 227/20/3 201/21/3
f 178/13/3 225/22/3 224/14/3
f 191/23/3 163/24/3 190/25/3
f 189/26/3 155/27/3 215/28/3
f 207/5/3 167/29/3 208/6/3
f 164/17/3 205/16/3 165/30/3
f 180/31/3 206/32/3 166/33/3
f 166/32/3 221/31/3 180/14/3
f 286/10/4 247/12/4 246/11/4
f 164/17/3 219/30/3 205/34/3
f 160/35/3 174/36/3 204/37/3
f 159/38/3 199/39/3 198/40/3
f 154/41/3 195/28/3 155/42/3
f 164/17/3 215/34/3 219/27/3
f 172/9/3 173/8/3 214/43/3
f 198/39/3 199/44/3 176/40/3
f 163/25/3 212/24/3 190/45/3
f 193/46/3 153/18/3 194/47/3
f 209/3/3 210/2/3 169/10/3
f 155/28/3 216/27/3 215/48/3
f 170/12/3 211/11/3 171/49/3
f 200/50/3 217/51/3 175/52/3
f 264/7/4 290/9/4 248/8/4
f 263/4/4 283/6/4 243/5/4
f 168/53/3 154/28/3 155/41/3
f 299/1/4 245/3/4 285/2/4
f 202/21/3 204/37/3 174/36/3
f 177/54/3 228/55/3 182/56/3
f 183/57/3 228/13/3 178/56/3
f 182/55/3 228/57/3 183/56/3
f 224/22/3 183/13/3 178/57/3
f 190/24/3 192/23/3 191/58/3
f 200/50/3 201/21/3 227/20/3
f 213/59/3 193/18/3 194/46/3
f 190/24/3 213/58/3 192/59/3
f 217/52/3 200/60/3 218/50/3
f 218/60/3 200/21/3 227/50/3
f 196/61/3 158/62/3 197/63/3
f 203/64/3 197/63/3 158/62/3
f 162/65/3 163/66/3 156/25/3
f 162/65/3 156/67/3 157/66/3
f 184/68/3 185/69/3 186/70/3
f 226/71/3 186/70/3 185/69/3
f 176/44/3 220/72/3 179/73/3
f 176/44/3 179/56/3 181/72/3
f 254/13/4 301/15/4 298/14/4
f 241/16/4 240/18/4 270/17/4
f 237/19/4 277/21/4 303/20/4
f 254/13/4 300/14/4 301/22/4
f 267/23/4 266/25/4 239/24/4
f 265/26/4 291/28/4 231/27/4
f 283/5/4 284/6/4 243/29/4
f 240/17/4 241/30/4 281/16/4
f 256/31/4 242/33/4 282/32/4
f 242/32/4 256/14/4 297/31/4
f 240/17/4 281/34/4 295/30/4
f 236/35/4 280/37/4 250/36/4
f 235/38/4 274/40/4 275/39/4
f 230/41/4 231/42/4 271/28/4
f 240/17/4 295/27/4 291/34/4
f 248/9/4 290/43/4 249/8/4
f 274/39/4 252/40/4 275/44/4
f 239/25/4 266/45/4 288/24/4
f 269/46/4 270/47/4 229/18/4
f 285/3/4 245/10/4 286/2/4
f 231/28/4 291/48/4 292/27/4
f 246/12/4 247/49/4 287/11/4
f 276/50/4 251/52/4 293/51/4
f 244/53/4 231/41/4 230/28/4
f 278/21/4 250/36/4 280/37/4
f 253/54/4 258/56/4 304/55/4
f 259/57/4 254/56/4 304/13/4
f 258/55/4 259/56/4 304/57/4
f 300/22/4 254/57/4 259/13/4
f 266/24/4 267/58/4 268/23/4
f 276/50/4 303/20/4 277/21/4
f 289/59/4 270/46/4 269/18/4
f 266/24/4 268/59/4 289/58/4
f 293/52/4 294/50/4 276/60/4
f 294/60/4 303/50/4 276/21/4
f 272/61/4 273/63/4 234/62/4
f 279/64/4 234/62/4 273/63/4
f 238/65/4 232/25/4 239/66/4
f 238/65/4 233/66/4 232/67/4
f 260/68/4 262/70/4 261/69/4
f 302/71/4 261/69/4 262/70/4
f 252/44/4 255/73/4 296/72/4
f 252/44/4 257/72/4 255/56/4
