# Blender v2.76 (sub 0) OBJ File: ''
# www.blender.org
o GraveStone_1_Cube
v -0.471785 0.356724 0.203527
v -0.471785 0.356724 -0.203527
v -0.471785 -0.345634 -0.203527
v -0.471785 -0.345634 0.203527
v 0.322068 0.356724 -0.203527
v 0.471372 0.356724 -0.203527
v 0.471372 -0.345634 -0.203527
v 0.471372 0.356724 0.203527
v 0.471372 -0.345634 0.203527
v -0.322481 0.356724 0.203527
v -0.322481 0.356724 -0.203527
v 0.322068 0.356724 0.203527
v -0.322481 0.479671 0.203527
v -0.322481 0.479671 -0.203527
v 0.322068 0.479671 0.203527
v 0.322068 0.479671 -0.203527
v -0.492872 -0.340306 0.294936
v -0.492872 -0.340306 -0.294935
v -0.492872 -0.498709 -0.294935
v -0.492872 -0.498709 0.294936
v 0.492458 -0.340306 -0.294935
v 0.492458 -0.498709 -0.294935
v 0.492458 -0.340306 0.294936
v 0.492458 -0.498709 0.294936
vt 0.008882 0.727364
vt 0.164551 0.727364
vt 0.164551 0.995965
vt 0.008882 0.995965
vt 0.885761 0.080444
vt 0.973397 0.080444
vt 0.973397 0.492703
vt 0.164551 0.272636
vt 0.008882 0.272636
vt 0.008882 0.004035
vt 0.164551 0.004035
vt 0.505048 0.917095
vt 0.417412 0.917095
vt 0.417412 0.504836
vt 0.008882 0.670266
vt 0.164551 0.670266
vt 0.164551 0.329734
vt 0.008882 0.329734
vt 0.008882 0.623247
vt 0.164551 0.623247
vt 0.971012 0.917095
vt 0.883376 0.917095
vt 0.971012 0.504836
vt 0.419797 0.080444
vt 0.507433 0.080444
vt 0.419797 0.492703
vt 0.008882 0.376753
vt 0.164551 0.376753
vt 0.883376 0.989261
vt 0.505048 0.989261
vt 0.507433 0.008278
vt 0.885761 0.008278
vt 0.251771 0.722076
vt 0.251771 0.988585
vt 0.180203 0.988585
vt 0.180203 0.722076
vt 0.251771 0.276895
vt 0.180203 0.276895
vt 0.251771 0.010385
vt 0.180203 0.010385
vt 0.265492 0.992653
vt 0.398589 0.992653
vt 0.398589 0.770327
vt 0.265492 0.770327
vn -1.000000 0.000000 0.000000
vn 0.000000 0.000000 -1.000000
vn 1.000000 0.000000 0.000000
vn 0.000000 -0.000000 1.000000
vn 0.000000 1.000000 0.000000
vn 0.000000 -1.000000 -0.000000
s 1
f 1/1/1 2/2/1 3/3/1 4/4/1
f 5/5/2 6/6/2 7/7/2
f 6/8/3 8/9/3 9/10/3 7/11/3
f 10/12/4 1/13/4 4/14/4
f 10/15/5 11/16/5 2/2/5 1/1/5
f 8/9/5 6/8/5 5/17/5 12/18/5
f 11/16/1 10/15/1 13/19/1 14/20/1
f 8/21/4 12/22/4 9/23/4
f 12/22/4 10/12/4 4/14/4 9/23/4
f 2/24/2 11/25/2 3/26/2
f 11/25/2 5/5/2 7/7/2 3/26/2
f 15/27/5 16/28/5 14/20/5 13/19/5
f 10/12/4 12/22/4 15/29/4 13/30/4
f 5/5/2 11/25/2 14/31/2 16/32/2
f 12/18/3 5/17/3 16/28/3 15/27/3
f 17/33/1 18/34/1 19/35/1 20/36/1
f 18/33/2 21/37/2 22/38/2 19/36/2
f 21/39/3 23/37/3 24/38/3 22/40/3
f 23/37/4 17/33/4 20/36/4 24/38/4
f 20/41/6 19/42/6 22/43/6 24/44/6
f 23/44/5 21/43/5 18/42/5 17/41/5
f 4/14/6 3/3/6 7/7/6 9/10/6
