# Blender v2.76 (sub 0) OBJ File: 'Romashka.blend'
# www.blender.org
o Plane
v -0.218750 -0.500000 0.000000
v -0.187500 -0.500000 0.000000
v 0.187500 -0.500000 0.000000
v -0.250000 -0.437500 0.000000
v -0.250000 -0.343750 0.000000
v -0.218750 -0.437500 0.000000
v -0.218750 -0.406250 0.000000
v -0.218750 -0.343750 0.000000
v -0.218750 0.000000 0.000000
v -0.218750 0.062500 -0.000000
v -0.218750 0.093750 -0.000000
v -0.187500 -0.468750 0.000000
v -0.187500 -0.437500 0.000000
v -0.187500 -0.406250 0.000000
v -0.187500 -0.375000 0.000000
v -0.187500 -0.031250 0.000000
v -0.187500 0.000000 0.000000
v -0.187500 0.093750 -0.000000
v -0.187500 0.125000 -0.000000
v -0.156250 -0.468750 0.000000
v -0.156250 -0.437500 0.000000
v -0.156250 -0.375000 0.000000
v -0.156250 -0.218750 0.000000
v -0.156250 0.125000 -0.000000
v -0.156250 0.156250 -0.000000
v -0.125000 -0.218750 0.000000
v -0.125000 -0.125000 0.000000
v -0.125000 -0.062500 0.000000
v -0.125000 -0.031250 0.000000
v -0.125000 0.156250 -0.000000
v -0.125000 0.187500 -0.000000
v -0.093750 -0.125000 0.000000
v -0.093750 -0.062500 0.000000
v -0.031250 0.187500 -0.000000
v -0.031250 0.218750 -0.000000
v 0.062500 0.187500 -0.000000
v 0.062500 0.218750 -0.000000
v 0.125000 -0.125000 0.000000
v 0.125000 -0.031250 0.000000
v 0.125000 0.156250 -0.000000
v 0.125000 0.187500 -0.000000
v 0.156250 -0.187500 0.000000
v 0.156250 -0.125000 0.000000
v 0.187500 -0.468750 0.000000
v 0.187500 -0.312500 0.000000
v 0.187500 -0.187500 0.000000
v 0.187500 -0.031250 0.000000
v 0.187500 0.000000 0.000000
v 0.187500 0.093750 -0.000000
v 0.187500 0.156250 -0.000000
v 0.218750 -0.468750 0.000000
v 0.218750 -0.343750 0.000000
v 0.218750 -0.312500 0.000000
v 0.218750 -0.250000 0.000000
v 0.218750 0.062500 -0.000000
v 0.218750 0.093750 -0.000000
v 0.250000 -0.343750 0.000000
v 0.250000 -0.250000 0.000000
v 0.250000 0.000000 0.000000
v 0.250000 0.062500 -0.000000
v -0.218750 -0.500000 0.000000
v -0.187500 -0.500000 0.000000
v 0.187500 -0.500000 0.000000
v -0.250000 -0.437500 0.000000
v -0.250000 -0.343750 0.000000
v -0.218750 -0.437500 0.000000
v -0.218750 -0.406250 0.000000
v -0.218750 -0.343750 0.000000
v -0.218750 0.000000 0.000000
v -0.218750 0.062500 -0.000000
v -0.218750 0.093750 -0.000000
v -0.187500 -0.468750 0.000000
v -0.187500 -0.437500 0.000000
v -0.187500 -0.406250 0.000000
v -0.187500 -0.375000 0.000000
v -0.187500 -0.031250 0.000000
v -0.187500 0.000000 0.000000
v -0.187500 0.093750 -0.000000
v -0.187500 0.125000 -0.000000
v -0.156250 -0.468750 0.000000
v -0.156250 -0.437500 0.000000
v -0.156250 -0.375000 0.000000
v -0.156250 -0.218750 0.000000
v -0.156250 0.125000 -0.000000
v -0.156250 0.156250 -0.000000
v -0.125000 -0.218750 0.000000
v -0.125000 -0.125000 0.000000
v -0.125000 -0.062500 0.000000
v -0.125000 -0.031250 0.000000
v -0.125000 0.156250 -0.000000
v -0.125000 0.187500 -0.000000
v -0.093750 -0.125000 0.000000
v -0.093750 -0.062500 0.000000
v -0.031250 0.187500 -0.000000
v -0.031250 0.218750 -0.000000
v 0.062500 0.187500 -0.000000
v 0.062500 0.218750 -0.000000
v 0.125000 -0.125000 0.000000
v 0.125000 -0.031250 0.000000
v 0.125000 0.156250 -0.000000
v 0.125000 0.187500 -0.000000
v 0.156250 -0.187500 0.000000
v 0.156250 -0.125000 0.000000
v 0.187500 -0.468750 0.000000
v 0.187500 -0.312500 0.000000
v 0.187500 -0.187500 0.000000
v 0.187500 -0.031250 0.000000
v 0.187500 0.000000 0.000000
v 0.187500 0.093750 -0.000000
v 0.187500 0.156250 -0.000000
v 0.218750 -0.468750 0.000000
v 0.218750 -0.343750 0.000000
v 0.218750 -0.312500 0.000000
v 0.218750 -0.250000 0.000000
v 0.218750 0.062500 -0.000000
v 0.218750 0.093750 -0.000000
v 0.250000 -0.343750 0.000000
v 0.250000 -0.250000 0.000000
v 0.250000 0.000000 0.000000
v 0.250000 0.062500 -0.000000
v -0.015104 -0.500000 -0.203646
v -0.015104 -0.500000 -0.172396
v -0.015104 -0.500000 0.202604
v -0.015104 -0.437500 -0.234896
v -0.015104 -0.343750 -0.234896
v -0.015104 -0.437500 -0.203646
v -0.015104 -0.406250 -0.203646
v -0.015104 -0.343750 -0.203646
v -0.015104 0.000000 -0.203646
v -0.015104 0.062500 -0.203646
v -0.015104 0.093750 -0.203646
v -0.015104 -0.468750 -0.172396
v -0.015104 -0.437500 -0.172396
v -0.015104 -0.406250 -0.172396
v -0.015104 -0.375000 -0.172396
v -0.015104 -0.031250 -0.172396
v -0.015104 0.000000 -0.172396
v -0.015104 0.093750 -0.172396
v -0.015104 0.125000 -0.172396
v -0.015104 -0.468750 -0.141146
v -0.015104 -0.437500 -0.141146
v -0.015104 -0.375000 -0.141146
v -0.015104 -0.218750 -0.141146
v -0.015104 0.125000 -0.141146
v -0.015104 0.156250 -0.141146
v -0.015104 -0.218750 -0.109896
v -0.015104 -0.125000 -0.109896
v -0.015104 -0.062500 -0.109896
v -0.015104 -0.031250 -0.109896
v -0.015104 0.156250 -0.109896
v -0.015104 0.187500 -0.109896
v -0.015104 -0.125000 -0.078646
v -0.015104 -0.062500 -0.078646
v -0.015104 0.187500 -0.016146
v -0.015104 0.218750 -0.016146
v -0.015104 0.187500 0.077604
v -0.015104 0.218750 0.077604
v -0.015104 -0.125000 0.140104
v -0.015104 -0.031250 0.140104
v -0.015104 0.156250 0.140104
v -0.015104 0.187500 0.140104
v -0.015104 -0.187500 0.171354
v -0.015104 -0.125000 0.171354
v -0.015104 -0.468750 0.202604
v -0.015104 -0.312500 0.202604
v -0.015104 -0.187500 0.202604
v -0.015104 -0.031250 0.202604
v -0.015104 0.000000 0.202604
v -0.015104 0.093750 0.202604
v -0.015104 0.156250 0.202604
v -0.015104 -0.468750 0.233854
v -0.015104 -0.343750 0.233854
v -0.015104 -0.312500 0.233854
v -0.015104 -0.250000 0.233854
v -0.015104 0.062500 0.233854
v -0.015104 0.093750 0.233854
v -0.015104 -0.343750 0.265104
v -0.015104 -0.250000 0.265104
v -0.015104 0.000000 0.265104
v -0.015104 0.062500 0.265104
v -0.015104 -0.500000 -0.203646
v -0.015104 -0.500000 -0.172396
v -0.015104 -0.500000 0.202604
v -0.015104 -0.437500 -0.234896
v -0.015104 -0.343750 -0.234896
v -0.015104 -0.437500 -0.203646
v -0.015104 -0.406250 -0.203646
v -0.015104 -0.343750 -0.203646
v -0.015104 0.000000 -0.203646
v -0.015104 0.062500 -0.203646
v -0.015104 0.093750 -0.203646
v -0.015104 -0.468750 -0.172396
v -0.015104 -0.437500 -0.172396
v -0.015104 -0.406250 -0.172396
v -0.015104 -0.375000 -0.172396
v -0.015104 -0.031250 -0.172396
v -0.015104 0.000000 -0.172396
v -0.015104 0.093750 -0.172396
v -0.015104 0.125000 -0.172396
v -0.015104 -0.468750 -0.141146
v -0.015104 -0.437500 -0.141146
v -0.015104 -0.375000 -0.141146
v -0.015104 -0.218750 -0.141146
v -0.015104 0.125000 -0.141146
v -0.015104 0.156250 -0.141146
v -0.015104 -0.218750 -0.109896
v -0.015104 -0.125000 -0.109896
v -0.015104 -0.062500 -0.109896
v -0.015104 -0.031250 -0.109896
v -0.015104 0.156250 -0.109896
v -0.015104 0.187500 -0.109896
v -0.015104 -0.125000 -0.078646
v -0.015104 -0.062500 -0.078646
v -0.015104 0.187500 -0.016146
v -0.015104 0.218750 -0.016146
v -0.015104 0.187500 0.077604
v -0.015104 0.218750 0.077604
v -0.015104 -0.125000 0.140104
v -0.015104 -0.031250 0.140104
v -0.015104 0.156250 0.140104
v -0.015104 0.187500 0.140104
v -0.015104 -0.187500 0.171354
v -0.015104 -0.125000 0.171354
v -0.015104 -0.468750 0.202604
v -0.015104 -0.312500 0.202604
v -0.015104 -0.187500 0.202604
v -0.015104 -0.031250 0.202604
v -0.015104 0.000000 0.202604
v -0.015104 0.093750 0.202604
v -0.015104 0.156250 0.202604
v -0.015104 -0.468750 0.233854
v -0.015104 -0.343750 0.233854
v -0.015104 -0.312500 0.233854
v -0.015104 -0.250000 0.233854
v -0.015104 0.062500 0.233854
v -0.015104 0.093750 0.233854
v -0.015104 -0.343750 0.265104
v -0.015104 -0.250000 0.265104
v -0.015104 0.000000 0.265104
v -0.015104 0.062500 0.265104
vt 0.687500 0.187500
vt 0.687500 0.312500
vt 0.656250 0.312500
vt 0.750000 0.156250
vt 0.750000 0.250000
vt 0.718750 0.187500
vt 0.750000 0.500000
vt 0.750000 0.562500
vt 0.718750 0.562500
vt 0.375000 0.281250
vt 0.718750 0.156250
vt 0.718750 0.593750
vt 0.687500 0.593750
vt 0.625000 0.468750
vt 0.687500 0.468750
vt 0.687500 0.500000
vt 0.625000 0.656250
vt 0.687500 0.031250
vt 0.375000 0.437500
vt 0.406250 0.437500
vt 0.375000 0.468750
vt 0.468750 0.687500
vt 0.718750 0.031250
vt 0.343750 0.656250
vt 0.343750 0.625000
vt 0.375000 0.656250
vt 0.312500 0.062500
vt 0.281250 0.093750
vt 0.281250 0.062500
vt 0.343750 0.062500
vt 0.343750 0.031250
vt 0.312500 0.625000
vt 0.312500 0.593750
vt 0.281250 0.593750
vt 0.281250 0.562500
vt 0.718750 0.250000
vt 0.656250 0.375000
vt 0.625000 0.375000
vt 0.687500 0.000000
vt 0.312500 0.031250
vt 0.312500 0.000000
vt 0.687500 0.656250
vt 0.343750 0.125000
vt 0.312500 0.093750
vt 0.562500 0.687500
vt 0.562500 0.718750
vt 0.468750 0.718750
vt 0.625000 0.687500
vt 0.312500 0.125000
vt 0.343750 0.281250
vt 0.406250 0.375000
vt 0.375000 0.375000
vt 0.312500 0.500000
vt 0.312500 0.468750
vt 0.281250 0.500000
vt 0.375000 0.687500
vt 0.281250 0.000000
vt 0.281250 0.156250
vt 0.250000 0.156250
vt 0.250000 0.062500
vn 0.000000 0.000000 1.000000
vn 0.000000 -0.000000 -1.000000
vn -1.000000 0.000000 0.000000
vn 0.000000 0.707100 -0.707100
vn 1.000000 0.000000 0.000000
vn 0.000000 -0.707100 0.707100
s off
f 45/1/1 46/2/1 42/3/1
f 57/4/1 58/5/1 53/6/1
f 59/7/1 60/8/1 55/9/1
f 45/1/1 42/3/1 26/10/1
f 57/4/1 53/6/1 52/11/1
f 55/9/1 56/12/1 49/13/1
f 39/14/1 47/15/1 48/16/1
f 39/14/1 49/13/1 40/17/1
f 52/11/1 53/6/1 45/1/1
f 52/11/1 45/1/1 44/18/1
f 48/16/1 59/7/1 55/9/1
f 28/19/1 33/20/1 29/21/1
f 39/14/1 34/22/1 33/20/1
f 51/23/1 52/11/1 44/18/1
f 39/14/1 48/16/1 49/13/1
f 25/24/1 24/25/1 30/26/1
f 13/27/1 7/28/1 6/29/1
f 44/18/1 21/30/1 20/31/1
f 19/32/1 18/33/1 24/25/1
f 11/34/1 10/35/1 18/33/1
f 48/16/1 55/9/1 49/13/1
f 58/5/1 54/36/1 53/6/1
f 42/3/1 43/37/1 38/38/1
f 3/39/1 44/18/1 20/31/1
f 12/40/1 2/41/1 20/31/1
f 49/13/1 50/42/1 40/17/1
f 20/31/1 2/41/1 3/39/1
f 38/38/1 39/14/1 33/20/1
f 44/18/1 22/43/1 21/30/1
f 14/44/1 13/27/1 21/30/1
f 44/18/1 45/1/1 22/43/1
f 39/14/1 40/17/1 36/45/1
f 36/45/1 37/46/1 35/47/1
f 40/17/1 41/48/1 36/45/1
f 14/44/1 21/30/1 22/43/1
f 22/43/1 15/49/1 14/44/1
f 26/10/1 23/50/1 22/43/1
f 32/51/1 27/52/1 26/10/1
f 17/53/1 16/54/1 29/21/1
f 32/51/1 26/10/1 38/38/1
f 10/35/1 9/55/1 17/53/1
f 22/43/1 45/1/1 26/10/1
f 10/35/1 17/53/1 30/26/1
f 26/10/1 42/3/1 38/38/1
f 17/53/1 29/21/1 30/26/1
f 33/20/1 32/51/1 38/38/1
f 39/14/1 36/45/1 34/22/1
f 34/22/1 31/56/1 30/26/1
f 36/45/1 35/47/1 34/22/1
f 29/21/1 34/22/1 30/26/1
f 34/22/1 29/21/1 33/20/1
f 6/29/1 1/57/1 12/40/1
f 2/41/1 12/40/1 1/57/1
f 13/27/1 14/44/1 7/28/1
f 7/28/1 8/58/1 5/59/1
f 5/59/1 4/60/1 7/28/1
f 6/29/1 12/40/1 13/27/1
f 7/28/1 4/60/1 6/29/1
f 105/1/2 102/3/2 106/2/2
f 117/4/2 113/6/2 118/5/2
f 119/7/2 115/9/2 120/8/2
f 105/1/2 86/10/2 102/3/2
f 117/4/2 112/11/2 113/6/2
f 115/9/2 109/13/2 116/12/2
f 99/14/2 108/16/2 107/15/2
f 99/14/2 100/17/2 109/13/2
f 112/11/2 105/1/2 113/6/2
f 112/11/2 104/18/2 105/1/2
f 108/16/2 115/9/2 119/7/2
f 88/19/2 89/21/2 93/20/2
f 99/14/2 93/20/2 94/22/2
f 111/23/2 104/18/2 112/11/2
f 99/14/2 109/13/2 108/16/2
f 85/24/2 90/26/2 84/25/2
f 73/27/2 66/29/2 67/28/2
f 104/18/2 80/31/2 81/30/2
f 79/32/2 84/25/2 78/33/2
f 71/34/2 78/33/2 70/35/2
f 108/16/2 109/13/2 115/9/2
f 118/5/2 113/6/2 114/36/2
f 102/3/2 98/38/2 103/37/2
f 63/39/2 80/31/2 104/18/2
f 72/40/2 80/31/2 62/41/2
f 109/13/2 100/17/2 110/42/2
f 80/31/2 63/39/2 62/41/2
f 98/38/2 93/20/2 99/14/2
f 104/18/2 81/30/2 82/43/2
f 74/44/2 81/30/2 73/27/2
f 104/18/2 82/43/2 105/1/2
f 99/14/2 96/45/2 100/17/2
f 96/45/2 95/47/2 97/46/2
f 100/17/2 96/45/2 101/48/2
f 74/44/2 82/43/2 81/30/2
f 82/43/2 74/44/2 75/49/2
f 86/10/2 82/43/2 83/50/2
f 92/51/2 86/10/2 87/52/2
f 77/53/2 89/21/2 76/54/2
f 92/51/2 98/38/2 86/10/2
f 70/35/2 77/53/2 69/55/2
f 82/43/2 86/10/2 105/1/2
f 70/35/2 90/26/2 77/53/2
f 86/10/2 98/38/2 102/3/2
f 77/53/2 90/26/2 89/21/2
f 93/20/2 98/38/2 92/51/2
f 99/14/2 94/22/2 96/45/2
f 94/22/2 90/26/2 91/56/2
f 96/45/2 94/22/2 95/47/2
f 89/21/2 90/26/2 94/22/2
f 94/22/2 93/20/2 89/21/2
f 66/29/2 72/40/2 61/57/2
f 62/41/2 61/57/2 72/40/2
f 73/27/2 67/28/2 74/44/2
f 67/28/2 65/59/2 68/58/2
f 65/59/2 67/28/2 64/60/2
f 66/29/2 73/27/2 72/40/2
f 67/28/2 66/29/2 64/60/2
f 165/1/3 166/2/3 162/3/3
f 177/4/3 178/5/3 173/6/3
f 179/7/3 180/8/3 175/9/3
f 165/1/3 162/3/3 146/10/3
f 177/4/3 173/6/3 172/11/3
f 175/9/3 176/12/3 169/13/3
f 159/14/3 167/15/3 168/16/3
f 159/14/3 169/13/3 160/17/3
f 172/11/3 173/6/3 165/1/3
f 172/11/3 165/1/3 164/18/3
f 168/16/3 179/7/3 175/9/3
f 148/19/3 153/20/3 149/21/3
f 159/14/3 154/22/3 153/20/3
f 171/23/3 172/11/3 164/18/3
f 159/14/3 168/16/3 169/13/3
f 145/24/3 144/25/3 150/26/3
f 133/27/3 127/28/3 126/29/3
f 164/18/3 141/30/3 140/31/3
f 139/32/3 138/33/3 144/25/3
f 131/34/3 130/35/3 138/33/3
f 138/33/4 130/35/4 144/25/4
f 168/16/3 175/9/3 169/13/3
f 178/5/3 174/36/3 173/6/3
f 162/3/3 163/37/3 158/38/3
f 123/39/3 164/18/3 140/31/3
f 132/40/3 122/41/3 140/31/3
f 169/13/3 170/42/3 160/17/3
f 140/31/3 122/41/3 123/39/3
f 158/38/3 159/14/3 153/20/3
f 164/18/3 142/43/3 141/30/3
f 134/44/3 133/27/3 141/30/3
f 164/18/3 165/1/3 142/43/3
f 159/14/3 160/17/3 156/45/3
f 156/45/3 157/46/3 155/47/3
f 160/17/3 161/48/3 156/45/3
f 134/44/3 141/30/3 142/43/3
f 142/43/3 135/49/3 134/44/3
f 146/10/3 143/50/3 142/43/3
f 152/51/3 147/52/3 146/10/3
f 137/53/3 136/54/3 149/21/3
f 152/51/3 146/10/3 158/38/3
f 130/35/3 129/55/3 137/53/3
f 142/43/3 165/1/3 146/10/3
f 130/35/3 137/53/3 150/26/3
f 146/10/3 162/3/3 158/38/3
f 137/53/3 149/21/3 150/26/3
f 153/20/3 152/51/3 158/38/3
f 159/14/3 156/45/3 154/22/3
f 154/22/3 151/56/3 150/26/3
f 156/45/3 155/47/3 154/22/3
f 149/21/3 154/22/3 150/26/3
f 154/22/3 149/21/3 153/20/3
f 126/29/3 121/57/3 132/40/3
f 122/41/3 132/40/3 121/57/3
f 133/27/3 134/44/3 127/28/3
f 127/28/3 128/58/3 125/59/3
f 125/59/3 124/60/3 127/28/3
f 126/29/3 132/40/3 133/27/3
f 127/28/3 124/60/3 126/29/3
f 225/1/5 222/3/5 226/2/5
f 237/4/5 233/6/5 238/5/5
f 239/7/5 235/9/5 240/8/5
f 225/1/5 206/10/5 222/3/5
f 237/4/5 232/11/5 233/6/5
f 235/9/5 229/13/5 236/12/5
f 219/14/5 228/16/5 227/15/5
f 219/14/5 220/17/5 229/13/5
f 232/11/5 225/1/5 233/6/5
f 232/11/5 224/18/5 225/1/5
f 228/16/5 235/9/5 239/7/5
f 208/19/5 209/21/5 213/20/5
f 219/14/5 213/20/5 214/22/5
f 231/23/5 224/18/5 232/11/5
f 219/14/5 229/13/5 228/16/5
f 205/24/5 210/26/5 204/25/5
f 193/27/5 186/29/5 187/28/5
f 224/18/5 200/31/5 201/30/5
f 199/32/5 204/25/5 198/33/5
f 191/34/5 198/33/5 190/35/5
f 198/33/6 204/25/6 190/35/6
f 228/16/5 229/13/5 235/9/5
f 238/5/5 233/6/5 234/36/5
f 222/3/5 218/38/5 223/37/5
f 183/39/5 200/31/5 224/18/5
f 192/40/5 200/31/5 182/41/5
f 229/13/5 220/17/5 230/42/5
f 200/31/5 183/39/5 182/41/5
f 218/38/5 213/20/5 219/14/5
f 224/18/5 201/30/5 202/43/5
f 194/44/5 201/30/5 193/27/5
f 224/18/5 202/43/5 225/1/5
f 219/14/5 216/45/5 220/17/5
f 216/45/5 215/47/5 217/46/5
f 220/17/5 216/45/5 221/48/5
f 194/44/5 202/43/5 201/30/5
f 202/43/5 194/44/5 195/49/5
f 206/10/5 202/43/5 203/50/5
f 212/51/5 206/10/5 207/52/5
f 197/53/5 209/21/5 196/54/5
f 212/51/5 218/38/5 206/10/5
f 190/35/5 197/53/5 189/55/5
f 202/43/5 206/10/5 225/1/5
f 190/35/5 210/26/5 197/53/5
f 206/10/5 218/38/5 222/3/5
f 197/53/5 210/26/5 209/21/5
f 213/20/5 218/38/5 212/51/5
f 219/14/5 214/22/5 216/45/5
f 214/22/5 210/26/5 211/56/5
f 216/45/5 214/22/5 215/47/5
f 209/21/5 210/26/5 214/22/5
f 214/22/5 213/20/5 209/21/5
f 186/29/5 192/40/5 181/57/5
f 182/41/5 181/57/5 192/40/5
f 193/27/5 187/28/5 194/44/5
f 187/28/5 185/59/5 188/58/5
f 185/59/5 187/28/5 184/60/5
f 186/29/5 193/27/5 192/40/5
f 187/28/5 186/29/5 184/60/5
