# Blender v2.76 (sub 0) OBJ File: 'Romashka.blend'
# www.blender.org
o Plane_Plane.009
v -0.156250 -0.500000 0.000000
v 0.125000 -0.500000 0.000000
v 0.125000 -0.468750 0.000000
v 0.093750 -0.468750 0.000000
v -0.125000 -0.468750 0.000000
v -0.156250 -0.468750 0.000000
v 0.093750 -0.437500 0.000000
v 0.062500 -0.437500 0.000000
v -0.093750 -0.437500 0.000000
v -0.125000 -0.437500 0.000000
v 0.062500 -0.406250 0.000000
v 0.031250 -0.406250 0.000000
v -0.062500 -0.406250 0.000000
v -0.093750 -0.406250 0.000000
v 0.062500 -0.375000 0.000000
v 0.031250 -0.375000 0.000000
v -0.062500 -0.375000 0.000000
v -0.093750 -0.375000 0.000000
v 0.062500 -0.343750 0.000000
v 0.031250 -0.343750 0.000000
v -0.062500 -0.343750 0.000000
v -0.093750 -0.343750 0.000000
v 0.125000 -0.312500 0.000000
v 0.031250 -0.312500 0.000000
v -0.062500 -0.312500 0.000000
v -0.125000 -0.312500 0.000000
v 0.218750 -0.281250 0.000000
v 0.125000 -0.281250 0.000000
v -0.125000 -0.281250 0.000000
v -0.218750 -0.281250 0.000000
v 0.250000 -0.250000 0.000000
v 0.218750 -0.250000 0.000000
v -0.218750 -0.250000 0.000000
v -0.250000 -0.250000 0.000000
v 0.250000 -0.156250 0.000000
v 0.218750 -0.156250 0.000000
v -0.218750 -0.156250 0.000000
v -0.250000 -0.156250 0.000000
v 0.218750 -0.093750 0.000000
v 0.187500 -0.093750 0.000000
v -0.187500 -0.093750 0.000000
v -0.218750 -0.093750 0.000000
v 0.187500 -0.031250 0.000000
v 0.156250 -0.031250 0.000000
v -0.156250 0.000000 0.000000
v -0.187500 0.000000 0.000000
v 0.156250 0.031250 -0.000000
v 0.125000 0.031250 -0.000000
v -0.125000 0.062500 -0.000000
v -0.156250 0.062500 -0.000000
v 0.125000 0.093750 -0.000000
v 0.093750 0.093750 -0.000000
v -0.093750 0.093750 -0.000000
v -0.125000 0.093750 -0.000000
v 0.093750 0.125000 -0.000000
v 0.062500 0.125000 -0.000000
v -0.062500 0.125000 -0.000000
v -0.093750 0.125000 -0.000000
v 0.062500 0.156250 -0.000000
v -0.062500 0.156250 -0.000000
v -0.156250 -0.500000 0.000000
v 0.125000 -0.500000 0.000000
v 0.125000 -0.468750 0.000000
v 0.093750 -0.468750 0.000000
v -0.125000 -0.468750 0.000000
v -0.156250 -0.468750 0.000000
v 0.093750 -0.437500 0.000000
v 0.062500 -0.437500 0.000000
v -0.093750 -0.437500 0.000000
v -0.125000 -0.437500 0.000000
v 0.062500 -0.406250 0.000000
v 0.031250 -0.406250 0.000000
v -0.062500 -0.406250 0.000000
v -0.093750 -0.406250 0.000000
v 0.062500 -0.375000 0.000000
v 0.031250 -0.375000 0.000000
v -0.062500 -0.375000 0.000000
v -0.093750 -0.375000 0.000000
v 0.062500 -0.343750 0.000000
v 0.031250 -0.343750 0.000000
v -0.062500 -0.343750 0.000000
v -0.093750 -0.343750 0.000000
v 0.125000 -0.312500 0.000000
v 0.031250 -0.312500 0.000000
v -0.062500 -0.312500 0.000000
v -0.125000 -0.312500 0.000000
v 0.218750 -0.281250 0.000000
v 0.125000 -0.281250 0.000000
v -0.125000 -0.281250 0.000000
v -0.218750 -0.281250 0.000000
v 0.250000 -0.250000 0.000000
v 0.218750 -0.250000 0.000000
v -0.218750 -0.250000 0.000000
v -0.250000 -0.250000 0.000000
v 0.250000 -0.156250 0.000000
v 0.218750 -0.156250 0.000000
v -0.218750 -0.156250 0.000000
v -0.250000 -0.156250 0.000000
v 0.218750 -0.093750 0.000000
v 0.187500 -0.093750 0.000000
v -0.187500 -0.093750 0.000000
v -0.218750 -0.093750 0.000000
v 0.187500 -0.031250 0.000000
v 0.156250 -0.031250 0.000000
v -0.156250 0.000000 0.000000
v -0.187500 0.000000 0.000000
v 0.156250 0.031250 -0.000000
v 0.125000 0.031250 -0.000000
v -0.125000 0.062500 -0.000000
v -0.156250 0.062500 -0.000000
v 0.125000 0.093750 -0.000000
v 0.093750 0.093750 -0.000000
v -0.093750 0.093750 -0.000000
v -0.125000 0.093750 -0.000000
v 0.093750 0.125000 -0.000000
v 0.062500 0.125000 -0.000000
v -0.062500 0.125000 -0.000000
v -0.093750 0.125000 -0.000000
v 0.062500 0.156250 -0.000000
v -0.062500 0.156250 -0.000000
v -0.000000 -0.500000 -0.156250
v -0.000000 -0.500000 0.125000
v -0.000000 -0.468750 0.125000
v -0.000000 -0.468750 0.093750
v -0.000000 -0.468750 -0.125000
v -0.000000 -0.468750 -0.156250
v -0.000000 -0.437500 0.093750
v -0.000000 -0.437500 0.062500
v -0.000000 -0.437500 -0.093750
v -0.000000 -0.437500 -0.125000
v -0.000000 -0.406250 0.062500
v -0.000000 -0.406250 0.031250
v -0.000000 -0.406250 -0.062500
v -0.000000 -0.406250 -0.093750
v -0.000000 -0.375000 0.062500
v -0.000000 -0.375000 0.031250
v -0.000000 -0.375000 -0.062500
v -0.000000 -0.375000 -0.093750
v -0.000000 -0.343750 0.062500
v -0.000000 -0.343750 0.031250
v -0.000000 -0.343750 -0.062500
v -0.000000 -0.343750 -0.093750
v 0.000000 -0.312500 0.125000
v -0.000000 -0.312500 0.031250
v -0.000000 -0.312500 -0.062500
v -0.000000 -0.312500 -0.125000
v 0.000000 -0.281250 0.218750
v 0.000000 -0.281250 0.125000
v -0.000000 -0.281250 -0.125000
v -0.000000 -0.281250 -0.218750
v 0.000000 -0.250000 0.250000
v 0.000000 -0.250000 0.218750
v -0.000000 -0.250000 -0.218750
v -0.000000 -0.250000 -0.250000
v 0.000000 -0.156250 0.250000
v 0.000000 -0.156250 0.218750
v -0.000000 -0.156250 -0.218750
v -0.000000 -0.156250 -0.250000
v 0.000000 -0.093750 0.218750
v 0.000000 -0.093750 0.187500
v -0.000000 -0.093750 -0.187500
v -0.000000 -0.093750 -0.218750
v 0.000000 -0.031250 0.187500
v 0.000000 -0.031250 0.156250
v 0.000000 0.000000 -0.156250
v 0.000000 0.000000 -0.187500
v 0.000000 0.031250 0.156250
v 0.000000 0.031250 0.125000
v 0.000000 0.062500 -0.125000
v 0.000000 0.062500 -0.156250
v 0.000000 0.093750 0.125000
v 0.000000 0.093750 0.093750
v 0.000000 0.093750 -0.093750
v 0.000000 0.093750 -0.125000
v 0.000000 0.125000 0.093750
v 0.000000 0.125000 0.062500
v 0.000000 0.125000 -0.062500
v 0.000000 0.125000 -0.093750
v 0.000000 0.156250 0.062500
v 0.000000 0.156250 -0.062500
v -0.000000 -0.500000 -0.156250
v -0.000000 -0.500000 0.125000
v -0.000000 -0.468750 0.125000
v -0.000000 -0.468750 0.093750
v -0.000000 -0.468750 -0.125000
v -0.000000 -0.468750 -0.156250
v -0.000000 -0.437500 0.093750
v -0.000000 -0.437500 0.062500
v -0.000000 -0.437500 -0.093750
v -0.000000 -0.437500 -0.125000
v -0.000000 -0.406250 0.062500
v -0.000000 -0.406250 0.031250
v -0.000000 -0.406250 -0.062500
v -0.000000 -0.406250 -0.093750
v -0.000000 -0.375000 0.062500
v -0.000000 -0.375000 0.031250
v -0.000000 -0.375000 -0.062500
v -0.000000 -0.375000 -0.093750
v -0.000000 -0.343750 0.062500
v -0.000000 -0.343750 0.031250
v -0.000000 -0.343750 -0.062500
v -0.000000 -0.343750 -0.093750
v 0.000000 -0.312500 0.125000
v -0.000000 -0.312500 0.031250
v -0.000000 -0.312500 -0.062500
v -0.000000 -0.312500 -0.125000
v 0.000000 -0.281250 0.218750
v 0.000000 -0.281250 0.125000
v -0.000000 -0.281250 -0.125000
v -0.000000 -0.281250 -0.218750
v 0.000000 -0.250000 0.250000
v 0.000000 -0.250000 0.218750
v -0.000000 -0.250000 -0.218750
v -0.000000 -0.250000 -0.250000
v 0.000000 -0.156250 0.250000
v 0.000000 -0.156250 0.218750
v -0.000000 -0.156250 -0.218750
v -0.000000 -0.156250 -0.250000
v 0.000000 -0.093750 0.218750
v 0.000000 -0.093750 0.187500
v -0.000000 -0.093750 -0.187500
v -0.000000 -0.093750 -0.218750
v 0.000000 -0.031250 0.187500
v 0.000000 -0.031250 0.156250
v 0.000000 0.000000 -0.156250
v 0.000000 0.000000 -0.187500
v 0.000000 0.031250 0.156250
v 0.000000 0.031250 0.125000
v 0.000000 0.062500 -0.125000
v 0.000000 0.062500 -0.156250
v 0.000000 0.093750 0.125000
v 0.000000 0.093750 0.093750
v 0.000000 0.093750 -0.093750
v 0.000000 0.093750 -0.125000
v 0.000000 0.125000 0.093750
v 0.000000 0.125000 0.062500
v 0.000000 0.125000 -0.062500
v 0.000000 0.125000 -0.093750
v 0.000000 0.156250 0.062500
v 0.000000 0.156250 -0.062500
vt 0.343750 0.500000
vt 0.656250 0.468750
vt 0.625000 0.531250
vt 0.625000 0.000000
vt 0.593750 0.031250
vt 0.375000 0.031250
vt 0.531250 0.187500
vt 0.625000 0.187500
vt 0.625000 0.218750
vt 0.531250 0.156250
vt 0.437500 0.156250
vt 0.718750 0.250000
vt 0.750000 0.250000
vt 0.750000 0.343750
vt 0.718750 0.343750
vt 0.531250 0.093750
vt 0.531250 0.125000
vt 0.437500 0.093750
vt 0.625000 0.031250
vt 0.562500 0.062500
vt 0.562500 0.093750
vt 0.437500 0.125000
vt 0.625000 0.593750
vt 0.593750 0.593750
vt 0.718750 0.406250
vt 0.687500 0.406250
vt 0.562500 0.125000
vt 0.562500 0.156250
vt 0.687500 0.468750
vt 0.406250 0.093750
vt 0.406250 0.062500
vt 0.656250 0.531250
vt 0.593750 0.062500
vt 0.593750 0.625000
vt 0.562500 0.625000
vt 0.437500 0.625000
vt 0.406250 0.625000
vt 0.406250 0.593750
vt 0.375000 0.062500
vt 0.718750 0.218750
vt 0.343750 0.031250
vt 0.343750 0.000000
vt 0.406250 0.156250
vt 0.406250 0.125000
vt 0.437500 0.656250
vt 0.375000 0.218750
vt 0.375000 0.187500
vt 0.437500 0.187500
vt 0.562500 0.656250
vt 0.312500 0.406250
vt 0.375000 0.593750
vt 0.375000 0.562500
vt 0.281250 0.250000
vt 0.281250 0.218750
vt 0.343750 0.562500
vt 0.312500 0.500000
vt 0.281250 0.406250
vt 0.281250 0.343750
vt 0.250000 0.343750
vt 0.250000 0.250000
vn 0.000000 0.000000 1.000000
vn 0.000000 -0.000000 -1.000000
vn -1.000000 0.000000 0.000000
vn 1.000000 -0.000000 -0.000000
s off
f 45/1/1 44/2/1 48/3/1
f 2/4/1 4/5/1 5/6/1
f 24/7/1 23/8/1 28/9/1
f 20/10/1 24/7/1 21/11/1
f 32/12/1 31/13/1 35/14/1
f 28/9/1 32/12/1 36/15/1
f 12/16/1 16/17/1 13/18/1
f 2/4/1 3/19/1 4/5/1
f 8/20/1 11/21/1 12/16/1
f 17/22/1 20/10/1 21/11/1
f 48/3/1 51/23/1 52/24/1
f 36/15/1 39/25/1 40/26/1
f 16/17/1 15/27/1 19/28/1
f 40/26/1 43/29/1 44/2/1
f 13/18/1 14/30/1 9/31/1
f 44/2/1 47/32/1 48/3/1
f 24/7/1 28/9/1 40/26/1
f 16/17/1 17/22/1 13/18/1
f 4/5/1 7/33/1 8/20/1
f 52/24/1 55/34/1 56/35/1
f 57/36/1 58/37/1 53/38/1
f 9/31/1 10/39/1 5/6/1
f 4/5/1 8/20/1 5/6/1
f 48/3/1 52/24/1 53/38/1
f 9/31/1 8/20/1 12/16/1
f 16/17/1 19/28/1 20/10/1
f 28/9/1 27/40/1 32/12/1
f 32/12/1 35/14/1 36/15/1
f 28/9/1 36/15/1 40/26/1
f 6/41/1 1/42/1 5/6/1
f 13/18/1 9/31/1 12/16/1
f 22/43/1 18/44/1 17/22/1
f 5/6/1 1/42/1 2/4/1
f 5/6/1 8/20/1 9/31/1
f 56/35/1 60/45/1 57/36/1
f 16/17/1 20/10/1 17/22/1
f 29/46/1 26/47/1 25/48/1
f 40/26/1 44/2/1 24/7/1
f 56/35/1 59/49/1 60/45/1
f 21/11/1 22/43/1 17/22/1
f 25/48/1 21/11/1 24/7/1
f 24/7/1 41/50/1 25/48/1
f 52/24/1 56/35/1 57/36/1
f 53/38/1 54/51/1 49/52/1
f 52/24/1 57/36/1 53/38/1
f 24/7/1 44/2/1 41/50/1
f 33/53/1 30/54/1 29/46/1
f 29/46/1 25/48/1 41/50/1
f 48/3/1 53/38/1 49/52/1
f 49/52/1 50/55/1 45/1/1
f 45/1/1 46/56/1 41/50/1
f 41/50/1 42/57/1 37/58/1
f 37/58/1 38/59/1 34/60/1
f 33/53/1 29/46/1 37/58/1
f 37/58/1 34/60/1 33/53/1
f 49/52/1 45/1/1 48/3/1
f 41/50/1 37/58/1 29/46/1
f 44/2/1 45/1/1 41/50/1
f 105/1/2 108/3/2 104/2/2
f 62/4/2 65/6/2 64/5/2
f 84/7/2 88/9/2 83/8/2
f 80/10/2 81/11/2 84/7/2
f 92/12/2 95/14/2 91/13/2
f 88/9/2 96/15/2 92/12/2
f 72/16/2 73/18/2 76/17/2
f 62/4/2 64/5/2 63/19/2
f 68/20/2 72/16/2 71/21/2
f 77/22/2 81/11/2 80/10/2
f 108/3/2 112/24/2 111/23/2
f 96/15/2 100/26/2 99/25/2
f 76/17/2 79/28/2 75/27/2
f 100/26/2 104/2/2 103/29/2
f 73/18/2 69/31/2 74/30/2
f 104/2/2 108/3/2 107/32/2
f 84/7/2 100/26/2 88/9/2
f 76/17/2 73/18/2 77/22/2
f 64/5/2 68/20/2 67/33/2
f 112/24/2 116/35/2 115/34/2
f 117/36/2 113/38/2 118/37/2
f 69/31/2 65/6/2 70/39/2
f 64/5/2 65/6/2 68/20/2
f 108/3/2 113/38/2 112/24/2
f 69/31/2 72/16/2 68/20/2
f 76/17/2 80/10/2 79/28/2
f 88/9/2 92/12/2 87/40/2
f 92/12/2 96/15/2 95/14/2
f 88/9/2 100/26/2 96/15/2
f 66/41/2 65/6/2 61/42/2
f 73/18/2 72/16/2 69/31/2
f 82/43/2 77/22/2 78/44/2
f 65/6/2 62/4/2 61/42/2
f 65/6/2 69/31/2 68/20/2
f 116/35/2 117/36/2 120/45/2
f 76/17/2 77/22/2 80/10/2
f 89/46/2 85/48/2 86/47/2
f 100/26/2 84/7/2 104/2/2
f 116/35/2 120/45/2 119/49/2
f 81/11/2 77/22/2 82/43/2
f 85/48/2 84/7/2 81/11/2
f 84/7/2 85/48/2 101/50/2
f 112/24/2 117/36/2 116/35/2
f 113/38/2 109/52/2 114/51/2
f 112/24/2 113/38/2 117/36/2
f 84/7/2 101/50/2 104/2/2
f 93/53/2 89/46/2 90/54/2
f 89/46/2 101/50/2 85/48/2
f 108/3/2 109/52/2 113/38/2
f 109/52/2 105/1/2 110/55/2
f 105/1/2 101/50/2 106/56/2
f 101/50/2 97/58/2 102/57/2
f 97/58/2 94/60/2 98/59/2
f 93/53/2 97/58/2 89/46/2
f 97/58/2 93/53/2 94/60/2
f 109/52/2 108/3/2 105/1/2
f 101/50/2 89/46/2 97/58/2
f 104/2/2 101/50/2 105/1/2
f 165/1/3 164/2/3 168/3/3
f 122/4/3 124/5/3 125/6/3
f 144/7/3 143/8/3 148/9/3
f 140/10/3 144/7/3 141/11/3
f 152/12/3 151/13/3 155/14/3
f 148/9/3 152/12/3 156/15/3
f 132/16/3 136/17/3 133/18/3
f 122/4/3 123/19/3 124/5/3
f 128/20/3 131/21/3 132/16/3
f 137/22/3 140/10/3 141/11/3
f 168/3/3 171/23/3 172/24/3
f 156/15/3 159/25/3 160/26/3
f 136/17/3 135/27/3 139/28/3
f 160/26/3 163/29/3 164/2/3
f 133/18/3 134/30/3 129/31/3
f 164/2/3 167/32/3 168/3/3
f 144/7/3 148/9/3 160/26/3
f 136/17/3 137/22/3 133/18/3
f 124/5/3 127/33/3 128/20/3
f 172/24/3 175/34/3 176/35/3
f 177/36/3 178/37/3 173/38/3
f 129/31/3 130/39/3 125/6/3
f 124/5/3 128/20/3 125/6/3
f 168/3/3 172/24/3 173/38/3
f 129/31/3 128/20/3 132/16/3
f 136/17/3 139/28/3 140/10/3
f 148/9/3 147/40/3 152/12/3
f 152/12/3 155/14/3 156/15/3
f 148/9/3 156/15/3 160/26/3
f 126/41/3 121/42/3 125/6/3
f 133/18/3 129/31/3 132/16/3
f 142/43/3 138/44/3 137/22/3
f 125/6/3 121/42/3 122/4/3
f 125/6/3 128/20/3 129/31/3
f 176/35/3 180/45/3 177/36/3
f 136/17/3 140/10/3 137/22/3
f 149/46/3 146/47/3 145/48/3
f 160/26/3 164/2/3 144/7/3
f 176/35/3 179/49/3 180/45/3
f 141/11/3 142/43/3 137/22/3
f 145/48/3 141/11/3 144/7/3
f 144/7/3 161/50/3 145/48/3
f 172/24/3 176/35/3 177/36/3
f 173/38/3 174/51/3 169/52/3
f 172/24/3 177/36/3 173/38/3
f 144/7/3 164/2/3 161/50/3
f 153/53/3 150/54/3 149/46/3
f 149/46/3 145/48/3 161/50/3
f 168/3/3 173/38/3 169/52/3
f 169/52/3 170/55/3 165/1/3
f 165/1/3 166/56/3 161/50/3
f 161/50/3 162/57/3 157/58/3
f 157/58/3 158/59/3 154/60/3
f 153/53/3 149/46/3 157/58/3
f 157/58/3 154/60/3 153/53/3
f 169/52/3 165/1/3 168/3/3
f 161/50/3 157/58/3 149/46/3
f 164/2/3 165/1/3 161/50/3
f 225/1/4 228/3/4 224/2/4
f 182/4/4 185/6/4 184/5/4
f 204/7/4 208/9/4 203/8/4
f 200/10/4 201/11/4 204/7/4
f 212/12/4 215/14/4 211/13/4
f 208/9/4 216/15/4 212/12/4
f 192/16/4 193/18/4 196/17/4
f 182/4/4 184/5/4 183/19/4
f 188/20/4 192/16/4 191/21/4
f 197/22/4 201/11/4 200/10/4
f 228/3/4 232/24/4 231/23/4
f 216/15/4 220/26/4 219/25/4
f 196/17/4 199/28/4 195/27/4
f 220/26/4 224/2/4 223/29/4
f 193/18/4 189/31/4 194/30/4
f 224/2/4 228/3/4 227/32/4
f 204/7/4 220/26/4 208/9/4
f 196/17/4 193/18/4 197/22/4
f 184/5/4 188/20/4 187/33/4
f 232/24/4 236/35/4 235/34/4
f 237/36/4 233/38/4 238/37/4
f 189/31/4 185/6/4 190/39/4
f 184/5/4 185/6/4 188/20/4
f 228/3/4 233/38/4 232/24/4
f 189/31/4 192/16/4 188/20/4
f 196/17/4 200/10/4 199/28/4
f 208/9/4 212/12/4 207/40/4
f 212/12/4 216/15/4 215/14/4
f 208/9/4 220/26/4 216/15/4
f 186/41/4 185/6/4 181/42/4
f 193/18/4 192/16/4 189/31/4
f 202/43/4 197/22/4 198/44/4
f 185/6/4 182/4/4 181/42/4
f 185/6/4 189/31/4 188/20/4
f 236/35/4 237/36/4 240/45/4
f 196/17/4 197/22/4 200/10/4
f 209/46/4 205/48/4 206/47/4
f 220/26/4 204/7/4 224/2/4
f 236/35/4 240/45/4 239/49/4
f 201/11/4 197/22/4 202/43/4
f 205/48/4 204/7/4 201/11/4
f 204/7/4 205/48/4 221/50/4
f 232/24/4 237/36/4 236/35/4
f 233/38/4 229/52/4 234/51/4
f 232/24/4 233/38/4 237/36/4
f 204/7/4 221/50/4 224/2/4
f 213/53/4 209/46/4 210/54/4
f 209/46/4 221/50/4 205/48/4
f 228/3/4 229/52/4 233/38/4
f 229/52/4 225/1/4 230/55/4
f 225/1/4 221/50/4 226/56/4
f 221/50/4 217/58/4 222/57/4
f 217/58/4 214/60/4 218/59/4
f 213/53/4 217/58/4 209/46/4
f 217/58/4 213/53/4 214/60/4
f 229/52/4 228/3/4 225/1/4
f 221/50/4 209/46/4 217/58/4
f 224/2/4 221/50/4 225/1/4
