# Blender v2.76 (sub 0) OBJ File: ''
# www.blender.org
o jail_lamp_Cube.006
v 0.055810 -0.506693 -0.056345
v 0.055810 -0.129392 -0.056345
v 0.055810 -0.129392 0.056345
v -0.056881 -0.506693 -0.056345
v -0.056881 -0.129392 -0.056345
v -0.056881 -0.506693 0.056345
v -0.056881 -0.129392 0.056345
v 0.055810 -0.506693 0.056345
v 0.122923 -0.138671 -0.123458
v 0.122923 -0.028279 -0.123458
v 0.122923 -0.028279 0.123458
v -0.123994 -0.138671 -0.123458
v -0.123994 -0.028279 -0.123458
v -0.123994 -0.138671 0.123458
v -0.123994 -0.028279 0.123458
v 0.122923 -0.138671 0.123458
v -0.100566 -0.031909 -0.100030
v 0.099495 -0.031909 -0.100030
v 0.099495 -0.031909 0.100030
v -0.100566 0.327136 -0.100030
v 0.099495 0.327136 -0.100030
v -0.100566 0.327136 0.100031
v 0.099495 0.327136 0.100031
v -0.100566 -0.031909 0.100030
v -0.045227 -0.048575 0.113564
v -0.045227 -0.048575 -0.113564
v 0.044155 -0.048575 -0.113564
v -0.045226 0.343802 -0.113564
v 0.044155 0.343802 -0.113564
v -0.045227 0.343802 0.113564
v 0.044155 0.343802 0.113564
v 0.044155 -0.048575 0.113564
v 0.111334 -0.045649 -0.044024
v 0.111334 -0.045649 0.044024
v -0.112406 -0.045649 0.044024
v 0.111334 0.340876 -0.044024
v 0.111334 0.340876 0.044024
v -0.112406 0.340876 -0.044024
v -0.112406 0.340876 0.044024
v -0.112406 -0.045649 -0.044024
vt 0.749075 0.473275
vt 0.749075 0.778372
vt 0.626902 0.778372
vt 0.841756 0.879290
vt 0.841756 0.998258
vt 0.596058 0.998258
vt 0.743153 0.977959
vt 0.743153 0.993098
vt 0.711887 0.993098
vt 0.722492 0.687982
vt 0.747312 0.687982
vt 0.747312 0.739242
vt 0.213486 0.630265
vt 0.213486 0.638290
vt 0.001358 0.638290
vt 0.212370 0.994961
vt 0.002474 0.994961
vt 0.002474 0.631992
vt 0.001358 0.986710
vt 0.213486 0.986710
vt 0.213486 0.994735
vt 0.001995 0.631545
vt 0.212849 0.631545
vt 0.212849 0.995409
vt 0.213486 0.629288
vt 0.213485 0.997665
vt 0.001358 0.997665
vt 0.001358 0.629288
vt 0.381421 0.580745
vt 0.314752 0.998376
vt 0.405746 0.998376
vt 0.405746 0.565445
vt 0.316795 0.997851
vt 0.316795 0.911115
vt 0.403530 0.911115
vt 0.314752 0.565445
vt 0.404841 0.566790
vt 0.315235 0.566790
vt 0.315235 0.997717
vt 0.505076 0.580745
vt 0.438407 0.998376
vt 0.529400 0.998376
vt 0.529400 0.565445
vt 0.440449 0.997851
vt 0.440449 0.911115
vt 0.527184 0.911115
vt 0.438407 0.565445
vt 0.438889 0.566790
vt 0.438889 0.997717
vt 0.528495 0.997717
vt 0.528495 0.566790
vt 0.626902 0.473275
vt 0.596058 0.879290
vt 0.711887 0.977959
vt 0.722492 0.739242
vt 0.001358 0.630265
vt 0.212370 0.631992
vt 0.001358 0.994735
vt 0.001995 0.995409
vt 0.403530 0.997851
vt 0.404841 0.997717
vt 0.527184 0.997851
vn 1.000000 0.000000 0.000000
vn 0.000000 0.000000 -1.000000
vn -1.000000 0.000000 0.000000
vn 0.000000 -0.000000 1.000000
vn 0.000000 1.000000 0.000000
vn 0.000000 -1.000000 0.000000
s 1
f 1/1/1 2/2/1 3/3/1
f 4/1/2 5/2/2 2/3/2
f 6/1/3 7/2/3 5/3/3
f 8/1/4 3/2/4 7/3/4
f 2/1/5 5/2/5 7/3/5
f 4/1/6 1/2/6 8/3/6
f 9/4/1 10/5/1 11/6/1
f 12/4/2 13/5/2 10/6/2
f 14/4/3 15/5/3 13/6/3
f 16/4/4 11/5/4 15/6/4
f 10/7/5 13/8/5 15/9/5
f 12/10/6 9/11/6 16/12/6
f 17/13/6 18/14/6 19/15/6
f 20/16/2 21/17/2 18/18/2
f 20/19/5 22/20/5 23/21/5
f 24/22/4 19/23/4 23/24/4
f 18/25/1 21/26/1 23/27/1
f 20/27/3 17/28/3 24/25/3
f 25/29/6 26/29/6 27/29/6
f 28/30/2 29/31/2 27/32/2
f 30/33/5 31/34/5 29/35/5
f 25/36/4 32/32/4 31/31/4
f 32/37/1 27/38/1 29/39/1
f 28/39/3 26/38/3 25/37/3
f 33/40/6 34/40/6 35/40/6
f 36/41/1 37/42/1 34/43/1
f 38/44/5 39/45/5 37/46/5
f 40/47/3 35/43/3 39/42/3
f 34/48/4 37/49/4 39/50/4
f 36/49/2 33/48/2 40/51/2
f 8/52/1 1/1/1 3/3/1
f 1/52/2 4/1/2 2/3/2
f 4/52/3 6/1/3 5/3/3
f 6/52/4 8/1/4 7/3/4
f 3/52/5 2/1/5 7/3/5
f 6/52/6 4/1/6 8/3/6
f 16/53/1 9/4/1 11/6/1
f 9/53/2 12/4/2 10/6/2
f 12/53/3 14/4/3 13/6/3
f 14/53/4 16/4/4 15/6/4
f 11/54/5 10/7/5 15/9/5
f 14/55/6 12/10/6 16/12/6
f 24/56/6 17/13/6 19/15/6
f 17/57/2 20/16/2 18/18/2
f 21/58/5 20/19/5 23/21/5
f 22/59/4 24/22/4 23/24/4
f 19/28/1 18/25/1 23/27/1
f 22/26/3 20/27/3 24/25/3
f 32/29/6 25/29/6 27/29/6
f 26/36/2 28/30/2 27/32/2
f 28/60/5 30/33/5 29/35/5
f 30/30/4 25/36/4 31/31/4
f 31/61/1 32/37/1 29/39/1
f 30/61/3 28/39/3 25/37/3
f 40/40/6 33/40/6 35/40/6
f 33/47/1 36/41/1 34/43/1
f 36/62/5 38/44/5 37/46/5
f 38/41/3 40/47/3 39/42/3
f 35/51/4 34/48/4 39/50/4
f 38/50/2 36/49/2 40/51/2
