# Blender v2.76 (sub 0) OBJ File: ''
# www.blender.org
o bed_jail_Cube.001
v -0.500000 0.500000 -0.500000
v -0.500000 0.374289 -0.500000
v -0.500000 0.374289 0.366138
v 0.500000 0.500000 -0.500000
v 0.500000 0.374289 -0.500000
v 0.500000 0.500000 0.366138
v 0.500000 0.374289 0.366138
v -0.500000 0.500000 0.366138
v -0.052776 0.384588 0.077861
v -0.052776 0.452435 -0.002996
v -0.052776 -0.248678 -0.591300
v 0.052776 0.452435 -0.002996
v 0.052776 -0.248678 -0.591300
v 0.052776 0.384588 0.077861
v 0.052776 -0.316525 -0.510442
v -0.052776 -0.316525 -0.510442
vt 0.508285 0.997574
vt 0.508285 0.908675
vt 0.597184 0.908675
vt 0.904147 0.999599
vt 0.904147 0.908083
vt 0.000732 0.908083
vt 0.434554 0.942771
vt 0.434554 0.965896
vt 0.411429 0.965896
vt 0.895917 0.837051
vt 0.008810 0.837051
vt 0.008810 0.072315
vt 0.242621 0.965073
vt 0.242621 0.908728
vt 0.186277 0.908728
vt 0.186277 0.965073
vt 0.426156 0.948548
vt 0.267515 0.942841
vt 0.597184 0.997574
vt 0.000732 0.999599
vt 0.411429 0.942771
vt 0.895917 0.072315
vn -1.000000 0.000000 0.000000
vn 0.000000 0.000000 -1.000000
vn 1.000000 0.000000 0.000000
vn 0.000000 -0.000000 1.000000
vn 0.000000 -1.000000 -0.000000
vn 0.000000 1.000000 0.000000
vn 0.000000 0.642800 -0.766000
vn 0.000000 -0.642800 0.766000
vn 0.000000 -0.766000 -0.642800
vn 0.000000 0.766000 0.642800
s 1
f 1/1/1 2/2/1 3/3/1
f 4/4/2 5/5/2 2/6/2
f 6/1/3 7/2/3 5/3/3
f 8/4/4 3/5/4 7/6/4
f 2/7/5 5/8/5 7/9/5
f 4/10/6 1/11/6 8/12/6
f 9/13/1 10/14/1 11/15/1
f 12/16/7 13/13/7 11/14/7
f 12/16/3 14/15/3 15/14/3
f 9/13/8 16/16/8 15/15/8
f 11/17/9 13/17/9 15/17/9
f 12/18/10 10/18/10 9/18/10
f 8/19/1 1/1/1 3/3/1
f 1/20/2 4/4/2 2/6/2
f 4/19/3 6/1/3 5/3/3
f 6/20/4 8/4/4 7/6/4
f 3/21/5 2/7/5 7/9/5
f 6/22/6 4/10/6 8/12/6
f 16/16/1 9/13/1 11/15/1
f 10/15/7 12/16/7 11/14/7
f 13/13/3 12/16/3 15/14/3
f 14/14/8 9/13/8 15/15/8
f 16/17/9 11/17/9 15/17/9
f 14/18/10 12/18/10 9/18/10
