# Blender v2.76 (sub 0) OBJ File: ''
# www.blender.org
o Cube.001
v -0.500000 0.050000 0.050000
v -0.500000 0.050000 -0.050000
v -0.500000 -0.050000 -0.050000
v -0.500000 -0.050000 0.050000
v 0.500000 0.050000 -0.050000
v 0.500000 -0.050000 -0.050000
v 0.500000 0.050000 0.050000
v 0.500000 -0.050000 0.050000
v -0.438764 0.249989 -0.198096
v -0.438764 0.198096 -0.249989
v -0.438764 -0.249989 0.198096
v -0.438764 -0.198096 0.249989
v -0.365376 0.198096 -0.249989
v -0.365376 -0.249989 0.198096
v -0.365376 0.249989 -0.198096
v -0.365376 -0.198096 0.249989
v -0.171441 0.198096 0.249989
v -0.171441 0.249989 0.198096
v -0.171441 -0.198096 -0.249989
v -0.171441 -0.249989 -0.198096
v -0.098054 0.249989 0.198096
v -0.098054 -0.198096 -0.249989
v -0.098054 0.198096 0.249989
v -0.098054 -0.249989 -0.198096
v 0.095881 0.249989 -0.198096
v 0.095881 0.198096 -0.249989
v 0.095881 -0.249989 0.198096
v 0.095881 -0.198096 0.249989
v 0.169268 0.198096 -0.249989
v 0.169268 -0.249989 0.198096
v 0.169268 0.249989 -0.198096
v 0.169268 -0.198096 0.249989
v 0.361030 0.198096 0.249989
v 0.361030 0.249989 0.198096
v 0.361030 -0.198096 -0.249989
v 0.361030 -0.249989 -0.198096
v 0.434417 0.249989 0.198096
v 0.434417 -0.198096 -0.249989
v 0.434417 0.198096 0.249989
v 0.434417 -0.249989 -0.198096
vt 0.247300 0.753315
vt 0.247300 0.840964
vt 0.159651 0.840964
vt 0.000000 0.998846
vt 0.000000 0.879653
vt 1.000000 0.879653
vt 0.005013 0.880337
vt 0.991237 0.880337
vt 0.991237 0.998162
vt 0.000317 0.880826
vt 0.998230 0.880826
vt 0.998229 0.997673
vt 0.090403 0.842017
vt 0.090403 0.473044
vt 0.001863 0.473044
vt 0.001863 0.842017
vt 0.159204 0.715670
vt 0.247445 0.715670
vt 0.247445 0.627428
vt 0.159204 0.627428
vt 0.159651 0.753315
vt 1.000000 0.998847
vt 0.005013 0.998162
vt 0.000317 0.997673
vn -1.000000 0.000000 0.000000
vn 0.000000 0.000000 -1.000000
vn 1.000000 0.000000 0.000000
vn 0.000000 -0.000000 1.000000
vn 0.000000 -1.000000 -0.000000
vn 0.000000 1.000000 0.000000
vn 0.000000 -0.707100 -0.707100
vn 0.000000 0.707100 0.707100
vn 0.000000 -0.707100 0.707100
vn 0.000000 0.707100 -0.707100
s 1
f 2/1/1 3/2/1 4/3/1
f 5/4/2 6/5/2 3/6/2
f 7/1/3 8/2/3 6/3/3
f 1/4/4 4/5/4 8/6/4
f 3/7/5 6/8/5 8/9/5
f 5/10/6 2/11/6 1/12/6
f 10/13/1 11/14/1 12/15/1
f 13/13/7 14/14/7 11/15/7
f 15/16/3 16/15/3 14/14/3
f 9/16/8 12/15/8 16/14/8
f 11/17/9 14/18/9 16/19/9
f 13/18/10 10/17/10 9/20/10
f 18/13/1 19/14/1 20/15/1
f 21/13/10 22/14/10 19/15/10
f 23/16/3 24/15/3 22/14/3
f 17/16/9 20/15/9 24/14/9
f 19/17/7 22/18/7 24/19/7
f 21/18/8 18/17/8 17/20/8
f 26/13/1 27/14/1 28/15/1
f 29/13/7 30/14/7 27/15/7
f 31/16/3 32/15/3 30/14/3
f 25/16/8 28/15/8 32/14/8
f 27/17/9 30/18/9 32/19/9
f 29/18/10 26/17/10 25/20/10
f 34/13/1 35/14/1 36/15/1
f 37/13/10 38/14/10 35/15/10
f 39/16/3 40/15/3 38/14/3
f 33/16/9 36/15/9 40/14/9
f 35/17/7 38/18/7 40/19/7
f 37/18/8 34/17/8 33/20/8
f 1/21/1 2/1/1 4/3/1
f 2/22/2 5/4/2 3/6/2
f 5/21/3 7/1/3 6/3/3
f 7/22/4 1/4/4 8/6/4
f 4/23/5 3/7/5 8/9/5
f 7/24/6 5/10/6 1/12/6
f 9/16/1 10/13/1 12/15/1
f 10/16/7 13/13/7 11/15/7
f 13/13/3 15/16/3 14/14/3
f 15/13/8 9/16/8 16/14/8
f 12/20/9 11/17/9 16/19/9
f 15/19/10 13/18/10 9/20/10
f 17/16/1 18/13/1 20/15/1
f 18/16/10 21/13/10 19/15/10
f 21/13/3 23/16/3 22/14/3
f 23/13/9 17/16/9 24/14/9
f 20/20/7 19/17/7 24/19/7
f 23/19/8 21/18/8 17/20/8
f 25/16/1 26/13/1 28/15/1
f 26/16/7 29/13/7 27/15/7
f 29/13/3 31/16/3 30/14/3
f 31/13/8 25/16/8 32/14/8
f 28/20/9 27/17/9 32/19/9
f 31/19/10 29/18/10 25/20/10
f 33/16/1 34/13/1 36/15/1
f 34/16/10 37/13/10 35/15/10
f 37/13/3 39/16/3 38/14/3
f 39/13/9 33/16/9 40/14/9
f 36/20/7 35/17/7 40/19/7
f 39/19/8 37/18/8 33/20/8
