# Blender v2.76 (sub 0) OBJ File: ''
# www.blender.org
o stool_jail_Cube.002
v -0.306054 0.079332 -0.306054
v -0.306054 0.014630 -0.306054
v -0.306054 0.014630 0.306054
v 0.306054 0.079332 -0.306054
v 0.306054 0.014630 -0.306054
v 0.306054 0.079332 0.306054
v 0.306054 0.014630 0.306054
v -0.306054 0.079332 0.306054
v -0.048474 0.019097 -0.048474
v -0.048474 -0.500563 -0.048474
v -0.048474 -0.500563 0.048474
v 0.048474 0.019097 -0.048474
v 0.048474 -0.500563 -0.048474
v 0.048474 0.019097 0.048474
v 0.048474 -0.500563 0.048474
v -0.048474 0.019097 0.048474
vt 0.058937 0.472284
vt 0.058937 0.493265
vt 0.037956 0.493265
vt 0.528737 0.599066
vt 0.528737 0.998220
vt 0.129583 0.998220
vt 0.090658 0.997108
vt 0.090658 0.476825
vt 0.001566 0.476825
vt 0.089292 0.998248
vt 0.089292 0.473963
vt 0.003338 0.473963
vt 0.001566 0.997108
vt 0.003338 0.998248
vt 0.068359 0.480469
vt 0.041016 0.482422
vt 0.037956 0.472284
vt 0.129583 0.599066
vn -1.000000 0.000000 0.000000
vn 0.000000 0.000000 -1.000000
vn 1.000000 0.000000 0.000000
vn 0.000000 0.000000 1.000000
vn 0.000000 -1.000000 -0.000000
vn 0.000000 1.000000 0.000000
s 1
f 1/1/1 2/2/1 3/3/1
f 4/1/2 5/2/2 2/3/2
f 6/1/3 7/2/3 5/3/3
f 8/1/4 3/2/4 7/3/4
f 2/4/5 5/5/5 7/6/5
f 4/4/6 1/5/6 8/6/6
f 9/7/1 10/8/1 11/9/1
f 12/10/2 13/11/2 10/12/2
f 14/13/3 15/9/3 13/8/3
f 16/14/4 11/12/4 15/11/4
f 10/15/5 13/15/5 15/15/5
f 12/16/6 9/16/6 16/16/6
f 8/17/1 1/1/1 3/3/1
f 1/17/2 4/1/2 2/3/2
f 4/17/3 6/1/3 5/3/3
f 6/17/4 8/1/4 7/3/4
f 3/18/5 2/4/5 7/6/5
f 6/18/6 4/4/6 8/6/6
f 16/13/1 9/7/1 11/9/1
f 9/14/2 12/10/2 10/12/2
f 12/7/3 14/13/3 13/8/3
f 14/10/4 16/14/4 15/11/4
f 11/15/5 10/15/5 15/15/5
f 14/16/6 12/16/6 16/16/6
