# Blender v2.76 (sub 0) OBJ File: ''
# www.blender.org
o Cube.002
v 0.500000 0.500000 0.500000
v 0.406250 0.406250 0.500000
v 0.406250 -0.406250 0.500000
v 0.500000 -0.500000 0.500000
v 0.312500 -0.406250 0.500000
v 0.312500 0.406250 0.500000
v 0.187500 0.406250 0.500000
v 0.187500 -0.406250 0.500000
v 0.062500 -0.406250 0.500000
v 0.062500 0.406250 0.500000
v -0.062500 0.406250 0.500000
v -0.062500 -0.406250 0.500000
v -0.187500 -0.406250 0.500000
v -0.187500 0.406250 0.500000
v -0.312500 0.406250 0.500000
v -0.312500 -0.406250 0.500000
v -0.406250 -0.406250 0.500000
v -0.500000 -0.500000 0.500000
v -0.406250 0.406250 0.500000
v -0.500000 0.500000 0.500000
v 0.500000 0.500000 -0.500000
v 0.406250 0.500000 -0.406250
v 0.406250 0.500000 0.406250
v 0.500000 0.500000 0.500000
v 0.312500 0.500000 0.406250
v 0.312500 0.500000 -0.406250
v 0.187500 0.500000 -0.406250
v 0.187500 0.500000 0.406250
v 0.062500 0.500000 0.406250
v 0.062500 0.500000 -0.406250
v -0.062500 0.500000 -0.406250
v -0.062500 0.500000 0.406250
v -0.187500 0.500000 0.406250
v -0.187500 0.500000 -0.406250
v -0.312500 0.500000 -0.406250
v -0.312500 0.500000 0.406250
v -0.406250 0.500000 0.406250
v -0.500000 0.500000 0.500000
v -0.406250 0.500000 -0.406250
v -0.500000 0.500000 -0.500000
v 0.500000 -0.500000 0.500000
v 0.406250 -0.500000 0.406250
v 0.406250 -0.500000 -0.406250
v 0.500000 -0.500000 -0.500000
v 0.312500 -0.500000 -0.406250
v 0.312500 -0.500000 0.406250
v 0.187500 -0.500000 0.406250
v 0.187500 -0.500000 -0.406250
v 0.062500 -0.500000 -0.406250
v 0.062500 -0.500000 0.406250
v -0.062500 -0.500000 0.406250
v -0.062500 -0.500000 -0.406250
v -0.187500 -0.500000 -0.406250
v -0.187500 -0.500000 0.406250
v -0.312500 -0.500000 0.406250
v -0.312500 -0.500000 -0.406250
v -0.406250 -0.500000 -0.406250
v -0.500000 -0.500000 -0.500000
v -0.406250 -0.500000 0.406250
v -0.500000 -0.500000 0.500000
v -0.500000 0.500000 0.500000
v -0.500000 0.406250 0.406250
v -0.500000 -0.406250 0.406250
v -0.500000 -0.500000 0.500000
v -0.500000 -0.406250 0.312500
v -0.500000 0.406250 0.312500
v -0.500000 0.406250 0.187500
v -0.500000 -0.406250 0.187500
v -0.500000 -0.406250 0.062500
v -0.500000 0.406250 0.062500
v -0.500000 0.406250 -0.062500
v -0.500000 -0.406250 -0.062500
v -0.500000 -0.406250 -0.187500
v -0.500000 0.406250 -0.187500
v -0.500000 0.406250 -0.312500
v -0.500000 -0.406250 -0.312500
v -0.500000 -0.406250 -0.406250
v -0.500000 -0.500000 -0.500000
v -0.500000 0.406250 -0.406250
v -0.500000 0.500000 -0.500000
v -0.500000 0.500000 -0.500000
v -0.406250 0.406250 -0.500000
v -0.406250 -0.406250 -0.500000
v -0.500000 -0.500000 -0.500000
v -0.312500 -0.406250 -0.500000
v -0.312500 0.406250 -0.500000
v -0.187500 0.406250 -0.500000
v -0.187500 -0.406250 -0.500000
v -0.062500 -0.406250 -0.500000
v -0.062500 0.406250 -0.500000
v 0.062500 0.406250 -0.500000
v 0.062500 -0.406250 -0.500000
v 0.187500 -0.406250 -0.500000
v 0.187500 0.406250 -0.500000
v 0.312500 0.406250 -0.500000
v 0.312500 -0.406250 -0.500000
v 0.406250 -0.406250 -0.500000
v 0.500000 -0.500000 -0.500000
v 0.406250 0.406250 -0.500000
v 0.500000 0.500000 -0.500000
v 0.500000 0.500000 -0.500000
v 0.500000 0.406250 -0.406250
v 0.500000 -0.406250 -0.406250
v 0.500000 -0.500000 -0.500000
v 0.500000 -0.406250 -0.312500
v 0.500000 0.406250 -0.312500
v 0.500000 0.406250 -0.187500
v 0.500000 -0.406250 -0.187500
v 0.500000 -0.406250 -0.062500
v 0.500000 0.406250 -0.062500
v 0.500000 0.406250 0.062500
v 0.500000 -0.406250 0.062500
v 0.500000 -0.406250 0.187500
v 0.500000 0.406250 0.187500
v 0.500000 0.406250 0.312500
v 0.500000 -0.406250 0.312500
v 0.500000 -0.406250 0.406250
v 0.500000 -0.500000 0.500000
v 0.500000 0.406250 0.406250
v 0.500000 0.500000 0.500000
vt 0.906250 0.906250
vt 0.906250 0.093750
vt 0.998256 0.003294
vt 0.812500 0.906250
vt 0.687500 0.906250
vt 0.687500 0.093750
vt 0.562500 0.906250
vt 0.437500 0.906250
vt 0.437500 0.093750
vt 0.312500 0.906250
vt 0.187500 0.906250
vt 0.187500 0.093750
vt 0.002753 0.003294
vt 0.093750 0.093750
vt 0.093750 0.906250
vt 0.002753 0.998047
vt 0.093872 0.906250
vt 0.998256 0.998047
vt 0.812500 0.093750
vt 0.562500 0.093750
vt 0.312500 0.093750
vn -0.000000 -0.000000 1.000000
vn 0.000000 1.000000 0.000000
vn 0.000000 -1.000000 -0.000000
vn -1.000000 0.000000 0.000000
vn 0.000000 0.000000 -1.000000
vn 1.000000 0.000000 0.000000
s 1
f 2/1/1 3/2/1 4/3/1
f 6/4/1 7/5/1 8/6/1
f 10/7/1 11/8/1 12/9/1
f 14/10/1 15/11/1 16/12/1
f 18/13/1 4/3/1 3/2/1
f 17/14/1 19/15/1 20/16/1
f 20/16/1 19/17/1 2/1/1
f 22/1/2 23/2/2 24/3/2
f 26/4/2 27/5/2 28/6/2
f 30/7/2 31/8/2 32/9/2
f 34/10/2 35/11/2 36/12/2
f 38/13/2 24/3/2 23/2/2
f 37/14/2 39/15/2 40/16/2
f 40/16/2 39/17/2 22/1/2
f 42/1/3 43/2/3 44/3/3
f 46/4/3 47/5/3 48/6/3
f 50/7/3 51/8/3 52/9/3
f 54/10/3 55/11/3 56/12/3
f 58/13/3 44/3/3 43/2/3
f 57/14/3 59/15/3 60/16/3
f 60/16/3 59/17/3 42/1/3
f 62/1/4 63/2/4 64/3/4
f 66/4/4 67/5/4 68/6/4
f 70/7/4 71/8/4 72/9/4
f 74/10/4 75/11/4 76/12/4
f 78/13/4 64/3/4 63/2/4
f 77/14/4 79/15/4 80/16/4
f 80/16/4 79/17/4 62/1/4
f 82/1/5 83/2/5 84/3/5
f 86/4/5 87/5/5 88/6/5
f 90/7/5 91/8/5 92/9/5
f 94/10/5 95/11/5 96/12/5
f 98/13/5 84/3/5 83/2/5
f 97/14/5 99/15/5 100/16/5
f 100/16/5 99/17/5 82/1/5
f 102/1/6 103/2/6 104/3/6
f 106/4/6 107/5/6 108/6/6
f 110/7/6 111/8/6 112/9/6
f 114/10/6 115/11/6 116/12/6
f 118/13/6 104/3/6 103/2/6
f 117/14/6 119/15/6 120/16/6
f 120/16/6 119/17/6 102/1/6
f 1/18/1 2/1/1 4/3/1
f 5/19/1 6/4/1 8/6/1
f 9/20/1 10/7/1 12/9/1
f 13/21/1 14/10/1 16/12/1
f 17/14/1 18/13/1 3/2/1
f 18/13/1 17/14/1 20/16/1
f 1/18/1 20/16/1 2/1/1
f 21/18/2 22/1/2 24/3/2
f 25/19/2 26/4/2 28/6/2
f 29/20/2 30/7/2 32/9/2
f 33/21/2 34/10/2 36/12/2
f 37/14/2 38/13/2 23/2/2
f 38/13/2 37/14/2 40/16/2
f 21/18/2 40/16/2 22/1/2
f 41/18/3 42/1/3 44/3/3
f 45/19/3 46/4/3 48/6/3
f 49/20/3 50/7/3 52/9/3
f 53/21/3 54/10/3 56/12/3
f 57/14/3 58/13/3 43/2/3
f 58/13/3 57/14/3 60/16/3
f 41/18/3 60/16/3 42/1/3
f 61/18/4 62/1/4 64/3/4
f 65/19/4 66/4/4 68/6/4
f 69/20/4 70/7/4 72/9/4
f 73/21/4 74/10/4 76/12/4
f 77/14/4 78/13/4 63/2/4
f 78/13/4 77/14/4 80/16/4
f 61/18/4 80/16/4 62/1/4
f 81/18/5 82/1/5 84/3/5
f 85/19/5 86/4/5 88/6/5
f 89/20/5 90/7/5 92/9/5
f 93/21/5 94/10/5 96/12/5
f 97/14/5 98/13/5 83/2/5
f 98/13/5 97/14/5 100/16/5
f 81/18/5 100/16/5 82/1/5
f 101/18/6 102/1/6 104/3/6
f 105/19/6 106/4/6 108/6/6
f 109/20/6 110/7/6 112/9/6
f 113/21/6 114/10/6 116/12/6
f 117/14/6 118/13/6 103/2/6
f 118/13/6 117/14/6 120/16/6
f 101/18/6 120/16/6 102/1/6
