# Blender v2.76 (sub 0) OBJ File: ''
# www.blender.org
o table_jail_Cube.003
v -0.500000 0.500000 -0.500000
v -0.500000 0.413618 -0.500000
v -0.500000 0.413618 0.500000
v 0.500000 0.500000 -0.500000
v 0.500000 0.413618 -0.500000
v 0.500000 0.500000 0.500000
v 0.500000 0.413618 0.500000
v -0.500000 0.500000 0.500000
v -0.083510 0.417979 -0.083510
v -0.083510 -0.498518 -0.083510
v -0.083510 -0.498518 0.083510
v 0.083510 0.417979 -0.083510
v 0.083510 -0.498518 -0.083510
v 0.083510 0.417979 0.083510
v 0.083510 -0.498518 0.083510
v -0.083510 0.417979 0.083510
v -0.304342 -0.487944 -0.304342
v -0.304342 -0.501738 -0.304342
v -0.304342 -0.501738 0.304342
v 0.304342 -0.487944 -0.304342
v 0.304342 -0.501738 -0.304342
v 0.304342 -0.487944 0.304342
v 0.304342 -0.501738 0.304342
v -0.304342 -0.487944 0.304342
vt 0.090653 0.502612
vt 0.033543 0.502612
vt 0.033543 0.967451
vt 0.089511 0.505109
vt 0.033572 0.505109
vt 0.033572 0.966322
vt 0.090653 0.967451
vt 0.089511 0.966322
vt 0.529746 0.598036
vt 0.529746 0.999254
vt 0.128528 0.999254
vt 0.090109 0.999215
vt 0.090109 0.474673
vt 0.002086 0.474673
vt 0.089189 0.998380
vt 0.089189 0.475389
vt 0.001941 0.475389
vt 0.002086 0.999215
vt 0.001941 0.998380
vt 0.002351 0.492542
vt 0.021536 0.492542
vt 0.021536 0.473356
vt 0.002351 0.473356
vt 0.055807 0.507581
vt 0.055807 0.474360
vt 0.036925 0.489848
vt 0.449852 0.922391
vt 0.202855 0.922391
vt 0.202855 0.675394
vt 0.128528 0.598036
vt 0.449852 0.675394
vn -1.000000 0.000000 0.000000
vn 0.000000 0.000000 -1.000000
vn 1.000000 0.000000 0.000000
vn 0.000000 0.000000 1.000000
vn 0.000000 -1.000000 -0.000000
vn 0.000000 1.000000 0.000000
s 1
f 1/1/1 2/2/1 3/3/1
f 4/4/2 5/5/2 2/6/2
f 6/7/3 7/3/3 5/2/3
f 8/8/4 3/6/4 7/5/4
f 2/9/5 5/10/5 7/11/5
f 4/9/6 1/10/6 8/11/6
f 9/12/1 10/13/1 11/14/1
f 12/15/2 13/16/2 10/17/2
f 14/18/3 15/14/3 13/13/3
f 16/19/4 11/17/4 15/16/4
f 10/20/5 13/21/5 15/22/5
f 12/21/6 9/20/6 16/23/6
f 17/24/1 18/24/1 19/24/1
f 20/25/2 21/25/2 18/25/2
f 22/24/3 23/24/3 21/24/3
f 24/25/4 19/25/4 23/25/4
f 18/26/5 21/26/5 23/26/5
f 20/27/6 17/28/6 24/29/6
f 8/7/1 1/1/1 3/3/1
f 1/8/2 4/4/2 2/6/2
f 4/1/3 6/7/3 5/2/3
f 6/4/4 8/8/4 7/5/4
f 3/30/5 2/9/5 7/11/5
f 6/30/6 4/9/6 8/11/6
f 16/18/1 9/12/1 11/14/1
f 9/19/2 12/15/2 10/17/2
f 12/12/3 14/18/3 13/13/3
f 14/15/4 16/19/4 15/16/4
f 11/23/5 10/20/5 15/22/5
f 14/22/6 12/21/6 16/23/6
f 24/24/1 17/24/1 19/24/1
f 17/25/2 20/25/2 18/25/2
f 20/24/3 22/24/3 21/24/3
f 22/25/4 24/25/4 23/25/4
f 19/26/5 18/26/5 23/26/5
f 22/31/6 20/27/6 24/29/6
