# Blender v2.76 (sub 0) OBJ File: ''
# www.blender.org
o jail_camera_Cube.005
v -0.168546 0.327751 -0.105249
v -0.273796 0.145453 -0.105249
v -0.273796 0.145453 0.105249
v 0.192807 0.119123 -0.105249
v 0.087558 -0.063174 -0.105249
v 0.192807 0.119123 0.105249
v 0.087558 -0.063174 0.105249
v -0.168546 0.327751 0.105249
v -0.035493 0.506663 -0.035493
v -0.035493 0.201216 -0.035493
v -0.035493 0.201216 0.035493
v 0.035493 0.506663 -0.035493
v 0.035493 0.201216 -0.035493
v 0.035493 0.506663 0.035493
v 0.035493 0.201216 0.035493
v -0.035493 0.506663 0.035493
v 0.163640 0.074170 -0.051250
v 0.112390 -0.014597 -0.051250
v 0.112390 -0.014597 0.051250
v 0.197729 0.054489 -0.051250
v 0.146479 -0.034278 -0.051250
v 0.197729 0.054489 0.051250
v 0.146479 -0.034278 0.051250
v 0.163640 0.074170 0.051250
v 0.210981 0.082433 -0.082077
v 0.128904 -0.059728 -0.082077
v 0.128904 -0.059728 0.082077
v 0.265575 0.050914 -0.082077
v 0.183498 -0.091247 -0.082077
v 0.265575 0.050914 0.082077
v 0.183498 -0.091247 0.082077
v 0.210981 0.082433 0.082077
v 0.196183 -0.082327 -0.068008
v 0.196183 -0.082327 0.068008
v 0.264192 0.035468 0.068008
v 0.254776 0.040904 0.068008
v 0.186768 -0.076890 0.068008
v 0.186768 -0.076890 -0.068008
v 0.264192 0.035468 -0.068008
v 0.254776 0.040904 -0.068008
vt 0.401559 0.464585
vt 0.401559 0.287682
vt 0.224657 0.287682
vt 0.064518 0.967506
vt 0.064518 0.751952
vt 0.497719 0.751952
vt 0.224657 0.464585
vt 0.497719 0.967506
vt 0.534409 0.756193
vt 0.901450 0.756193
vt 0.901450 0.964144
vt 0.496701 0.715918
vt 0.065279 0.715918
vt 0.065279 0.538450
vt 0.152223 0.465510
vt 0.152223 0.253138
vt 0.065570 0.253138
vt 0.151337 0.465510
vt 0.151337 0.253138
vt 0.064685 0.253138
vt 0.065570 0.465510
vt 0.064685 0.465510
vt 0.000000 0.000000
vt 0.243618 0.452784
vt 0.642264 0.691480
vt 0.366657 0.409720
vt 0.647186 0.689019
vt 0.644725 0.634882
vt 0.578284 0.625039
vt 0.872507 0.502969
vt 0.753376 0.622100
vt 0.753376 0.502969
vt 0.872507 0.622100
vt 0.534409 0.964144
vt 0.496701 0.538450
vn -0.866000 0.500000 0.000000
vn 0.000000 0.000000 -1.000000
vn 0.866000 -0.500000 -0.000000
vn 0.000000 -0.000000 1.000000
vn -0.500000 -0.866000 -0.000000
vn 0.500000 0.866000 0.000000
vn -1.000000 0.000000 0.000000
vn 1.000000 0.000000 0.000000
vn 0.000000 -1.000000 0.000000
vn 0.000000 1.000000 0.000000
vn -0.500100 -0.866000 -0.000000
s 1
f 1/1/1 2/2/1 3/3/1
f 4/4/2 5/5/2 2/6/2
f 6/7/3 7/3/3 5/2/3
f 6/8/4 8/4/4 3/5/4
f 2/9/5 5/10/5 7/11/5
f 4/12/6 1/13/6 8/14/6
f 9/15/7 10/16/7 11/17/7
f 12/18/2 13/19/2 10/20/2
f 14/21/8 15/17/8 13/16/8
f 16/22/4 11/20/4 15/19/4
f 10/23/9 13/23/9 15/23/9
f 12/24/10 9/24/10 16/24/10
f 17/23/1 18/23/1 19/23/1
f 20/25/2 21/25/2 18/25/2
f 22/26/3 23/26/3 21/26/3
f 22/27/4 24/27/4 19/27/4
f 18/28/5 21/28/5 23/28/5
f 20/29/6 17/29/6 24/29/6
f 25/23/1 26/23/1 27/23/1
f 28/25/2 29/25/2 26/25/2
f 30/26/3 31/26/3 29/26/3
f 32/27/4 27/27/4 31/27/4
f 26/28/5 29/28/5 31/28/5
f 28/29/6 25/29/6 32/29/6
f 33/30/3 35/31/3 34/32/3
f 36/31/1 38/30/1 37/32/1
f 34/32/4 36/31/4 37/32/4
f 33/30/2 40/33/2 39/33/2
f 33/30/11 37/32/11 38/30/11
f 35/31/6 40/33/6 36/31/6
f 8/7/1 1/1/1 3/3/1
f 1/8/2 4/4/2 2/6/2
f 4/1/3 6/7/3 5/2/3
f 7/6/4 6/8/4 3/5/4
f 3/34/5 2/9/5 7/11/5
f 6/35/6 4/12/6 8/14/6
f 16/21/7 9/15/7 11/17/7
f 9/22/2 12/18/2 10/20/2
f 12/15/8 14/21/8 13/16/8
f 14/18/4 16/22/4 15/19/4
f 11/23/9 10/23/9 15/23/9
f 14/24/10 12/24/10 16/24/10
f 24/23/1 17/23/1 19/23/1
f 17/25/2 20/25/2 18/25/2
f 20/26/3 22/26/3 21/26/3
f 23/27/4 22/27/4 19/27/4
f 19/28/5 18/28/5 23/28/5
f 22/29/6 20/29/6 24/29/6
f 32/23/1 25/23/1 27/23/1
f 25/25/2 28/25/2 26/25/2
f 28/26/3 30/26/3 29/26/3
f 30/27/4 32/27/4 31/27/4
f 27/28/5 26/28/5 31/28/5
f 30/29/6 28/29/6 32/29/6
f 39/33/3 35/31/3 33/30/3
f 40/33/1 38/30/1 36/31/1
f 35/31/4 36/31/4 34/32/4
f 38/30/2 40/33/2 33/30/2
f 34/32/11 37/32/11 33/30/11
f 39/33/6 40/33/6 35/31/6
