# Blender v2.76 (sub 0) OBJ File: 'jailblocks.blend'
# www.blender.org
o jFence_svyaz_Cube.010
v 0.100000 0.500000 0.100000
v 0.100000 -0.500000 0.100000
v 0.100000 0.500000 -0.100000
v 0.100000 -0.500000 -0.100000
v -0.100000 0.500000 0.100000
v -0.100000 -0.500000 0.100000
v -0.100000 0.500000 -0.100000
v -0.100000 -0.500000 -0.100000
vt 0.184455 0.039048
vt 0.184455 0.967629
vt 0.032525 0.967629
vt 0.032525 0.039048
vt 0.370878 0.817598
vt 0.370878 0.965605
vt 0.222872 0.965605
vt 0.041832 0.037505
vt 0.222872 0.817598
vn 1.000000 0.000000 0.000000
vn 0.000000 0.000000 -1.000000
vn -1.000000 -0.000000 -0.000000
vn 0.000000 -0.000000 1.000000
vn -0.000000 1.000000 0.000000
vn 0.000000 -1.000000 -0.000000
s off
f 4/1/1 3/2/1 1/3/1
f 4/4/2 8/1/2 7/2/2
f 8/4/3 6/1/3 5/2/3
f 2/1/4 1/2/4 5/3/4
f 3/5/5 7/6/5 5/7/5
f 8/8/6 4/8/6 2/8/6
f 2/4/1 4/1/1 1/3/1
f 3/3/2 4/4/2 7/2/2
f 7/3/3 8/4/3 5/2/3
f 6/4/4 2/1/4 5/3/4
f 1/9/5 3/5/5 5/7/5
f 6/8/6 8/8/6 2/8/6
