# Blender v2.76 (sub 0) OBJ File: ''
# www.blender.org
o Cube_Cube.001
v 0.000000 0.500000 0.500000
v 0.500000 0.500000 0.125000
v 0.500000 0.500000 -0.375000
v 0.250000 0.500000 0.500000
v 0.375000 0.500000 0.500000
v -0.125000 0.500000 0.500000
v -0.250000 0.125000 0.500000
v -0.375000 0.500000 0.500000
v -0.375000 -0.500000 0.500000
v -0.500000 0.500000 -0.125000
v -0.500000 0.500000 0.000000
v -0.500000 0.500000 0.125000
v -0.500000 0.500000 0.375000
v 0.375000 0.500000 0.500000
v 0.375000 -0.500000 0.500000
v -0.500000 -0.375000 0.500000
v -0.375000 0.500000 0.500000
v -0.500000 -0.125000 0.500000
v -0.500000 0.000000 0.500000
v -0.500000 0.125000 0.500000
v -0.375000 0.500000 -0.500000
v -0.500000 0.375000 0.500000
v 0.500000 0.375000 0.500000
v 0.500000 0.250000 0.500000
v 0.500000 0.125000 0.500000
v 0.375000 0.500000 0.375000
v 0.500000 -0.125000 0.500000
v -0.125000 0.500000 -0.500000
v 0.500000 -0.375000 0.500000
v 0.375000 0.375000 0.500000
v 0.375000 0.250000 0.500000
v 0.375000 0.500000 0.125000
v 0.250000 0.500000 0.375000
v 0.375000 -0.125000 0.500000
v 0.375000 0.500000 -0.500000
v 0.375000 -0.375000 0.500000
v 0.250000 0.375000 0.500000
v 0.375000 0.500000 -0.375000
v 0.375000 0.500000 -0.250000
v 0.250000 0.500000 0.250000
v 0.500000 0.500000 0.375000
v 0.250000 -0.250000 0.500000
v 0.250000 -0.375000 0.500000
v 0.125000 0.375000 0.500000
v -0.250000 0.500000 -0.125000
v 0.250000 0.500000 0.500000
v 0.250000 0.500000 -0.375000
v 0.125000 -0.125000 0.500000
v 0.125000 -0.250000 0.500000
v 0.125000 -0.375000 0.500000
v 0.250000 0.500000 -0.500000
v 0.500000 0.500000 -0.250000
v 0.000000 0.125000 0.500000
v 0.000000 0.000000 0.500000
v 0.000000 -0.125000 0.500000
v 0.000000 -0.250000 0.500000
v 0.000000 -0.375000 0.500000
v -0.125000 0.375000 0.500000
v -0.375000 0.375000 0.500000
v -0.125000 0.125000 0.500000
v -0.125000 0.000000 0.500000
v -0.125000 -0.125000 0.500000
v -0.125000 -0.250000 0.500000
v -0.125000 -0.375000 0.500000
v -0.250000 0.375000 0.500000
v -0.375000 -0.125000 0.500000
v -0.250000 0.125000 0.500000
v -0.000000 0.500000 -0.500000
v -0.250000 -0.125000 0.500000
v -0.250000 -0.250000 0.500000
v -0.250000 -0.375000 0.500000
v -0.500000 -0.125000 0.500000
v -0.375000 -0.375000 0.500000
v -0.375000 0.125000 0.500000
v -0.375000 0.000000 0.500000
v -0.250000 0.000000 0.500000
v -0.500000 0.500000 -0.375000
v -0.250000 0.125000 0.500000
v 0.500000 0.500000 -0.125000
v 0.000000 -0.125000 0.500000
v 0.000000 -0.125000 0.500000
v 0.250000 0.125000 0.500000
v 0.375000 0.125000 0.500000
v 0.000000 0.375000 0.500000
v 0.125000 0.125000 0.500000
v 0.125000 0.500000 -0.375000
v 0.250000 0.500000 -0.500000
v 0.125000 0.500000 0.125000
v 0.125000 0.500000 0.250000
v 0.125000 0.500000 0.375000
v -0.000000 0.500000 -0.125000
v -0.000000 0.500000 0.000000
v -0.000000 0.500000 0.125000
v -0.000000 0.500000 0.250000
v -0.000000 0.500000 0.375000
v -0.125000 0.500000 -0.375000
v -0.375000 0.500000 -0.375000
v -0.125000 0.500000 -0.125000
v -0.125000 0.500000 0.000000
v -0.125000 0.500000 0.125000
v -0.125000 0.500000 0.250000
v -0.125000 0.500000 0.375000
v -0.250000 0.500000 -0.375000
v -0.375000 0.500000 0.125000
v -0.250000 0.500000 -0.125000
v -0.250000 0.500000 0.125000
v -0.250000 0.500000 0.250000
v -0.250000 0.500000 0.375000
v -0.500000 0.500000 0.125000
v -0.375000 0.500000 0.375000
v -0.375000 0.500000 -0.125000
v -0.375000 0.500000 0.000000
v -0.250000 0.500000 0.000000
v -0.250000 0.500000 -0.125000
v -0.000000 0.500000 0.125000
v -0.000000 0.500000 0.125000
v 0.250000 0.500000 -0.125000
v 0.375000 0.500000 -0.125000
v -0.000000 0.500000 -0.375000
v 0.125000 0.500000 -0.125000
v 0.500000 0.125000 -0.500000
v 0.500000 -0.375000 -0.500000
v -0.500000 -0.125000 -0.500000
v -0.500000 0.000000 -0.500000
v -0.500000 0.125000 -0.500000
v -0.500000 0.375000 -0.500000
v 0.375000 0.500000 -0.500000
v -0.375000 0.500000 -0.500000
v -0.375000 -0.500000 -0.500000
v 0.375000 0.375000 -0.500000
v -0.125000 -0.500000 -0.500000
v 0.375000 0.125000 -0.500000
v 0.250000 0.375000 -0.500000
v 0.375000 -0.500000 -0.500000
v 0.375000 -0.375000 -0.500000
v 0.375000 -0.250000 -0.500000
v 0.250000 0.250000 -0.500000
v 0.500000 0.375000 -0.500000
v -0.250000 -0.125000 -0.500000
v 0.250000 -0.375000 -0.500000
v 0.250000 -0.500000 -0.500000
v 0.500000 -0.250000 -0.500000
v -0.000000 -0.500000 -0.500000
v -0.500000 -0.375000 -0.500000
v 0.500000 -0.125000 -0.500000
v 0.125000 -0.375000 -0.500000
v 0.250000 -0.500000 -0.500000
v 0.125000 0.125000 -0.500000
v 0.125000 0.250000 -0.500000
v 0.125000 0.375000 -0.500000
v -0.000000 -0.125000 -0.500000
v -0.000000 0.000000 -0.500000
v -0.000000 0.125000 -0.500000
v -0.000000 0.250000 -0.500000
v -0.000000 0.375000 -0.500000
v -0.125000 -0.375000 -0.500000
v -0.375000 -0.375000 -0.500000
v -0.125000 -0.125000 -0.500000
v -0.125000 0.000000 -0.500000
v -0.125000 0.125000 -0.500000
v -0.125000 0.250000 -0.500000
v -0.125000 0.375000 -0.500000
v -0.250000 -0.375000 -0.500000
v -0.375000 0.125000 -0.500000
v -0.250000 -0.125000 -0.500000
v -0.250000 0.125000 -0.500000
v -0.250000 0.250000 -0.500000
v -0.250000 0.375000 -0.500000
v -0.500000 0.125000 -0.500000
v -0.375000 0.375000 -0.500000
v -0.375000 -0.125000 -0.500000
v -0.375000 0.000000 -0.500000
v -0.250000 0.000000 -0.500000
v -0.250000 -0.125000 -0.500000
v -0.000000 0.125000 -0.500000
v -0.000000 0.125000 -0.500000
v 0.250000 -0.125000 -0.500000
v 0.375000 -0.125000 -0.500000
v -0.000000 -0.375000 -0.500000
v 0.125000 -0.125000 -0.500000
v 0.500000 -0.500000 -0.125000
v 0.500000 -0.500000 0.375000
v -0.500000 -0.500000 0.125000
v -0.500000 -0.500000 -0.000000
v -0.500000 -0.500000 -0.125000
v -0.500000 -0.500000 -0.375000
v 0.375000 -0.500000 -0.500000
v -0.375000 -0.500000 -0.500000
v -0.375000 -0.500000 0.500000
v 0.375000 -0.500000 -0.375000
v -0.125000 -0.500000 0.500000
v 0.375000 -0.500000 -0.125000
v 0.250000 -0.500000 -0.375000
v 0.375000 -0.500000 0.500000
v 0.375000 -0.500000 0.375000
v 0.375000 -0.500000 0.250000
v 0.250000 -0.500000 -0.250000
v 0.500000 -0.500000 -0.375000
v -0.250000 -0.500000 0.125000
v 0.250000 -0.500000 0.375000
v 0.250000 -0.500000 0.500000
v 0.500000 -0.500000 0.250000
v 0.000000 -0.500000 0.500000
v -0.500000 -0.500000 0.375000
v 0.500000 -0.500000 0.125000
v 0.125000 -0.500000 0.375000
v 0.250000 -0.500000 0.500000
v 0.125000 -0.500000 -0.125000
v 0.125000 -0.500000 -0.250000
v 0.125000 -0.500000 -0.375000
v -0.000000 -0.500000 0.125000
v -0.000000 -0.500000 -0.000000
v -0.000000 -0.500000 -0.125000
v -0.000000 -0.500000 -0.250000
v -0.000000 -0.500000 -0.375000
v -0.125000 -0.500000 0.375000
v -0.375000 -0.500000 0.375000
v -0.125000 -0.500000 0.125000
v -0.125000 -0.500000 -0.000000
v -0.125000 -0.500000 -0.125000
v -0.125000 -0.500000 -0.250000
v -0.125000 -0.500000 -0.375000
v -0.250000 -0.500000 0.375000
v -0.375000 -0.500000 -0.125000
v -0.250000 -0.500000 0.125000
v -0.250000 -0.500000 -0.125000
v -0.250000 -0.500000 -0.250000
v -0.250000 -0.500000 -0.375000
v -0.500000 -0.500000 -0.125000
v -0.375000 -0.500000 -0.375000
v -0.375000 -0.500000 0.125000
v -0.375000 -0.500000 -0.000000
v -0.250000 -0.500000 -0.000000
v -0.250000 -0.500000 0.125000
v -0.000000 -0.500000 -0.125000
v -0.000000 -0.500000 -0.125000
v 0.250000 -0.500000 0.125000
v 0.375000 -0.500000 0.125000
v -0.000000 -0.500000 0.375000
v 0.125000 -0.500000 0.125000
v -0.500000 -0.500000 -0.125000
v -0.500000 -0.500000 0.375000
v -0.500000 0.500000 0.125000
v -0.500000 0.500000 0.000000
v -0.500000 0.500000 -0.125000
v -0.500000 0.500000 -0.375000
v -0.500000 -0.375000 -0.500000
v -0.500000 0.375000 -0.500000
v -0.500000 0.375000 0.500000
v -0.500000 -0.375000 -0.375000
v -0.500000 0.125000 0.500000
v -0.500000 -0.375000 -0.125000
v -0.500000 -0.250000 -0.375000
v -0.500000 -0.375000 0.500000
v -0.500000 -0.375000 0.375000
v -0.500000 -0.375000 0.250000
v -0.500000 -0.250000 -0.250000
v -0.500000 -0.500000 -0.375000
v -0.500000 0.250000 0.125000
v -0.500000 -0.250000 0.375000
v -0.500000 -0.250000 0.500000
v -0.500000 -0.500000 0.250000
v -0.500000 -0.000000 0.500000
v -0.500000 0.500000 0.375000
v -0.500000 -0.500000 0.125000
v -0.500000 -0.125000 0.375000
v -0.500000 -0.250000 0.500000
v -0.500000 -0.125000 -0.125000
v -0.500000 -0.125000 -0.250000
v -0.500000 -0.125000 -0.375000
v -0.500000 -0.000000 0.125000
v -0.500000 -0.000000 -0.000000
v -0.500000 -0.000000 -0.125000
v -0.500000 0.000000 -0.250000
v -0.500000 0.000000 -0.375000
v -0.500000 0.125000 0.375000
v -0.500000 0.375000 0.375000
v -0.500000 0.125000 0.125000
v -0.500000 0.125000 -0.000000
v -0.500000 0.125000 -0.125000
v -0.500000 0.125000 -0.250000
v -0.500000 0.125000 -0.375000
v -0.500000 0.250000 0.375000
v -0.500000 0.375000 -0.125000
v -0.500000 0.250000 0.125000
v -0.500000 0.250000 -0.125000
v -0.500000 0.250000 -0.250000
v -0.500000 0.250000 -0.375000
v -0.500000 0.500000 -0.125000
v -0.500000 0.375000 -0.375000
v -0.500000 0.375000 0.125000
v -0.500000 0.375000 0.000000
v -0.500000 0.250000 0.000000
v -0.500000 0.250000 0.125000
v -0.500000 -0.000000 -0.125000
v -0.500000 -0.000000 -0.125000
v -0.500000 -0.250000 0.125000
v -0.500000 -0.375000 0.125000
v -0.500000 -0.000000 0.375000
v -0.500000 -0.125000 0.125000
v 0.500000 0.500000 -0.125000
v 0.500000 0.500000 0.375000
v 0.500000 -0.500000 0.125000
v 0.500000 -0.500000 -0.000000
v 0.500000 -0.500000 -0.125000
v 0.500000 -0.500000 -0.375000
v 0.500000 0.375000 -0.500000
v 0.500000 -0.375000 -0.500000
v 0.500000 -0.375000 0.500000
v 0.500000 0.375000 -0.375000
v 0.500000 -0.125000 0.500000
v 0.500000 0.375000 -0.125000
v 0.500000 0.250000 -0.375000
v 0.500000 0.375000 0.500000
v 0.500000 0.375000 0.375000
v 0.500000 0.375000 0.250000
v 0.500000 0.250000 -0.250000
v 0.500000 0.500000 -0.375000
v 0.500000 -0.250000 0.125000
v 0.500000 0.250000 0.375000
v 0.500000 0.250000 0.500000
v 0.500000 0.500000 0.250000
v 0.500000 0.000000 0.500000
v 0.500000 -0.500000 0.375000
v 0.500000 0.500000 0.125000
v 0.500000 0.125000 0.375000
v 0.500000 0.250000 0.500000
v 0.500000 0.125000 -0.125000
v 0.500000 0.125000 -0.250000
v 0.500000 0.125000 -0.375000
v 0.500000 0.000000 0.125000
v 0.500000 0.000000 -0.000000
v 0.500000 0.000000 -0.125000
v 0.500000 0.000000 -0.250000
v 0.500000 0.000000 -0.375000
v 0.500000 -0.125000 0.375000
v 0.500000 -0.375000 0.375000
v 0.500000 -0.125000 0.125000
v 0.500000 -0.125000 -0.000000
v 0.500000 -0.125000 -0.125000
v 0.500000 -0.125000 -0.250000
v 0.500000 -0.125000 -0.375000
v 0.500000 -0.250000 0.375000
v 0.500000 -0.375000 -0.125000
v 0.500000 -0.250000 0.125000
v 0.500000 -0.250000 -0.125000
v 0.500000 -0.250000 -0.250000
v 0.500000 -0.250000 -0.375000
v 0.500000 -0.500000 -0.125000
v 0.500000 -0.375000 -0.375000
v 0.500000 -0.375000 0.125000
v 0.500000 -0.375000 -0.000000
v 0.500000 -0.250000 -0.000000
v 0.500000 -0.250000 0.125000
v 0.500000 0.000000 -0.125000
v 0.500000 0.000000 -0.125000
v 0.500000 0.250000 0.125000
v 0.500000 0.375000 0.125000
v 0.500000 0.000000 0.375000
v 0.500000 0.125000 0.125000
vt 0.250050 0.250050
vt 0.375025 0.250050
vt 0.375025 0.624975
vt 0.250050 0.624975
vt 0.000100 0.125075
vt 0.250050 0.125075
vt 0.250050 0.375025
vt 0.000100 0.375025
vt 0.749950 0.999900
vt 0.749950 0.624975
vt 0.874925 0.624975
vt 0.874925 0.999900
vt 0.375025 0.999900
vt 0.125075 0.999900
vt 0.125075 0.874925
vt 0.375025 0.874925
vt 0.874925 0.125075
vt 0.125075 0.125075
vt 0.125075 0.000100
vt 0.874925 0.000100
vt 0.874925 0.375025
vt 0.999900 0.125075
vt 0.999900 0.375025
vt 0.500000 0.999900
vt 0.500000 0.874925
vt 0.749950 0.874925
vt 0.624975 0.624975
vt 0.624975 0.874925
vt 0.000100 0.624975
vt 0.250050 0.874925
vt 0.000100 0.874925
vt 0.125075 0.624975
vt 0.125075 0.500000
vt 0.250050 0.500000
vt 0.749950 0.250050
vt 0.624975 0.250050
vt 0.624975 0.125075
vt 0.749950 0.125075
vt 0.500000 0.375025
vt 0.999900 0.624975
vt 0.500000 0.624975
vt 0.500000 0.250050
vt 0.375025 0.125075
vt 0.500000 0.125075
vt 0.500000 0.500000
vt 0.375025 0.500000
vt 0.375025 0.375025
vt 0.000100 0.500000
vt 0.125075 0.375025
vt 0.999900 0.874925
vt 0.874925 0.874925
vt 0.874925 0.749950
vt 0.999900 0.749950
vt 0.624975 0.375025
vn 0.000000 1.000000 0.000000
vn 0.000000 0.000000 1.000000
vn 0.000000 0.000000 -1.000000
vn 0.000000 -1.000000 -0.000000
vn -1.000000 0.000000 -0.000000
vn 1.000000 0.000000 -0.000000
s off
f 107/1/1 101/2/1 98/3/1 105/4/1
f 13/5/1 108/6/1 106/7/1 109/8/1
f 51/9/1 117/10/1 118/11/1 35/12/1
f 28/13/1 21/14/1 97/15/1 96/16/1
f 36/17/2 73/18/2 9/19/2 15/20/2
f 34/21/2 36/17/2 29/22/2 27/23/2
f 68/24/1 119/25/1 47/26/1 87/9/1
f 96/16/1 98/3/1 120/27/1 86/28/1
f 20/29/2 7/4/2 65/30/2 22/31/2
f 78/4/2 74/32/2 75/33/2 76/34/2
f 40/35/1 89/36/1 90/37/1 33/38/1
f 16/5/2 71/6/2 69/7/2 72/8/2
f 93/39/1 32/21/1 2/23/1 79/40/1 91/41/1
f 70/1/2 63/2/2 60/3/2 67/4/2
f 10/29/1 45/4/1 103/30/1 77/31/1
f 26/17/1 110/18/1 17/19/1 14/20/1
f 4/9/2 82/10/2 83/11/2 5/12/2
f 143/24/3 179/25/3 140/26/3 147/9/3
f 1/24/2 84/25/2 37/26/2 46/9/2
f 123/29/3 139/4/3 163/30/3 144/31/3
f 153/39/3 132/21/3 121/23/3 145/40/3 151/41/3
f 6/13/2 8/14/2 59/15/2 58/16/2
f 137/35/3 149/36/3 150/37/3 133/38/3
f 131/13/3 129/14/3 157/15/3 156/16/3
f 42/35/2 49/36/2 50/37/2 43/38/2
f 94/42/1 101/2/1 102/43/1 95/44/1
f 92/45/1 99/46/1 100/47/1 115/39/1
f 75/33/2 19/48/2 18/8/2 66/49/2
f 3/50/1 38/51/1 39/52/1 52/53/1
f 112/33/1 11/48/1 12/8/1 104/49/1
f 23/50/2 30/51/2 31/52/2 24/53/2
f 152/45/3 159/46/3 160/47/3 175/39/3
f 154/42/3 161/2/3 162/43/3 155/44/3
f 32/21/1 26/17/1 41/22/1 2/23/1
f 114/4/1 111/32/1 112/33/1 113/34/1
f 88/54/1 116/39/1 94/42/1 89/36/1
f 58/16/2 60/3/2 85/27/2 44/28/2
f 54/45/2 61/46/2 62/47/2 80/39/2
f 56/42/2 63/2/2 64/43/2 57/44/2
f 141/9/3 177/10/3 178/11/3 134/12/3
f 126/5/3 168/6/3 166/7/3 169/8/3
f 167/1/3 161/2/3 158/3/3 165/4/3
f 156/16/3 158/3/3 180/27/3 146/28/3
f 55/39/2 34/21/2 27/23/2 25/40/2 53/41/2
f 48/54/2 81/39/2 56/42/2 49/36/2
f 130/17/3 170/18/3 128/19/3 127/20/3
f 122/50/3 135/51/3 136/52/3 142/53/3
f 172/33/3 124/48/3 125/8/3 164/49/3
f 132/21/3 130/17/3 138/22/3 121/23/3
f 174/4/3 171/32/3 172/33/3 173/34/3
f 148/54/3 176/39/3 154/42/3 149/36/3
f 203/24/4 239/25/4 200/26/4 207/9/4
f 183/29/4 199/4/4 223/30/4 204/31/4
f 213/39/4 192/21/4 181/23/4 205/40/4 211/41/4
f 197/35/4 209/36/4 210/37/4 193/38/4
f 191/13/4 189/14/4 217/15/4 216/16/4
f 212/45/4 219/46/4 220/47/4 235/39/4
f 214/42/4 221/2/4 222/43/4 215/44/4
f 201/9/4 237/10/4 238/11/4 194/12/4
f 186/5/4 228/6/4 226/7/4 229/8/4
f 227/1/4 221/2/4 218/3/4 225/4/4
f 216/16/4 218/3/4 240/27/4 206/28/4
f 190/17/4 230/18/4 188/19/4 187/20/4
f 182/50/4 195/51/4 196/52/4 202/53/4
f 232/33/4 184/48/4 185/8/4 224/49/4
f 192/21/4 190/17/4 198/22/4 181/23/4
f 234/4/4 231/32/4 232/33/4 233/34/4
f 208/54/4 236/39/4 214/42/4 209/36/4
f 263/24/5 299/25/5 260/26/5 267/9/5
f 243/29/5 259/4/5 283/30/5 264/31/5
f 273/39/5 252/21/5 241/23/5 265/40/5 271/41/5
f 257/35/5 269/36/5 270/37/5 253/38/5
f 251/13/5 249/14/5 277/15/5 276/16/5
f 272/45/5 279/46/5 280/47/5 295/39/5
f 274/42/5 281/2/5 282/43/5 275/44/5
f 261/9/5 297/10/5 298/11/5 254/12/5
f 246/5/5 288/6/5 286/7/5 289/8/5
f 287/1/5 281/2/5 278/3/5 285/4/5
f 276/16/5 278/3/5 300/27/5 266/28/5
f 250/17/5 290/18/5 248/19/5 247/20/5
f 242/50/5 255/51/5 256/52/5 262/53/5
f 292/33/5 244/48/5 245/8/5 284/49/5
f 252/21/5 250/17/5 258/22/5 241/23/5
f 294/4/5 291/32/5 292/33/5 293/34/5
f 268/54/5 296/39/5 274/42/5 269/36/5
f 323/24/6 359/25/6 320/26/6 327/9/6
f 303/29/6 319/4/6 343/30/6 324/31/6
f 333/39/6 312/21/6 301/23/6 325/40/6 331/41/6
f 317/35/6 329/36/6 330/37/6 313/38/6
f 311/13/6 309/14/6 337/15/6 336/16/6
f 332/45/6 339/46/6 340/47/6 355/39/6
f 334/42/6 341/2/6 342/43/6 335/44/6
f 321/9/6 357/10/6 358/11/6 314/12/6
f 306/5/6 348/6/6 346/7/6 349/8/6
f 347/1/6 341/2/6 338/3/6 345/4/6
f 336/16/6 338/3/6 360/27/6 326/28/6
f 310/17/6 350/18/6 308/19/6 307/20/6
f 302/50/6 315/51/6 316/52/6 322/53/6
f 352/33/6 304/48/6 305/8/6 344/49/6
f 312/21/6 310/17/6 318/22/6 301/23/6
f 354/4/6 351/32/6 352/33/6 353/34/6
f 328/54/6 356/39/6 334/42/6 329/36/6
