# Blender v2.76 (sub 0) OBJ File: ''
# www.blender.org
mtllib Postament3.mtl
o Cube.001_Cube.000
v -0.488448 0.496423 -0.488448
v -0.488448 0.336826 -0.488448
v -0.488448 0.336826 0.488448
v 0.488448 0.496423 -0.488448
v 0.488448 0.336826 -0.488448
v 0.488448 0.496423 0.488448
v 0.488448 0.336826 0.488448
v -0.488448 0.496423 0.488448
v -0.213418 0.344651 -0.213418
v -0.213418 -0.344651 -0.213418
v -0.213418 -0.344651 0.213418
v 0.213418 0.344651 -0.213418
v 0.213418 -0.344651 -0.213418
v 0.213418 0.344651 0.213418
v 0.213418 -0.344651 0.213418
v -0.213418 0.344651 0.213418
v -0.488448 -0.335466 -0.488448
v -0.488448 -0.495063 -0.488448
v -0.488448 -0.495063 0.488448
v 0.488448 -0.335466 -0.488448
v 0.488448 -0.495063 -0.488448
v 0.488448 -0.335466 0.488448
v 0.488448 -0.495063 0.488448
v -0.488448 -0.335466 0.488448
vt 0.374035 0.533363
vt 0.374036 0.623015
vt 0.002742 0.623015
vt 0.002742 0.533363
vt 0.001860 0.627093
vt 0.372675 0.627093
vt 0.372675 0.997907
vt 0.001860 0.997907
vt 0.591487 0.626888
vt 0.591487 0.998615
vt 0.471212 0.998615
vt 0.471881 0.999329
vt 0.471881 0.625528
vt 0.590818 0.625528
vt 0.471323 0.998615
vt 0.471323 0.626888
vt 0.591598 0.626888
vt 0.471323 0.998293
vt 0.471323 0.626565
vt 0.591598 0.626565
vt 0.471212 0.626888
vt 0.590818 0.999330
vt 0.591598 0.998615
vt 0.591598 0.998293
vt 0.471212 0.998293
vt 0.591487 0.626565
vn -1.000000 0.000000 0.000000
vn 0.000000 0.000000 -1.000000
vn 1.000000 -0.000000 0.000000
vn 0.000000 -0.000000 1.000000
vn 0.000000 -1.000000 -0.000000
vn 0.000000 1.000000 0.000000
usemtl Material.002
s 1
f 1/1/1 2/2/1 3/3/1
f 4/1/2 5/2/2 2/3/2
f 6/3/3 7/4/3 5/1/3
f 8/3/4 3/4/4 7/1/4
f 2/5/5 5/6/5 7/7/5
f 4/7/6 1/8/6 8/5/6
f 9/9/1 10/10/1 11/11/1
f 12/12/2 13/13/2 10/14/2
f 14/15/3 15/16/3 13/17/3
f 16/18/4 11/19/4 15/20/4
f 17/1/1 18/2/1 19/3/1
f 20/1/2 21/2/2 18/3/2
f 22/3/3 23/4/3 21/1/3
f 24/3/4 19/4/4 23/1/4
f 18/5/5 21/6/5 23/7/5
f 20/7/6 17/8/6 24/5/6
f 8/4/1 1/1/1 3/3/1
f 1/4/2 4/1/2 2/3/2
f 4/2/3 6/3/3 5/1/3
f 6/2/4 8/3/4 7/1/4
f 3/8/5 2/5/5 7/7/5
f 6/6/6 4/7/6 8/5/6
f 16/21/1 9/9/1 11/11/1
f 9/22/2 12/12/2 10/14/2
f 12/23/3 14/15/3 13/17/3
f 14/24/4 16/18/4 15/20/4
f 24/4/1 17/1/1 19/3/1
f 17/4/2 20/1/2 18/3/2
f 20/2/3 22/3/3 21/1/3
f 22/2/4 24/3/4 23/1/4
f 19/8/5 18/5/5 23/7/5
f 22/6/6 20/7/6 24/5/6
f 12/25/6 9/21/6 16/24/6
f 10/10/5 13/26/5 15/16/5
f 14/23/6 12/25/6 16/24/6
f 11/19/5 10/10/5 15/16/5
