# Blender v2.76 (sub 0) OBJ File: 'furniture.blend'
# www.blender.org
o Cube.002_Cube.003
v -0.494075 0.343730 0.494075
v -0.494075 0.474986 0.494075
v -0.494075 0.343730 -0.494075
v -0.494075 0.474986 -0.494075
v 0.494075 0.343730 0.494075
v 0.494075 0.474986 0.494075
v 0.494075 0.343730 -0.494075
v 0.494075 0.474986 -0.494075
v -0.377131 -0.507864 0.397859
v -0.377131 0.356842 0.397859
v -0.377131 -0.507864 0.271375
v -0.377131 0.356842 0.271375
v -0.250646 -0.507864 0.397859
v -0.250646 0.356842 0.397859
v -0.250646 -0.507864 0.271375
v -0.250646 0.356842 0.271375
v 0.254595 -0.507864 0.397859
v 0.254595 0.356842 0.397859
v 0.254595 -0.507864 0.271375
v 0.254595 0.356842 0.271375
v 0.381079 -0.507864 0.397859
v 0.381079 0.356842 0.397859
v 0.381079 -0.507864 0.271375
v 0.381079 0.356842 0.271375
v -0.377131 -0.507864 -0.258543
v -0.377131 0.356842 -0.258543
v -0.377131 -0.507864 -0.385027
v -0.377131 0.356842 -0.385027
v -0.250646 -0.507864 -0.258543
v -0.250646 0.356842 -0.258543
v -0.250646 -0.507864 -0.385027
v -0.250646 0.356842 -0.385027
v 0.254595 -0.507864 -0.258543
v 0.254595 0.356842 -0.258543
v 0.254595 -0.507864 -0.385027
v 0.254595 0.356842 -0.385027
v 0.381079 -0.507864 -0.258543
v 0.381079 0.356842 -0.258543
v 0.381079 -0.507864 -0.385027
v 0.381079 0.356842 -0.385027
vt 0.555584 0.965848
vt 0.555584 0.909406
vt 0.222330 0.909406
vt 0.559935 0.963439
vt 0.559935 0.910984
vt 0.223130 0.910984
vt 0.222330 0.965848
vt 0.223130 0.963439
vt 0.223739 0.872239
vt 0.558263 0.872239
vt 0.558263 0.537715
vt 0.223739 0.537715
vt 0.120900 0.965890
vt 0.120900 0.533514
vt 0.034355 0.533514
vt 0.120265 0.967145
vt 0.120265 0.534845
vt 0.034890 0.534845
vt 0.034355 0.965890
vt 0.034890 0.967145
vt 0.094224 0.909653
vt 0.116714 0.909653
vt 0.116714 0.932143
vt 1.000000 0.000000
vt 1.000000 1.000000
vt 0.000000 1.000000
vt 0.094224 0.932143
vt 0.000000 0.000000
vn -1.000000 0.000000 0.000000
vn 0.000000 0.000000 -1.000000
vn 1.000000 0.000000 0.000000
vn 0.000000 0.000000 1.000000
vn 0.000000 -1.000000 0.000000
vn 0.000000 1.000000 0.000000
s off
f 4/1/1 3/2/1 1/3/1
f 8/4/2 7/5/2 3/6/2
f 6/7/3 5/3/3 7/2/3
f 2/8/4 1/6/4 5/5/4
f 3/9/5 7/10/5 5/11/5
f 8/10/6 4/9/6 2/12/6
f 12/13/1 11/14/1 9/15/1
f 16/16/2 15/17/2 11/18/2
f 14/19/3 13/15/3 15/14/3
f 10/20/4 9/18/4 13/17/4
f 11/21/5 15/22/5 13/23/5
f 16/24/6 12/25/6 10/26/6
f 20/13/1 19/14/1 17/15/1
f 24/16/2 23/17/2 19/18/2
f 22/19/3 21/15/3 23/14/3
f 18/20/4 17/18/4 21/17/4
f 19/21/5 23/22/5 21/23/5
f 24/24/6 20/25/6 18/26/6
f 28/13/1 27/14/1 25/15/1
f 32/16/2 31/17/2 27/18/2
f 30/19/3 29/15/3 31/14/3
f 26/20/4 25/18/4 29/17/4
f 27/21/5 31/22/5 29/23/5
f 32/24/6 28/25/6 26/26/6
f 36/13/1 35/14/1 33/15/1
f 40/16/2 39/17/2 35/18/2
f 38/19/3 37/15/3 39/14/3
f 34/20/4 33/18/4 37/17/4
f 35/21/5 39/22/5 37/23/5
f 40/24/6 36/25/6 34/26/6
f 2/7/1 4/1/1 1/3/1
f 4/8/2 8/4/2 3/6/2
f 8/1/3 6/7/3 7/2/3
f 6/4/4 2/8/4 5/5/4
f 1/12/5 3/9/5 5/11/5
f 6/11/6 8/10/6 2/12/6
f 10/19/1 12/13/1 9/15/1
f 12/20/2 16/16/2 11/18/2
f 16/13/3 14/19/3 15/14/3
f 14/16/4 10/20/4 13/17/4
f 9/27/5 11/21/5 13/23/5
f 14/28/6 16/24/6 10/26/6
f 18/19/1 20/13/1 17/15/1
f 20/20/2 24/16/2 19/18/2
f 24/13/3 22/19/3 23/14/3
f 22/16/4 18/20/4 21/17/4
f 17/27/5 19/21/5 21/23/5
f 22/28/6 24/24/6 18/26/6
f 26/19/1 28/13/1 25/15/1
f 28/20/2 32/16/2 27/18/2
f 32/13/3 30/19/3 31/14/3
f 30/16/4 26/20/4 29/17/4
f 25/27/5 27/21/5 29/23/5
f 30/28/6 32/24/6 26/26/6
f 34/19/1 36/13/1 33/15/1
f 36/20/2 40/16/2 35/18/2
f 40/13/3 38/19/3 39/14/3
f 38/16/4 34/20/4 37/17/4
f 33/27/5 35/21/5 37/23/5
f 38/28/6 40/24/6 34/26/6
