# Blender v2.76 (sub 0) OBJ File: ''
# www.blender.org
o toilet_Cube.004
v 0.268846 0.000000 0.340884
v 0.215077 0.035492 0.287114
v 0.161308 0.000000 0.233345
v 0.215077 -0.076041 0.287114
v 0.268846 0.000000 -0.196809
v 0.215077 0.035492 -0.143039
v 0.161308 0.000000 -0.089270
v 0.215077 -0.076041 -0.143039
v -0.268846 0.000000 -0.196809
v -0.215077 0.035492 -0.143039
v -0.161308 0.000000 -0.089270
v -0.215077 -0.076041 -0.143039
v -0.268846 0.000000 0.340884
v -0.215077 0.035492 0.287114
v -0.161308 0.000000 0.233345
v -0.215077 -0.076041 0.287114
v -0.245262 -0.003757 -0.191096
v -0.245262 0.437693 -0.191096
v -0.245262 -0.003757 -0.450183
v -0.245262 0.437693 -0.450183
v 0.245262 -0.003757 -0.191096
v 0.245262 0.437693 -0.191096
v 0.245262 -0.003757 -0.450183
v 0.245262 0.437693 -0.450183
v -0.276751 0.434989 -0.159348
v -0.276751 0.475591 -0.159348
v -0.276751 0.434989 -0.482942
v -0.276751 0.475591 -0.482942
v 0.276751 0.434989 -0.159348
v 0.276751 0.475591 -0.159348
v 0.276751 0.434989 -0.482942
v 0.276751 0.475591 -0.482942
v 0.214241 0.007619 -0.141020
v 0.214241 -0.304078 -0.141020
v 0.214241 0.007619 0.287566
v 0.214241 -0.304078 0.287566
v -0.214241 0.007619 -0.141020
v -0.214241 -0.304078 -0.141020
v -0.214241 0.007619 0.287566
v -0.214241 -0.304078 0.287566
v -0.139725 -0.158772 -0.112266
v -0.139725 -0.000389 -0.112266
v -0.139725 -0.158772 -0.351690
v -0.139725 -0.000389 -0.351690
v 0.139725 -0.158772 -0.112266
v 0.139725 -0.000389 -0.112266
v 0.139725 -0.158772 -0.351690
v 0.139725 -0.000389 -0.351690
v -0.210320 -0.500747 0.262758
v -0.210320 -0.464165 0.262758
v -0.210320 -0.500747 -0.108215
v -0.210320 -0.464165 -0.108215
v 0.210320 -0.500747 0.262758
v 0.210320 -0.464165 0.262758
v 0.210320 -0.500747 -0.108215
v 0.210320 -0.464165 -0.108215
v 0.119443 -0.293894 -0.046198
v 0.119443 -0.467670 -0.046198
v 0.119443 -0.293894 0.192745
v 0.119443 -0.467670 0.192745
v -0.119443 -0.293894 -0.046198
v -0.119443 -0.467670 -0.046198
v -0.119443 -0.293894 0.192745
v -0.119443 -0.467670 0.192745
v -0.210725 0.273932 -0.171619
v -0.210725 0.381524 -0.171619
v -0.210725 0.273932 -0.199817
v -0.210725 0.381524 -0.199817
v -0.043715 0.273932 -0.171619
v -0.043715 0.381524 -0.171619
v -0.043715 0.273932 -0.199817
v -0.043715 0.381524 -0.199817
vt 0.549615 0.664020
vt 0.275391 0.708984
vt 0.000000 0.000000
vt 0.361845 0.743848
vt 0.707105 0.730461
vt 0.484774 0.703784
vt 0.526237 0.703393
vt 0.558271 0.998093
vt 0.558271 0.658788
vt 0.347989 0.658788
vt 0.305275 0.662688
vt 0.305275 0.998127
vt 0.006946 0.998127
vt 0.347989 0.998093
vt 0.466296 0.752282
vt 0.466296 0.773235
vt 0.445343 0.773235
vt 1.000000 0.000000
vt 1.000000 1.000000
vt 0.000000 1.000000
vt 0.311823 0.368597
vt 0.311823 0.348323
vt 0.004014 0.348323
vt 0.310235 0.622200
vt 0.310235 0.601888
vt 0.001843 0.601888
vt 0.004014 0.368597
vt 0.001843 0.622200
vt 0.002690 0.432492
vt 0.306786 0.432492
vt 0.306786 0.410532
vt 0.002690 0.410532
vt 0.807841 0.409932
vt 0.807841 0.619365
vt 0.598409 0.619365
vt 0.006381 0.401732
vt 0.310477 0.401732
vt 0.310477 0.379772
vt 0.006946 0.662688
vt 0.445343 0.752282
vt 0.598409 0.409932
vt 0.006381 0.379772
vn 0.550900 0.834600 0.000000
vn -0.550900 0.834600 -0.000000
vn -0.816500 -0.577400 0.000000
vn 0.816500 -0.577400 0.000000
vn 0.000000 0.834600 -0.550900
vn 0.000000 0.834600 0.550900
vn 0.000000 -0.577400 0.816500
vn -0.000000 -0.577400 -0.816500
vn 0.000000 -0.577300 -0.816500
vn -1.000000 0.000000 0.000000
vn 0.000000 0.000000 -1.000000
vn 1.000000 0.000000 0.000000
vn 0.000000 0.000000 1.000000
vn 0.000000 -1.000000 0.000000
vn 0.000000 1.000000 0.000000
s off
f 1/1/1 5/1/1 6/1/1
f 6/2/2 7/2/2 3/2/2
f 7/3/3 8/3/3 4/3/3
f 4/4/4 8/4/4 5/4/4
f 9/5/5 10/5/5 6/5/5
f 6/6/6 10/6/6 11/6/6
f 11/3/7 12/3/7 8/3/7
f 12/4/8 9/4/8 5/4/8
f 13/7/2 14/7/2 10/7/2
f 10/2/1 14/2/1 15/2/1
f 15/3/4 16/3/4 12/3/4
f 16/4/3 13/4/3 9/4/3
f 1/5/6 2/5/6 14/5/6
f 2/6/5 3/6/5 15/6/5
f 15/3/9 3/3/9 4/3/9
f 4/4/7 1/4/7 13/4/7
f 20/8/10 19/9/10 17/10/10
f 24/11/11 23/12/11 19/13/11
f 22/14/12 21/10/12 23/9/12
f 18/11/13 17/12/13 21/13/13
f 19/15/14 23/16/14 21/17/14
f 24/18/15 20/19/15 18/20/15
f 28/21/10 27/22/10 25/23/10
f 32/24/11 31/25/11 27/26/11
f 30/27/12 29/23/12 31/22/12
f 26/28/13 25/26/13 29/25/13
f 27/29/14 31/30/14 29/31/14
f 32/30/15 28/29/15 26/32/15
f 38/15/14 34/16/14 36/17/14
f 33/11/11 34/12/11 38/13/11
f 37/8/10 38/9/10 40/10/10
f 33/33/15 37/34/15 39/35/15
f 39/11/13 40/12/13 36/13/13
f 35/14/12 36/10/12 34/9/12
f 44/21/10 43/22/10 41/23/10
f 48/24/11 47/25/11 43/26/11
f 46/27/12 45/23/12 47/22/12
f 42/28/13 41/26/13 45/25/13
f 43/36/14 47/37/14 45/38/14
f 48/30/15 44/29/15 42/32/15
f 52/21/10 51/22/10 49/23/10
f 56/24/11 55/25/11 51/26/11
f 54/27/12 53/23/12 55/22/12
f 50/28/13 49/26/13 53/25/13
f 51/29/14 55/30/14 53/31/14
f 56/30/15 52/29/15 50/32/15
f 62/15/14 58/16/14 60/17/14
f 57/11/11 58/12/11 62/13/11
f 61/8/10 62/9/10 64/10/10
f 57/33/15 61/34/15 63/35/15
f 63/11/13 64/12/13 60/13/13
f 59/14/12 60/10/12 58/9/12
f 68/21/10 67/22/10 65/23/10
f 72/24/11 71/25/11 67/26/11
f 70/27/12 69/23/12 71/22/12
f 66/28/13 65/26/13 69/25/13
f 67/29/14 71/30/14 69/31/14
f 72/30/15 68/29/15 66/32/15
f 2/1/1 1/1/1 6/1/1
f 2/2/2 6/2/2 3/2/2
f 3/3/3 7/3/3 4/3/3
f 1/4/4 4/4/4 5/4/4
f 5/5/5 9/5/5 6/5/5
f 7/6/6 6/6/6 11/6/6
f 7/3/7 11/3/7 8/3/7
f 8/4/8 12/4/8 5/4/8
f 9/7/2 13/7/2 10/7/2
f 11/2/1 10/2/1 15/2/1
f 11/3/4 15/3/4 12/3/4
f 12/4/3 16/4/3 9/4/3
f 13/5/6 1/5/6 14/5/6
f 14/6/5 2/6/5 15/6/5
f 16/3/8 15/3/8 4/3/8
f 16/4/7 4/4/7 13/4/7
f 18/14/10 20/8/10 17/10/10
f 20/39/11 24/11/11 19/13/11
f 24/8/12 22/14/12 23/9/12
f 22/39/13 18/11/13 21/13/13
f 17/40/14 19/15/14 21/17/14
f 22/3/15 24/18/15 18/20/15
f 26/27/10 28/21/10 25/23/10
f 28/28/11 32/24/11 27/26/11
f 32/21/12 30/27/12 31/22/12
f 30/24/13 26/28/13 29/25/13
f 25/32/14 27/29/14 29/31/14
f 30/31/15 32/30/15 26/32/15
f 40/40/14 38/15/14 36/17/14
f 37/39/11 33/11/11 38/13/11
f 39/14/10 37/8/10 40/10/10
f 35/41/15 33/33/15 39/35/15
f 35/39/13 39/11/13 36/13/13
f 33/8/12 35/14/12 34/9/12
f 42/27/10 44/21/10 41/23/10
f 44/28/11 48/24/11 43/26/11
f 48/21/12 46/27/12 47/22/12
f 46/24/13 42/28/13 45/25/13
f 41/42/14 43/36/14 45/38/14
f 46/31/15 48/30/15 42/32/15
f 50/27/10 52/21/10 49/23/10
f 52/28/11 56/24/11 51/26/11
f 56/21/12 54/27/12 55/22/12
f 54/24/13 50/28/13 53/25/13
f 49/32/14 51/29/14 53/31/14
f 54/31/15 56/30/15 50/32/15
f 64/40/14 62/15/14 60/17/14
f 61/39/11 57/11/11 62/13/11
f 63/14/10 61/8/10 64/10/10
f 59/41/15 57/33/15 63/35/15
f 59/39/13 63/11/13 60/13/13
f 57/8/12 59/14/12 58/9/12
f 66/27/10 68/21/10 65/23/10
f 68/28/11 72/24/11 67/26/11
f 72/21/12 70/27/12 71/22/12
f 70/24/13 66/28/13 69/25/13
f 65/32/14 67/29/14 69/31/14
f 70/31/15 72/30/15 66/32/15
