# Blender v2.77 (sub 0) OBJ File: 'Zabor.blend'
# www.blender.org
mtllib zabor_palka.mtl
o Zabor_crest_Cube.003
v -0.089385 -0.508809 0.089385
v -0.089385 0.501393 0.089385
v -0.089385 -0.508809 -0.089385
v -0.089385 0.501393 -0.089385
v 0.089385 -0.508809 0.089385
v 0.089385 0.501393 0.089385
v 0.089385 -0.508809 -0.089385
v 0.089385 0.501393 -0.089385
v -0.089385 -0.508809 0.089385
v -0.089385 -0.508809 0.089385
v -0.089385 0.501393 0.089385
v -0.089385 0.501393 0.089385
v -0.089385 0.501393 -0.089385
v -0.089385 0.501393 -0.089385
v -0.089385 -0.508809 -0.089385
v -0.089385 -0.508809 -0.089385
v 0.089385 0.501393 -0.089385
v 0.089385 0.501393 -0.089385
v 0.089385 -0.508809 -0.089385
v 0.089385 -0.508809 -0.089385
v 0.089385 0.501393 0.089385
v 0.089385 0.501393 0.089385
v 0.089385 -0.508809 0.089385
v 0.089385 -0.508809 0.089385
vt 0.187602 0.964334
vt 0.011436 0.964334
vt 0.011435 0.016108
vt 0.187601 0.016108
vt 0.338947 0.964333
vt 0.187614 0.964333
vt 0.187611 0.016108
vt 0.338944 0.016107
vt 0.187614 0.964333
vt 0.011447 0.964334
vt 0.011445 0.016108
vt 0.187611 0.016108
vt 0.338936 0.964334
vt 0.187602 0.964334
vt 0.187601 0.016108
vt 0.338934 0.016108
vt 0.378471 0.784676
vt 0.378471 0.966825
vt 0.560620 0.966825
vt 0.560620 0.784676
vt 0.560620 0.784676
vt 0.560620 0.966825
vt 0.378471 0.966825
vt 0.378471 0.784676
vn -1.000000 0.000000 0.000000
vn 0.000000 0.000000 -1.000000
vn 1.000000 0.000000 0.000000
vn 0.000000 0.000000 1.000000
vn 0.000000 -1.000000 0.000000
vn 0.000000 1.000000 0.000000
usemtl Material
s 1
f 11/1/1 13/2/1 15/3/1 9/4/1
f 14/5/2 17/6/2 19/7/2 16/8/2
f 18/9/3 21/10/3 23/11/3 20/12/3
f 22/13/4 12/14/4 10/15/4 24/16/4
f 1/17/5 3/18/5 7/19/5 5/20/5
f 6/21/6 8/22/6 4/23/6 2/24/6
