# Blender v2.77 (sub 0) OBJ File: 'Zabor.blend'
# www.blender.org
mtllib zabor_crest.mtl
o Zabor_crest_Cube.003
v -0.089385 -0.508809 0.089385
v -0.089385 0.501393 0.089385
v -0.089385 -0.508809 -0.089385
v -0.089385 0.501393 -0.089385
v 0.089385 -0.508809 0.089385
v 0.089385 0.501393 0.089385
v 0.089385 -0.508809 -0.089385
v 0.089385 0.501393 -0.089385
v 0.507042 0.245419 -0.049273
v -0.504823 0.245419 -0.049273
v 0.507042 0.245419 0.049273
v -0.504823 0.245419 0.049273
v 0.507042 0.386530 -0.049273
v -0.504823 0.386530 -0.049273
v 0.507042 0.386530 0.049273
v -0.504823 0.386530 0.049273
v -0.049273 -0.159458 0.508020
v -0.049273 -0.159458 -0.500386
v 0.049273 -0.159458 0.508020
v 0.049273 -0.159458 -0.500386
v -0.049273 -0.018347 0.508020
v -0.049273 -0.018347 -0.500386
v 0.049273 -0.018347 0.508020
v 0.049273 -0.018347 -0.500386
v -0.049273 0.386530 -0.500386
v -0.049273 0.386530 0.508020
v 0.049273 0.386530 -0.500386
v 0.049273 0.386530 0.508020
v -0.049273 0.245419 -0.500386
v -0.049273 0.245419 0.508020
v 0.049273 0.245419 -0.500386
v 0.049273 0.245419 0.508020
v -0.504823 -0.018347 -0.049273
v 0.507042 -0.018347 -0.049273
v -0.504823 -0.018347 0.049273
v 0.507042 -0.018347 0.049273
v -0.504823 -0.159458 -0.049273
v 0.507042 -0.159458 -0.049273
v -0.504823 -0.159458 0.049273
v 0.507042 -0.159458 0.049273
v 0.084302 0.245419 0.049273
v 0.084302 0.386530 0.049273
v 0.084302 0.245419 -0.049273
v 0.084302 0.386530 -0.049273
v 0.049273 0.245419 0.085281
v -0.049273 0.386530 0.085281
v -0.049273 0.245419 0.085281
v 0.049273 0.386530 0.085281
v -0.082084 -0.018347 0.049273
v -0.082084 -0.159458 0.049273
v -0.082084 -0.018347 -0.049273
v -0.082084 -0.159458 -0.049273
v 0.049273 -0.018347 -0.086521
v -0.049273 -0.159458 -0.086521
v -0.049273 -0.018347 -0.086521
v 0.049273 -0.159458 -0.086521
v -0.082084 0.245419 0.049273
v -0.082084 0.245419 -0.049273
v -0.082084 0.386530 0.049273
v -0.082084 0.386530 -0.049273
v 0.049273 0.386530 -0.086521
v -0.049273 0.386530 -0.086521
v -0.049273 0.245419 -0.086521
v 0.049273 0.245419 -0.086521
v 0.084302 -0.018347 0.049273
v 0.084302 -0.018347 -0.049273
v 0.084302 -0.159458 0.049273
v 0.084302 -0.159458 -0.049273
v 0.049273 -0.159458 0.085281
v -0.049273 -0.159458 0.085281
v -0.049273 -0.018347 0.085281
v 0.049273 -0.018347 0.085281
v -0.089385 -0.508809 0.089385
v -0.089385 -0.508809 0.089385
v -0.089385 0.501393 0.089385
v -0.089385 0.501393 0.089385
v -0.089385 0.501393 -0.089385
v -0.089385 0.501393 -0.089385
v -0.089385 -0.508809 -0.089385
v -0.089385 -0.508809 -0.089385
v 0.089385 0.501393 -0.089385
v 0.089385 0.501393 -0.089385
v 0.089385 -0.508809 -0.089385
v 0.089385 -0.508809 -0.089385
v 0.089385 0.501393 0.089385
v 0.089385 0.501393 0.089385
v 0.089385 -0.508809 0.089385
v 0.089385 -0.508809 0.089385
v -0.504823 0.386530 0.049273
v -0.504823 0.386530 0.049273
v -0.504823 0.245419 0.049273
v -0.504823 0.245419 0.049273
v -0.082084 0.245419 0.049273
v -0.504823 0.245419 -0.049273
v -0.504823 0.245419 -0.049273
v -0.504823 0.386530 -0.049273
v -0.504823 0.386530 -0.049273
v 0.507042 0.245419 0.049273
v 0.507042 0.245419 0.049273
v 0.507042 0.386530 0.049273
v 0.507042 0.386530 0.049273
v 0.507042 0.386530 -0.049273
v 0.507042 0.386530 -0.049273
v 0.507042 0.245419 -0.049273
v 0.507042 0.245419 -0.049273
v 0.084302 0.386530 0.049273
v -0.082084 0.245419 -0.049273
v -0.082084 0.386530 -0.049273
v -0.049273 -0.018347 0.508020
v -0.049273 -0.018347 0.508020
v 0.049273 -0.018347 0.508020
v 0.049273 -0.018347 0.508020
v 0.049273 -0.159458 0.508020
v 0.049273 -0.159458 0.508020
v -0.049273 -0.159458 0.508020
v -0.049273 -0.159458 0.508020
v 0.049273 -0.018347 0.085281
v 0.049273 -0.018347 -0.500386
v 0.049273 -0.018347 -0.500386
v -0.049273 -0.018347 -0.500386
v -0.049273 -0.018347 -0.500386
v 0.049273 -0.159458 -0.500386
v 0.049273 -0.159458 -0.500386
v -0.049273 -0.159458 -0.086521
v -0.049273 -0.159458 -0.500386
v -0.049273 -0.159458 -0.500386
v -0.049273 -0.018347 0.085281
v 0.049273 -0.159458 0.085281
v -0.049273 0.245419 -0.500386
v -0.049273 0.245419 -0.500386
v 0.049273 0.245419 -0.500386
v 0.049273 0.245419 -0.500386
v 0.049273 0.386530 -0.500386
v 0.049273 0.386530 -0.500386
v -0.049273 0.386530 -0.500386
v -0.049273 0.386530 -0.500386
v 0.049273 0.245419 -0.086521
v 0.049273 0.245419 0.508020
v 0.049273 0.245419 0.508020
v -0.049273 0.245419 0.508020
v -0.049273 0.245419 0.508020
v 0.049273 0.386530 0.508020
v 0.049273 0.386530 0.508020
v -0.049273 0.386530 0.085281
v -0.049273 0.386530 0.508020
v -0.049273 0.386530 0.508020
v -0.049273 0.245419 -0.086521
v 0.049273 0.386530 -0.086521
v 0.507042 -0.159458 0.049273
v 0.507042 -0.159458 0.049273
v 0.507042 -0.018347 0.049273
v 0.507042 -0.018347 0.049273
v 0.084302 -0.018347 0.049273
v 0.507042 -0.018347 -0.049273
v 0.507042 -0.018347 -0.049273
v 0.507042 -0.159458 -0.049273
v 0.507042 -0.159458 -0.049273
v -0.504823 -0.018347 0.049273
v -0.504823 -0.018347 0.049273
v -0.504823 -0.159458 0.049273
v -0.504823 -0.159458 0.049273
v -0.504823 -0.159458 -0.049273
v -0.504823 -0.159458 -0.049273
v -0.504823 -0.018347 -0.049273
v -0.504823 -0.018347 -0.049273
v -0.082084 -0.159458 0.049273
v 0.084302 -0.018347 -0.049273
v 0.084302 -0.159458 -0.049273
v 0.084302 0.245419 0.049273
v -0.082084 0.386530 0.049273
v 0.084302 0.245419 -0.049273
v 0.084302 0.386530 -0.049273
v 0.049273 0.245419 0.085281
v -0.049273 0.386530 -0.086521
v -0.049273 0.245419 0.085281
v 0.049273 0.386530 0.085281
v -0.082084 -0.018347 0.049273
v 0.084302 -0.159458 0.049273
v -0.082084 -0.018347 -0.049273
v -0.082084 -0.159458 -0.049273
v 0.049273 -0.018347 -0.086521
v -0.049273 -0.159458 0.085281
v -0.049273 -0.018347 -0.086521
v 0.049273 -0.159458 -0.086521
vt 0.187602 0.964334
vt 0.011436 0.964334
vt 0.011435 0.016108
vt 0.187601 0.016108
vt 0.338947 0.964333
vt 0.187614 0.964333
vt 0.187611 0.016108
vt 0.338944 0.016107
vt 0.187614 0.964333
vt 0.011447 0.964334
vt 0.011445 0.016108
vt 0.187611 0.016108
vt 0.338936 0.964334
vt 0.187602 0.964334
vt 0.187601 0.016108
vt 0.338934 0.016108
vt 0.378471 0.784676
vt 0.378471 0.966825
vt 0.560620 0.966825
vt 0.560620 0.784676
vt 0.560620 0.784676
vt 0.560620 0.966825
vt 0.378471 0.966825
vt 0.378471 0.784676
vt 0.378471 0.784676
vt 0.378471 0.966825
vt 0.560620 0.966825
vt 0.560620 0.784676
vt 0.954597 0.396215
vt 0.781814 0.396216
vt 0.781812 0.018348
vt 0.954595 0.018348
vt 0.781803 0.396216
vt 0.609020 0.396216
vt 0.609020 0.018349
vt 0.781802 0.018349
vt 0.560620 0.784676
vt 0.560620 0.966825
vt 0.378471 0.966825
vt 0.378471 0.784676
vt 0.954586 0.396216
vt 0.781803 0.396216
vt 0.781802 0.018349
vt 0.954585 0.018348
vt 0.781814 0.396216
vt 0.609031 0.396216
vt 0.609030 0.018348
vt 0.781812 0.018348
vt 0.954586 0.396216
vt 0.781803 0.396216
vt 0.781802 0.018349
vt 0.954585 0.018348
vt 0.954597 0.396215
vt 0.781814 0.396216
vt 0.781812 0.018348
vt 0.954595 0.018348
vt 0.378471 0.784676
vt 0.378471 0.966825
vt 0.560620 0.966825
vt 0.560620 0.784676
vt 0.781814 0.396216
vt 0.609031 0.396216
vt 0.609030 0.018348
vt 0.781812 0.018348
vt 0.560620 0.784676
vt 0.560620 0.966825
vt 0.378471 0.966825
vt 0.378471 0.784676
vt 0.781803 0.396216
vt 0.609020 0.396216
vt 0.609020 0.018349
vt 0.781802 0.018349
vt 0.954586 0.396216
vt 0.781803 0.396216
vt 0.781802 0.018349
vt 0.954585 0.018348
vt 0.954597 0.396215
vt 0.781814 0.396216
vt 0.781812 0.018348
vt 0.954595 0.018348
vt 0.378471 0.784676
vt 0.378471 0.966825
vt 0.560620 0.966825
vt 0.560620 0.784676
vt 0.781814 0.396216
vt 0.609031 0.396216
vt 0.609030 0.018348
vt 0.781812 0.018348
vt 0.560620 0.784676
vt 0.560620 0.966825
vt 0.378471 0.966825
vt 0.378471 0.784676
vt 0.781803 0.396216
vt 0.609020 0.396216
vt 0.609020 0.018349
vt 0.781802 0.018349
vt 0.378471 0.784676
vt 0.378471 0.966825
vt 0.560620 0.966825
vt 0.560620 0.784676
vt 0.954597 0.396215
vt 0.781814 0.396216
vt 0.781812 0.018348
vt 0.954595 0.018348
vt 0.781803 0.396216
vt 0.609020 0.396216
vt 0.609020 0.018349
vt 0.781802 0.018349
vt 0.560620 0.784676
vt 0.560620 0.966825
vt 0.378471 0.966825
vt 0.378471 0.784676
vt 0.954586 0.396216
vt 0.781803 0.396216
vt 0.781802 0.018349
vt 0.954585 0.018348
vt 0.781814 0.396216
vt 0.609031 0.396216
vt 0.609030 0.018348
vt 0.781812 0.018348
vt 0.781815 0.774083
vt 0.609032 0.774083
vt 0.609031 0.396216
vt 0.781814 0.396216
vt 0.954587 0.774083
vt 0.781804 0.774084
vt 0.781803 0.396216
vt 0.954586 0.396216
vt 0.781804 0.774084
vt 0.609020 0.774084
vt 0.609020 0.396216
vt 0.781803 0.396216
vt 0.954598 0.774083
vt 0.781815 0.774083
vt 0.781814 0.396216
vt 0.954597 0.396215
vt 0.781804 0.774084
vt 0.609020 0.774084
vt 0.609020 0.396216
vt 0.781803 0.396216
vt 0.781815 0.774083
vt 0.609032 0.774083
vt 0.609031 0.396216
vt 0.781814 0.396216
vt 0.954598 0.774083
vt 0.781815 0.774083
vt 0.781814 0.396216
vt 0.954597 0.396215
vt 0.954587 0.774083
vt 0.781804 0.774084
vt 0.781803 0.396216
vt 0.954586 0.396216
vt 0.781815 0.774083
vt 0.609032 0.774083
vt 0.609031 0.396216
vt 0.781814 0.396216
vt 0.954587 0.774083
vt 0.781804 0.774084
vt 0.781803 0.396216
vt 0.954586 0.396216
vt 0.781804 0.774084
vt 0.609020 0.774084
vt 0.609020 0.396216
vt 0.781803 0.396216
vt 0.954598 0.774083
vt 0.781815 0.774083
vt 0.781814 0.396216
vt 0.954597 0.396215
vt 0.781804 0.774084
vt 0.609020 0.774084
vt 0.609020 0.396216
vt 0.781803 0.396216
vt 0.781815 0.774083
vt 0.609032 0.774083
vt 0.609031 0.396216
vt 0.781814 0.396216
vt 0.954598 0.774083
vt 0.781815 0.774083
vt 0.781814 0.396216
vt 0.954597 0.396215
vt 0.954587 0.774083
vt 0.781804 0.774084
vt 0.781803 0.396216
vt 0.954586 0.396216
vn -1.000000 0.000000 0.000000
vn 0.000000 0.000000 -1.000000
vn 1.000000 0.000000 0.000000
vn 0.000000 0.000000 1.000000
vn 0.000000 -1.000000 0.000000
vn 0.000000 1.000000 0.000000
usemtl Material
s 1
f 75/1/1 77/2/1 79/3/1 73/4/1
f 78/5/2 81/6/2 83/7/2 80/8/2
f 82/9/3 85/10/3 87/11/3 84/12/3
f 86/13/4 76/14/4 74/15/4 88/16/4
f 1/17/5 3/18/5 7/19/5 5/20/5
f 6/21/6 8/22/6 4/23/6 2/24/6
f 89/25/1 96/26/1 94/27/1 91/28/1
f 108/29/2 107/30/2 95/31/2 97/32/2
f 170/33/6 60/34/6 14/35/6 90/36/6
f 98/37/3 104/38/3 102/39/3 100/40/3
f 93/41/4 59/42/4 16/43/4 92/44/4
f 58/45/5 57/46/5 12/47/5 10/48/5
f 127/49/1 182/50/1 116/51/1 110/52/1
f 128/53/3 117/54/3 112/55/3 114/56/3
f 115/57/4 113/58/4 111/59/4 109/60/4
f 72/61/6 71/62/6 21/63/6 23/64/6
f 120/65/2 118/66/2 122/67/2 126/68/2
f 70/69/5 69/70/5 19/71/5 17/72/5
f 147/73/1 174/74/1 136/75/1 130/76/1
f 148/77/3 137/78/3 132/79/3 134/80/3
f 135/81/2 133/82/2 131/83/2 129/84/2
f 64/85/5 63/86/5 29/87/5 31/88/5
f 140/89/4 138/90/4 142/91/4 146/92/4
f 62/93/6 61/94/6 27/95/6 25/96/6
f 149/97/3 156/98/3 154/99/3 151/100/3
f 168/101/2 167/102/2 155/103/2 157/104/2
f 178/105/5 68/106/5 38/107/5 150/108/5
f 158/109/1 164/110/1 162/111/1 160/112/1
f 153/113/4 67/114/4 40/115/4 152/116/4
f 66/117/6 65/118/6 36/119/6 34/120/6
f 105/121/5 99/122/5 169/123/5 171/124/5
f 11/125/4 101/126/4 106/127/4 41/128/4
f 15/129/6 103/130/6 172/131/6 42/132/6
f 13/133/2 9/134/2 43/135/2 44/136/2
f 145/137/6 143/138/6 176/139/6 144/140/6
f 139/141/5 141/142/5 175/143/5 173/144/5
f 28/145/3 32/146/3 45/147/3 48/148/3
f 30/149/1 26/150/1 46/151/1 47/152/1
f 165/153/6 159/154/6 177/155/6 179/156/6
f 35/157/4 161/158/4 166/159/4 49/160/4
f 39/161/5 163/162/5 180/163/5 50/164/5
f 37/165/2 33/166/2 51/167/2 52/168/2
f 125/169/5 123/170/5 184/171/5 124/172/5
f 119/173/6 121/174/6 183/175/6 181/176/6
f 20/177/3 24/178/3 53/179/3 56/180/3
f 22/181/1 18/182/1 54/183/1 55/184/1
